<svg width="74" height="74" viewBox="0 0 74 74" fill="none" xmlns="http://www.w3.org/2000/svg">
<rect width="73.9483" height="73.9483" rx="36.9742" fill="#EAEAFF"/>
<mask id="mask0_5250_9652" style="mask-type:alpha" maskUnits="userSpaceOnUse" x="20" y="20" width="34" height="34">
<g clip-path="url(#clip0_5250_9652)">
<path d="M35.8655 23.6602C29.1337 23.6602 23.6641 29.0843 23.6641 35.7906C23.6641 42.497 29.1337 47.9211 35.8655 47.9211C38.7939 47.9211 41.4849 46.894 43.588 45.1836L48.3942 49.9588C48.8291 50.3914 49.5312 50.3892 49.9627 49.9543C50.3953 49.5195 50.3931 48.8174 49.9582 48.3859L45.1753 43.6329C46.9778 41.5198 48.067 38.7811 48.067 35.7906C48.067 29.0843 42.5974 23.6602 35.8655 23.6602Z" fill="black"/>
</g>
</mask>
<g mask="url(#mask0_5250_9652)">
<rect x="20.3379" y="20.334" width="33.2768" height="33.2768" fill="#0C63CE"/>
</g>
<defs>
<clipPath id="clip0_5250_9652">
<rect width="33.2768" height="33.2768" fill="white" transform="translate(20.3379 20.334)"/>
</clipPath>
</defs>
</svg>
