<svg width="881" height="340" viewBox="0 0 881 340" fill="none" xmlns="http://www.w3.org/2000/svg">
<path d="M55.566 21.204V34.63H37.338V90H20.58V34.63H2.352V21.204H55.566ZM78.7744 44.43C80.7344 41.4247 83.1844 39.0727 86.1244 37.374C89.0644 35.61 92.3311 34.728 95.9244 34.728V52.466H91.3184C87.1371 52.466 84.0011 53.3807 81.9104 55.21C79.8197 56.974 78.7744 60.11 78.7744 64.618V90H62.0164V35.316H78.7744V44.43ZM98.6424 62.56C98.6424 56.9413 99.6877 52.0087 101.778 47.762C103.934 43.5153 106.842 40.2487 110.5 37.962C114.159 35.6753 118.242 34.532 122.75 34.532C126.605 34.532 129.97 35.316 132.844 36.884C135.784 38.452 138.038 40.51 139.606 43.058V35.316H156.364V90H139.606V82.258C137.973 84.806 135.686 86.864 132.746 88.432C129.872 90 126.507 90.784 122.652 90.784C118.21 90.784 114.159 89.6407 110.5 87.354C106.842 85.002 103.934 81.7027 101.778 77.456C99.6877 73.144 98.6424 68.1787 98.6424 62.56ZM139.606 62.658C139.606 58.4767 138.43 55.1773 136.078 52.76C133.792 50.3427 130.982 49.134 127.65 49.134C124.318 49.134 121.476 50.3427 119.124 52.76C116.838 55.112 115.694 58.3787 115.694 62.56C115.694 66.7413 116.838 70.0733 119.124 72.556C121.476 74.9733 124.318 76.182 127.65 76.182C130.982 76.182 133.792 74.9733 136.078 72.556C138.43 70.1387 139.606 66.8393 139.606 62.658ZM199.848 34.728C206.251 34.728 211.347 36.8187 215.136 41C218.991 45.116 220.918 50.8 220.918 58.052V90H204.258V60.306C204.258 56.6473 203.311 53.8053 201.416 51.78C199.521 49.7547 196.973 48.742 193.772 48.742C190.571 48.742 188.023 49.7547 186.128 51.78C184.233 53.8053 183.286 56.6473 183.286 60.306V90H166.528V35.316H183.286V42.568C184.985 40.1507 187.271 38.256 190.146 36.884C193.021 35.4467 196.255 34.728 199.848 34.728ZM252.849 90.784C248.08 90.784 243.833 89.9673 240.109 88.334C236.385 86.7007 233.445 84.4793 231.289 81.67C229.133 78.7953 227.925 75.594 227.663 72.066H244.225C244.421 73.9607 245.303 75.496 246.871 76.672C248.439 77.848 250.367 78.436 252.653 78.436C254.744 78.436 256.345 78.044 257.455 77.26C258.631 76.4107 259.219 75.3327 259.219 74.026C259.219 72.458 258.403 71.3147 256.769 70.596C255.136 69.812 252.49 68.9627 248.831 68.048C244.911 67.1333 241.645 66.186 239.031 65.206C236.418 64.1607 234.164 62.56 232.269 60.404C230.375 58.1827 229.427 55.21 229.427 51.486C229.427 48.35 230.277 45.508 231.975 42.96C233.739 40.3467 236.287 38.2887 239.619 36.786C243.017 35.2833 247.035 34.532 251.673 34.532C258.533 34.532 263.923 36.2307 267.843 39.628C271.829 43.0253 274.115 47.5333 274.703 53.152H259.219C258.958 51.2573 258.109 49.7547 256.671 48.644C255.299 47.5333 253.47 46.978 251.183 46.978C249.223 46.978 247.721 47.37 246.675 48.154C245.63 48.8727 245.107 49.8853 245.107 51.192C245.107 52.76 245.924 53.936 247.557 54.72C249.256 55.504 251.869 56.288 255.397 57.072C259.448 58.1173 262.747 59.1627 265.295 60.208C267.843 61.188 270.065 62.8213 271.959 65.108C273.919 67.3293 274.932 70.3347 274.997 74.124C274.997 77.3253 274.083 80.2 272.253 82.748C270.489 85.2307 267.909 87.1907 264.511 88.628C261.179 90.0653 257.292 90.784 252.849 90.784ZM310.73 49.232H301.714V90H284.956V49.232H278.88V35.316H284.956V33.748C284.956 27.0187 286.883 21.9227 290.738 18.46C294.592 14.932 300.244 13.168 307.692 13.168C308.933 13.168 309.848 13.2007 310.436 13.266V27.476C307.234 27.28 304.98 27.7373 303.674 28.848C302.367 29.9587 301.714 31.9513 301.714 34.826V35.316H310.73V49.232ZM341.536 90.784C336.179 90.784 331.344 89.6407 327.032 87.354C322.785 85.0673 319.421 81.8007 316.938 77.554C314.521 73.3073 313.312 68.342 313.312 62.658C313.312 57.0393 314.553 52.1067 317.036 47.86C319.519 43.548 322.916 40.2487 327.228 37.962C331.54 35.6753 336.375 34.532 341.732 34.532C347.089 34.532 351.924 35.6753 356.236 37.962C360.548 40.2487 363.945 43.548 366.428 47.86C368.911 52.1067 370.152 57.0393 370.152 62.658C370.152 68.2767 368.878 73.242 366.33 77.554C363.847 81.8007 360.417 85.0673 356.04 87.354C351.728 89.6407 346.893 90.784 341.536 90.784ZM341.536 76.28C344.737 76.28 347.449 75.104 349.67 72.752C351.957 70.4 353.1 67.0353 353.1 62.658C353.1 58.2807 351.989 54.916 349.768 52.564C347.612 50.212 344.933 49.036 341.732 49.036C338.465 49.036 335.754 50.212 333.598 52.564C331.442 54.8507 330.364 58.2153 330.364 62.658C330.364 67.0353 331.409 70.4 333.5 72.752C335.656 75.104 338.335 76.28 341.536 76.28ZM393.841 44.43C395.801 41.4247 398.251 39.0727 401.191 37.374C404.131 35.61 407.397 34.728 410.991 34.728V52.466H406.385C402.203 52.466 399.067 53.3807 396.977 55.21C394.886 56.974 393.841 60.11 393.841 64.618V90H377.083V35.316H393.841V44.43ZM486.817 34.728C493.611 34.728 499.001 36.786 502.987 40.902C507.037 45.018 509.063 50.7347 509.063 58.052V90H492.403V60.306C492.403 56.778 491.455 54.0667 489.561 52.172C487.731 50.212 485.183 49.232 481.917 49.232C478.65 49.232 476.069 50.212 474.175 52.172C472.345 54.0667 471.431 56.778 471.431 60.306V90H454.771V60.306C454.771 56.778 453.823 54.0667 451.929 52.172C450.099 50.212 447.551 49.232 444.285 49.232C441.018 49.232 438.437 50.212 436.543 52.172C434.713 54.0667 433.799 56.778 433.799 60.306V90H417.041V35.316H433.799V42.176C435.497 39.8893 437.719 38.0927 440.463 36.786C443.207 35.414 446.31 34.728 449.773 34.728C453.889 34.728 457.547 35.61 460.749 37.374C464.015 39.138 466.563 41.6533 468.393 44.92C470.287 41.9147 472.868 39.4647 476.135 37.57C479.401 35.6753 482.962 34.728 486.817 34.728ZM596.626 21.204L572.812 67.264V90H556.054V67.264L532.24 21.204H551.252L564.58 50.016L577.81 21.204H596.626ZM626.31 90.784C620.953 90.784 616.118 89.6407 611.806 87.354C607.56 85.0673 604.195 81.8007 601.712 77.554C599.295 73.3073 598.086 68.342 598.086 62.658C598.086 57.0393 599.328 52.1067 601.81 47.86C604.293 43.548 607.69 40.2487 612.002 37.962C616.314 35.6753 621.149 34.532 626.506 34.532C631.864 34.532 636.698 35.6753 641.01 37.962C645.322 40.2487 648.72 43.548 651.202 47.86C653.685 52.1067 654.926 57.0393 654.926 62.658C654.926 68.2767 653.652 73.242 651.104 77.554C648.622 81.8007 645.192 85.0673 640.814 87.354C636.502 89.6407 631.668 90.784 626.31 90.784ZM626.31 76.28C629.512 76.28 632.223 75.104 634.444 72.752C636.731 70.4 637.874 67.0353 637.874 62.658C637.874 58.2807 636.764 54.916 634.542 52.564C632.386 50.212 629.708 49.036 626.506 49.036C623.24 49.036 620.528 50.212 618.372 52.564C616.216 54.8507 615.138 58.2153 615.138 62.658C615.138 67.0353 616.184 70.4 618.274 72.752C620.43 75.104 623.109 76.28 626.31 76.28ZM715.855 35.316V90H699.097V82.552C697.398 84.9693 695.079 86.9293 692.139 88.432C689.264 89.8693 686.063 90.588 682.535 90.588C678.353 90.588 674.662 89.6733 671.461 87.844C668.259 85.9493 665.777 83.238 664.013 79.71C662.249 76.182 661.367 72.0333 661.367 67.264V35.316H678.027V65.01C678.027 68.6687 678.974 71.5107 680.869 73.536C682.763 75.5613 685.311 76.574 688.513 76.574C691.779 76.574 694.36 75.5613 696.255 73.536C698.149 71.5107 699.097 68.6687 699.097 65.01V35.316H715.855ZM742.69 44.43C744.65 41.4247 747.1 39.0727 750.04 37.374C752.98 35.61 756.247 34.728 759.84 34.728V52.466H755.234C751.053 52.466 747.917 53.3807 745.826 55.21C743.735 56.974 742.69 60.11 742.69 64.618V90H725.932V35.316H742.69V44.43ZM31.85 133.204C39.102 133.204 45.4393 134.641 50.862 137.516C56.2847 140.391 60.466 144.441 63.406 149.668C66.4113 154.829 67.914 160.807 67.914 167.602C67.914 174.331 66.4113 180.309 63.406 185.536C60.466 190.763 56.252 194.813 50.764 197.688C45.3413 200.563 39.0367 202 31.85 202H6.076V133.204H31.85ZM30.772 187.496C37.1093 187.496 42.042 185.765 45.57 182.302C49.098 178.839 50.862 173.939 50.862 167.602C50.862 161.265 49.098 156.332 45.57 152.804C42.042 149.276 37.1093 147.512 30.772 147.512H22.834V187.496H30.772ZM83.7471 141.632C80.8071 141.632 78.3898 140.783 76.4951 139.084C74.6658 137.32 73.7511 135.164 73.7511 132.616C73.7511 130.003 74.6658 127.847 76.4951 126.148C78.3898 124.384 80.8071 123.502 83.7471 123.502C86.6218 123.502 88.9738 124.384 90.8031 126.148C92.6978 127.847 93.6451 130.003 93.6451 132.616C93.6451 135.164 92.6978 137.32 90.8031 139.084C88.9738 140.783 86.6218 141.632 83.7471 141.632ZM92.0771 147.316V202H75.3191V147.316H92.0771ZM123.037 146.532C126.892 146.532 130.257 147.316 133.131 148.884C136.071 150.452 138.325 152.51 139.893 155.058V147.316H156.651V201.902C156.651 206.933 155.639 211.473 153.613 215.524C151.653 219.64 148.615 222.907 144.499 225.324C140.449 227.741 135.385 228.95 129.309 228.95C121.208 228.95 114.642 227.023 109.611 223.168C104.581 219.379 101.706 214.217 100.987 207.684H117.549C118.072 209.775 119.313 211.408 121.273 212.584C123.233 213.825 125.651 214.446 128.525 214.446C131.988 214.446 134.732 213.433 136.757 211.408C138.848 209.448 139.893 206.279 139.893 201.902V194.16C138.26 196.708 136.006 198.799 133.131 200.432C130.257 202 126.892 202.784 123.037 202.784C118.529 202.784 114.446 201.641 110.787 199.354C107.129 197.002 104.221 193.703 102.065 189.456C99.9748 185.144 98.9295 180.179 98.9295 174.56C98.9295 168.941 99.9748 164.009 102.065 159.762C104.221 155.515 107.129 152.249 110.787 149.962C114.446 147.675 118.529 146.532 123.037 146.532ZM139.893 174.658C139.893 170.477 138.717 167.177 136.365 164.76C134.079 162.343 131.269 161.134 127.937 161.134C124.605 161.134 121.763 162.343 119.411 164.76C117.125 167.112 115.981 170.379 115.981 174.56C115.981 178.741 117.125 182.073 119.411 184.556C121.763 186.973 124.605 188.182 127.937 188.182C131.269 188.182 134.079 186.973 136.365 184.556C138.717 182.139 139.893 178.839 139.893 174.658ZM175.243 141.632C172.303 141.632 169.886 140.783 167.991 139.084C166.162 137.32 165.247 135.164 165.247 132.616C165.247 130.003 166.162 127.847 167.991 126.148C169.886 124.384 172.303 123.502 175.243 123.502C178.118 123.502 180.47 124.384 182.299 126.148C184.194 127.847 185.141 130.003 185.141 132.616C185.141 135.164 184.194 137.32 182.299 139.084C180.47 140.783 178.118 141.632 175.243 141.632ZM183.573 147.316V202H166.815V147.316H183.573ZM224.235 187.79V202H215.709C209.633 202 204.897 200.53 201.499 197.59C198.102 194.585 196.403 189.717 196.403 182.988V161.232H189.739V147.316H196.403V133.988H213.161V147.316H224.137V161.232H213.161V183.184C213.161 184.817 213.553 185.993 214.337 186.712C215.121 187.431 216.428 187.79 218.257 187.79H224.235ZM228.278 174.56C228.278 168.941 229.323 164.009 231.414 159.762C233.57 155.515 236.477 152.249 240.136 149.962C243.795 147.675 247.878 146.532 252.386 146.532C256.241 146.532 259.605 147.316 262.48 148.884C265.42 150.452 267.674 152.51 269.242 155.058V147.316H286V202H269.242V194.258C267.609 196.806 265.322 198.864 262.382 200.432C259.507 202 256.143 202.784 252.288 202.784C247.845 202.784 243.795 201.641 240.136 199.354C236.477 197.002 233.57 193.703 231.414 189.456C229.323 185.144 228.278 180.179 228.278 174.56ZM269.242 174.658C269.242 170.477 268.066 167.177 265.714 164.76C263.427 162.343 260.618 161.134 257.286 161.134C253.954 161.134 251.112 162.343 248.76 164.76C246.473 167.112 245.33 170.379 245.33 174.56C245.33 178.741 246.473 182.073 248.76 184.556C251.112 186.973 253.954 188.182 257.286 188.182C260.618 188.182 263.427 186.973 265.714 184.556C268.066 182.139 269.242 178.839 269.242 174.658ZM312.922 129.48V202H296.164V129.48H312.922ZM358.672 146.63V160.546H381.114V173.482H358.672V188.574H384.054V202H341.914V133.204H384.054V146.63H358.672ZM425.313 202L414.827 186.81L406.007 202H387.877L405.909 174.07L387.387 147.316H406.203L416.689 162.408L425.509 147.316H443.639L425.313 174.854L444.129 202H425.313ZM465.384 155.058C467.018 152.51 469.272 150.452 472.146 148.884C475.021 147.316 478.386 146.532 482.24 146.532C486.748 146.532 490.832 147.675 494.49 149.962C498.149 152.249 501.024 155.515 503.114 159.762C505.27 164.009 506.348 168.941 506.348 174.56C506.348 180.179 505.27 185.144 503.114 189.456C501.024 193.703 498.149 197.002 494.49 199.354C490.832 201.641 486.748 202.784 482.24 202.784C478.451 202.784 475.086 202 472.146 200.432C469.272 198.864 467.018 196.839 465.384 194.356V228.068H448.626V147.316H465.384V155.058ZM489.296 174.56C489.296 170.379 488.12 167.112 485.768 164.76C483.482 162.343 480.64 161.134 477.242 161.134C473.91 161.134 471.068 162.343 468.716 164.76C466.43 167.177 465.286 170.477 465.286 174.658C465.286 178.839 466.43 182.139 468.716 184.556C471.068 186.973 473.91 188.182 477.242 188.182C480.574 188.182 483.416 186.973 485.768 184.556C488.12 182.073 489.296 178.741 489.296 174.56ZM564.728 173.776C564.728 175.344 564.63 176.977 564.434 178.676H526.508C526.769 182.073 527.847 184.687 529.742 186.516C531.702 188.28 534.087 189.162 536.896 189.162C541.077 189.162 543.985 187.398 545.618 183.87H563.454C562.539 187.463 560.873 190.697 558.456 193.572C556.104 196.447 553.131 198.701 549.538 200.334C545.945 201.967 541.927 202.784 537.484 202.784C532.127 202.784 527.357 201.641 523.176 199.354C518.995 197.067 515.728 193.801 513.376 189.554C511.024 185.307 509.848 180.342 509.848 174.658C509.848 168.974 510.991 164.009 513.278 159.762C515.63 155.515 518.897 152.249 523.078 149.962C527.259 147.675 532.061 146.532 537.484 146.532C542.776 146.532 547.48 147.643 551.596 149.864C555.712 152.085 558.913 155.254 561.2 159.37C563.552 163.486 564.728 168.288 564.728 173.776ZM547.578 169.366C547.578 166.491 546.598 164.205 544.638 162.506C542.678 160.807 540.228 159.958 537.288 159.958C534.479 159.958 532.094 160.775 530.134 162.408C528.239 164.041 527.063 166.361 526.606 169.366H547.578ZM588.367 156.43C590.327 153.425 592.777 151.073 595.717 149.374C598.657 147.61 601.923 146.728 605.517 146.728V164.466H600.911C596.729 164.466 593.593 165.381 591.503 167.21C589.412 168.974 588.367 172.11 588.367 176.618V202H571.609V147.316H588.367V156.43ZM619.995 141.632C617.055 141.632 614.637 140.783 612.743 139.084C610.913 137.32 609.999 135.164 609.999 132.616C609.999 130.003 610.913 127.847 612.743 126.148C614.637 124.384 617.055 123.502 619.995 123.502C622.869 123.502 625.221 124.384 627.051 126.148C628.945 127.847 629.893 130.003 629.893 132.616C629.893 135.164 628.945 137.32 627.051 139.084C625.221 140.783 622.869 141.632 619.995 141.632ZM628.325 147.316V202H611.567V147.316H628.325ZM690.057 173.776C690.057 175.344 689.959 176.977 689.763 178.676H651.837C652.098 182.073 653.176 184.687 655.071 186.516C657.031 188.28 659.416 189.162 662.225 189.162C666.406 189.162 669.314 187.398 670.947 183.87H688.783C687.868 187.463 686.202 190.697 683.785 193.572C681.433 196.447 678.46 198.701 674.867 200.334C671.274 201.967 667.256 202.784 662.813 202.784C657.456 202.784 652.686 201.641 648.505 199.354C644.324 197.067 641.057 193.801 638.705 189.554C636.353 185.307 635.177 180.342 635.177 174.658C635.177 168.974 636.32 164.009 638.607 159.762C640.959 155.515 644.226 152.249 648.407 149.962C652.588 147.675 657.39 146.532 662.813 146.532C668.105 146.532 672.809 147.643 676.925 149.864C681.041 152.085 684.242 155.254 686.529 159.37C688.881 163.486 690.057 168.288 690.057 173.776ZM672.907 169.366C672.907 166.491 671.927 164.205 669.967 162.506C668.007 160.807 665.557 159.958 662.617 159.958C659.808 159.958 657.423 160.775 655.463 162.408C653.568 164.041 652.392 166.361 651.935 169.366H672.907ZM730.258 146.728C736.66 146.728 741.756 148.819 745.546 153C749.4 157.116 751.328 162.8 751.328 170.052V202H734.668V172.306C734.668 168.647 733.72 165.805 731.826 163.78C729.931 161.755 727.383 160.742 724.182 160.742C720.98 160.742 718.432 161.755 716.538 163.78C714.643 165.805 713.696 168.647 713.696 172.306V202H696.938V147.316H713.696V154.568C715.394 152.151 717.681 150.256 720.556 148.884C723.43 147.447 726.664 146.728 730.258 146.728ZM757.681 174.658C757.681 168.974 758.824 164.009 761.111 159.762C763.463 155.515 766.697 152.249 770.813 149.962C774.994 147.675 779.764 146.532 785.121 146.532C791.981 146.532 797.698 148.329 802.271 151.922C806.91 155.515 809.948 160.579 811.385 167.112H793.549C792.046 162.931 789.139 160.84 784.827 160.84C781.756 160.84 779.306 162.049 777.477 164.466C775.648 166.818 774.733 170.215 774.733 174.658C774.733 179.101 775.648 182.531 777.477 184.948C779.306 187.3 781.756 188.476 784.827 188.476C789.139 188.476 792.046 186.385 793.549 182.204H811.385C809.948 188.607 806.91 193.637 802.271 197.296C797.632 200.955 791.916 202.784 785.121 202.784C779.764 202.784 774.994 201.641 770.813 199.354C766.697 197.067 763.463 193.801 761.111 189.554C758.824 185.307 757.681 180.342 757.681 174.658ZM869.937 173.776C869.937 175.344 869.839 176.977 869.643 178.676H831.717C831.978 182.073 833.056 184.687 834.951 186.516C836.911 188.28 839.295 189.162 842.105 189.162C846.286 189.162 849.193 187.398 850.827 183.87H868.663C867.748 187.463 866.082 190.697 863.665 193.572C861.313 196.447 858.34 198.701 854.747 200.334C851.153 201.967 847.135 202.784 842.693 202.784C837.335 202.784 832.566 201.641 828.385 199.354C824.203 197.067 820.937 193.801 818.585 189.554C816.233 185.307 815.057 180.342 815.057 174.658C815.057 168.974 816.2 164.009 818.487 159.762C820.839 155.515 824.105 152.249 828.287 149.962C832.468 147.675 837.27 146.532 842.693 146.532C847.985 146.532 852.689 147.643 856.805 149.864C860.921 152.085 864.122 155.254 866.409 159.37C868.761 163.486 869.937 168.288 869.937 173.776ZM852.787 169.366C852.787 166.491 851.807 164.205 849.847 162.506C847.887 160.807 845.437 159.958 842.497 159.958C839.687 159.958 837.303 160.775 835.343 162.408C833.448 164.041 832.272 166.361 831.815 169.366H852.787ZM100.744 245.204L82.81 314H62.524L51.548 268.724L40.18 314H19.894L2.45 245.204H20.384L30.282 295.282L42.532 245.204H60.956L72.716 295.282L82.712 245.204H100.744ZM115.616 253.632C112.676 253.632 110.259 252.783 108.364 251.084C106.535 249.32 105.62 247.164 105.62 244.616C105.62 242.003 106.535 239.847 108.364 238.148C110.259 236.384 112.676 235.502 115.616 235.502C118.491 235.502 120.843 236.384 122.672 238.148C124.567 239.847 125.514 242.003 125.514 244.616C125.514 247.164 124.567 249.32 122.672 251.084C120.843 252.783 118.491 253.632 115.616 253.632ZM123.946 259.316V314H107.188V259.316H123.946ZM164.609 299.79V314H156.083C150.007 314 145.27 312.53 141.873 309.59C138.475 306.585 136.777 301.717 136.777 294.988V273.232H130.113V259.316H136.777V245.988H153.535V259.316H164.511V273.232H153.535V295.184C153.535 296.817 153.927 297.993 154.711 298.712C155.495 299.431 156.801 299.79 158.631 299.79H164.609ZM205.597 258.728C211.869 258.728 216.9 260.819 220.689 265C224.478 269.116 226.373 274.8 226.373 282.052V314H209.713V284.306C209.713 280.647 208.766 277.805 206.871 275.78C204.976 273.755 202.428 272.742 199.227 272.742C196.026 272.742 193.478 273.755 191.583 275.78C189.688 277.805 188.741 280.647 188.741 284.306V314H171.983V241.48H188.741V266.666C190.44 264.249 192.759 262.321 195.699 260.884C198.639 259.447 201.938 258.728 205.597 258.728ZM271.624 245.204V314H254.866V245.204H271.624ZM327.476 266.96C326.235 264.673 324.438 262.942 322.086 261.766C319.8 260.525 317.088 259.904 313.952 259.904C308.53 259.904 304.185 261.701 300.918 265.294C297.652 268.822 296.018 273.559 296.018 279.504C296.018 285.841 297.717 290.807 301.114 294.4C304.577 297.928 309.314 299.692 315.324 299.692C319.44 299.692 322.903 298.647 325.712 296.556C328.587 294.465 330.678 291.46 331.984 287.54H310.718V275.192H347.174V290.774C345.933 294.955 343.81 298.843 340.804 302.436C337.864 306.029 334.108 308.937 329.534 311.158C324.961 313.379 319.8 314.49 314.05 314.49C307.256 314.49 301.18 313.02 295.822 310.08C290.53 307.075 286.382 302.926 283.376 297.634C280.436 292.342 278.966 286.299 278.966 279.504C278.966 272.709 280.436 266.666 283.376 261.374C286.382 256.017 290.53 251.868 295.822 248.928C301.114 245.923 307.158 244.42 313.952 244.42C322.184 244.42 329.11 246.413 334.728 250.398C340.412 254.383 344.169 259.904 345.998 266.96H327.476ZM416.041 314H399.283L371.255 271.566V314H354.497V245.204H371.255L399.283 287.834V245.204H416.041V314ZM442.986 258.63V272.546H465.428V285.482H442.986V300.574H468.368V314H426.228V245.204H468.368V258.63H442.986ZM517.174 314L494.046 283.62V314H477.288V245.204H494.046V275.388L516.978 245.204H536.676L510.02 278.916L537.656 314H517.174ZM611.957 245.204V258.63H593.729V314H576.971V258.63H558.743V245.204H611.957ZM643.3 314.784C637.942 314.784 633.108 313.641 628.796 311.354C624.549 309.067 621.184 305.801 618.702 301.554C616.284 297.307 615.076 292.342 615.076 286.658C615.076 281.039 616.317 276.107 618.8 271.86C621.282 267.548 624.68 264.249 628.992 261.962C633.304 259.675 638.138 258.532 643.496 258.532C648.853 258.532 653.688 259.675 658 261.962C662.312 264.249 665.709 267.548 668.192 271.86C670.674 276.107 671.916 281.039 671.916 286.658C671.916 292.277 670.642 297.242 668.094 301.554C665.611 305.801 662.181 309.067 657.804 311.354C653.492 313.641 648.657 314.784 643.3 314.784ZM643.3 300.28C646.501 300.28 649.212 299.104 651.434 296.752C653.72 294.4 654.864 291.035 654.864 286.658C654.864 282.281 653.753 278.916 651.532 276.564C649.376 274.212 646.697 273.036 643.496 273.036C640.229 273.036 637.518 274.212 635.362 276.564C633.206 278.851 632.128 282.215 632.128 286.658C632.128 291.035 633.173 294.4 635.264 296.752C637.42 299.104 640.098 300.28 643.3 300.28ZM675.514 286.56C675.514 280.941 676.559 276.009 678.65 271.762C680.806 267.515 683.713 264.249 687.372 261.962C691.031 259.675 695.114 258.532 699.622 258.532C703.215 258.532 706.482 259.283 709.422 260.786C712.427 262.289 714.779 264.314 716.478 266.862V241.48H733.236V314H716.478V306.16C714.91 308.773 712.656 310.864 709.716 312.432C706.841 314 703.477 314.784 699.622 314.784C695.114 314.784 691.031 313.641 687.372 311.354C683.713 309.002 680.806 305.703 678.65 301.456C676.559 297.144 675.514 292.179 675.514 286.56ZM716.478 286.658C716.478 282.477 715.302 279.177 712.95 276.76C710.663 274.343 707.854 273.134 704.522 273.134C701.19 273.134 698.348 274.343 695.996 276.76C693.709 279.112 692.566 282.379 692.566 286.56C692.566 290.741 693.709 294.073 695.996 296.556C698.348 298.973 701.19 300.182 704.522 300.182C707.854 300.182 710.663 298.973 712.95 296.556C715.302 294.139 716.478 290.839 716.478 286.658ZM740.068 286.56C740.068 280.941 741.113 276.009 743.204 271.762C745.36 267.515 748.267 264.249 751.926 261.962C755.584 259.675 759.668 258.532 764.176 258.532C768.03 258.532 771.395 259.316 774.27 260.884C777.21 262.452 779.464 264.51 781.032 267.058V259.316H797.79V314H781.032V306.258C779.398 308.806 777.112 310.864 774.172 312.432C771.297 314 767.932 314.784 764.078 314.784C759.635 314.784 755.584 313.641 751.926 311.354C748.267 309.002 745.36 305.703 743.204 301.456C741.113 297.144 740.068 292.179 740.068 286.56ZM781.032 286.658C781.032 282.477 779.856 279.177 777.504 276.76C775.217 274.343 772.408 273.134 769.076 273.134C765.744 273.134 762.902 274.343 760.55 276.76C758.263 279.112 757.12 282.379 757.12 286.56C757.12 290.741 758.263 294.073 760.55 296.556C762.902 298.973 765.744 300.182 769.076 300.182C772.408 300.182 775.217 298.973 777.504 296.556C779.856 294.139 781.032 290.839 781.032 286.658ZM863.813 259.316L829.513 339.97H811.481L824.025 312.138L801.779 259.316H820.497L833.139 293.518L845.683 259.316H863.813Z" fill="#D9D9D9"/>
</svg>
