<svg width="1468" height="341" viewBox="0 0 1468 341" fill="none" xmlns="http://www.w3.org/2000/svg">
<path d="M55.566 21.204V34.63H37.338V90H20.58V34.63H2.352V21.204H55.566ZM95.6304 34.728C101.902 34.728 106.933 36.8187 110.722 41C114.512 45.116 116.406 50.8 116.406 58.052V90H99.7464V60.306C99.7464 56.6473 98.7991 53.8053 96.9044 51.78C95.0097 49.7547 92.4617 48.742 89.2604 48.742C86.0591 48.742 83.5111 49.7547 81.6164 51.78C79.7217 53.8053 78.7744 56.6473 78.7744 60.306V90H62.0164V17.48H78.7744V42.666C80.4731 40.2487 82.7924 38.3213 85.7324 36.884C88.6724 35.4467 91.9717 34.728 95.6304 34.728ZM177.64 61.776C177.64 63.344 177.542 64.9773 177.346 66.676H139.42C139.681 70.0733 140.759 72.6867 142.654 74.516C144.614 76.28 146.998 77.162 149.808 77.162C153.989 77.162 156.896 75.398 158.53 71.87H176.366C175.451 75.4633 173.785 78.6973 171.368 81.572C169.016 84.4467 166.043 86.7007 162.45 88.334C158.856 89.9673 154.838 90.784 150.396 90.784C145.038 90.784 140.269 89.6407 136.088 87.354C131.906 85.0673 128.64 81.8007 126.288 77.554C123.936 73.3073 122.76 68.342 122.76 62.658C122.76 56.974 123.903 52.0087 126.19 47.762C128.542 43.5153 131.808 40.2487 135.99 37.962C140.171 35.6753 144.973 34.532 150.396 34.532C155.688 34.532 160.392 35.6427 164.508 37.864C168.624 40.0853 171.825 43.254 174.112 47.37C176.464 51.486 177.64 56.288 177.64 61.776ZM160.49 57.366C160.49 54.4913 159.51 52.2047 157.55 50.506C155.59 48.8073 153.14 47.958 150.2 47.958C147.39 47.958 145.006 48.7747 143.046 50.408C141.151 52.0413 139.975 54.3607 139.518 57.366H160.49ZM220.086 77.064H242.038V90H203.328V21.204H220.086V77.064ZM256.499 29.632C253.559 29.632 251.142 28.7827 249.247 27.084C247.418 25.32 246.503 23.164 246.503 20.616C246.503 18.0027 247.418 15.8467 249.247 14.148C251.142 12.384 253.559 11.502 256.499 11.502C259.374 11.502 261.726 12.384 263.555 14.148C265.45 15.8467 266.397 18.0027 266.397 20.616C266.397 23.164 265.45 25.32 263.555 27.084C261.726 28.7827 259.374 29.632 256.499 29.632ZM264.829 35.316V90H248.071V35.316H264.829ZM302.453 49.232H293.437V90H276.679V49.232H270.603V35.316H276.679V33.748C276.679 27.0187 278.607 21.9227 282.461 18.46C286.316 14.932 291.967 13.168 299.415 13.168C300.657 13.168 301.571 13.2007 302.159 13.266V27.476C298.958 27.28 296.704 27.7373 295.397 28.848C294.091 29.9587 293.437 31.9513 293.437 34.826V35.316H302.453V49.232ZM359.916 61.776C359.916 63.344 359.818 64.9773 359.622 66.676H321.696C321.957 70.0733 323.035 72.6867 324.93 74.516C326.89 76.28 329.274 77.162 332.084 77.162C336.265 77.162 339.172 75.398 340.806 71.87H358.642C357.727 75.4633 356.061 78.6973 353.644 81.572C351.292 84.4467 348.319 86.7007 344.726 88.334C341.132 89.9673 337.114 90.784 332.672 90.784C327.314 90.784 322.545 89.6407 318.364 87.354C314.182 85.0673 310.916 81.8007 308.564 77.554C306.212 73.3073 305.036 68.342 305.036 62.658C305.036 56.974 306.179 52.0087 308.466 47.762C310.818 43.5153 314.084 40.2487 318.266 37.962C322.447 35.6753 327.249 34.532 332.672 34.532C337.964 34.532 342.668 35.6427 346.784 37.864C350.9 40.0853 354.101 43.254 356.388 47.37C358.74 51.486 359.916 56.288 359.916 61.776ZM342.766 57.366C342.766 54.4913 341.786 52.2047 339.826 50.506C337.866 48.8073 335.416 47.958 332.476 47.958C329.666 47.958 327.282 48.7747 325.322 50.408C323.427 52.0413 322.251 54.3607 321.794 57.366H342.766ZM383.554 44.43C385.514 41.4247 387.964 39.0727 390.904 37.374C393.844 35.61 397.111 34.728 400.704 34.728V52.466H396.098C391.917 52.466 388.781 53.3807 386.69 55.21C384.6 56.974 383.554 60.11 383.554 64.618V90H366.796V35.316H383.554V44.43ZM403.422 62.56C403.422 56.9413 404.468 52.0087 406.558 47.762C408.714 43.5153 411.622 40.2487 415.28 37.962C418.939 35.6753 423.022 34.532 427.53 34.532C431.385 34.532 434.75 35.316 437.624 36.884C440.564 38.452 442.818 40.51 444.386 43.058V35.316H461.144V90H444.386V82.258C442.753 84.806 440.466 86.864 437.526 88.432C434.652 90 431.287 90.784 427.432 90.784C422.99 90.784 418.939 89.6407 415.28 87.354C411.622 85.002 408.714 81.7027 406.558 77.456C404.468 73.144 403.422 68.1787 403.422 62.56ZM444.386 62.658C444.386 58.4767 443.21 55.1773 440.858 52.76C438.572 50.3427 435.762 49.134 432.43 49.134C429.098 49.134 426.256 50.3427 423.904 52.76C421.618 55.112 420.474 58.3787 420.474 62.56C420.474 66.7413 421.618 70.0733 423.904 72.556C426.256 74.9733 429.098 76.182 432.43 76.182C435.762 76.182 438.572 74.9733 440.858 72.556C443.21 70.1387 444.386 66.8393 444.386 62.658ZM527.168 35.316L492.868 115.97H474.836L487.38 88.138L465.134 35.316H483.852L496.494 69.518L509.038 35.316H527.168ZM591.726 54.72C595.711 55.5693 598.912 57.562 601.33 60.698C603.747 63.7687 604.956 67.2967 604.956 71.282C604.956 77.0313 602.93 81.6047 598.88 85.002C594.894 88.334 589.308 90 582.122 90H550.076V21.204H581.044C588.034 21.204 593.49 22.8047 597.41 26.006C601.395 29.2073 603.388 33.552 603.388 39.04C603.388 43.0907 602.31 46.4553 600.154 49.134C598.063 51.8127 595.254 53.6747 591.726 54.72ZM566.834 49.036H577.81C580.554 49.036 582.644 48.448 584.082 47.272C585.584 46.0307 586.336 44.234 586.336 41.882C586.336 39.53 585.584 37.7333 584.082 36.492C582.644 35.2507 580.554 34.63 577.81 34.63H566.834V49.036ZM579.182 76.476C581.991 76.476 584.147 75.8553 585.65 74.614C587.218 73.3073 588.002 71.4453 588.002 69.028C588.002 66.6107 587.185 64.716 585.552 63.344C583.984 61.972 581.795 61.286 578.986 61.286H566.834V76.476H579.182ZM637.607 90.784C632.25 90.784 627.415 89.6407 623.103 87.354C618.856 85.0673 615.492 81.8007 613.009 77.554C610.592 73.3073 609.383 68.342 609.383 62.658C609.383 57.0393 610.624 52.1067 613.107 47.86C615.59 43.548 618.987 40.2487 623.299 37.962C627.611 35.6753 632.446 34.532 637.803 34.532C643.16 34.532 647.995 35.6753 652.307 37.962C656.619 40.2487 660.016 43.548 662.499 47.86C664.982 52.1067 666.223 57.0393 666.223 62.658C666.223 68.2767 664.949 73.242 662.401 77.554C659.918 81.8007 656.488 85.0673 652.111 87.354C647.799 89.6407 642.964 90.784 637.607 90.784ZM637.607 76.28C640.808 76.28 643.52 75.104 645.741 72.752C648.028 70.4 649.171 67.0353 649.171 62.658C649.171 58.2807 648.06 54.916 645.839 52.564C643.683 50.212 641.004 49.036 637.803 49.036C634.536 49.036 631.825 50.212 629.669 52.564C627.513 54.8507 626.435 58.2153 626.435 62.658C626.435 67.0353 627.48 70.4 629.571 72.752C631.727 75.104 634.406 76.28 637.607 76.28ZM727.152 35.316V90H710.394V82.552C708.695 84.9693 706.376 86.9293 703.436 88.432C700.561 89.8693 697.36 90.588 693.832 90.588C689.65 90.588 685.959 89.6733 682.758 87.844C679.556 85.9493 677.074 83.238 675.31 79.71C673.546 76.182 672.664 72.0333 672.664 67.264V35.316H689.324V65.01C689.324 68.6687 690.271 71.5107 692.166 73.536C694.06 75.5613 696.608 76.574 699.81 76.574C703.076 76.574 705.657 75.5613 707.552 73.536C709.446 71.5107 710.394 68.6687 710.394 65.01V35.316H727.152ZM767.707 75.79V90H759.181C753.105 90 748.368 88.53 744.971 85.59C741.573 82.5847 739.875 77.7173 739.875 70.988V49.232H733.211V35.316H739.875V21.988H756.633V35.316H767.609V49.232H756.633V71.184C756.633 72.8173 757.025 73.9933 757.809 74.712C758.593 75.4307 759.899 75.79 761.729 75.79H767.707ZM783.509 29.632C780.569 29.632 778.152 28.7827 776.257 27.084C774.428 25.32 773.513 23.164 773.513 20.616C773.513 18.0027 774.428 15.8467 776.257 14.148C778.152 12.384 780.569 11.502 783.509 11.502C786.384 11.502 788.736 12.384 790.565 14.148C792.46 15.8467 793.407 18.0027 793.407 20.616C793.407 23.164 792.46 25.32 790.565 27.084C788.736 28.7827 786.384 29.632 783.509 29.632ZM791.839 35.316V90H775.081V35.316H791.839ZM798.692 62.756C798.692 57.3333 799.802 52.4987 802.024 48.252C804.31 44.0053 807.348 40.706 811.138 38.354C814.992 35.9367 819.174 34.728 823.682 34.728C827.144 34.728 830.248 35.3487 832.992 36.59C835.736 37.766 837.957 39.432 839.656 41.588V35.316H856.414V116.068H839.656V83.14C837.761 85.4267 835.442 87.256 832.698 88.628C830.019 90 826.948 90.686 823.486 90.686C819.043 90.686 814.927 89.51 811.138 87.158C807.348 84.806 804.31 81.5067 802.024 77.26C799.802 73.0133 798.692 68.1787 798.692 62.756ZM839.656 62.658C839.656 59.718 839.068 57.268 837.892 55.308C836.781 53.2827 835.311 51.78 833.482 50.8C831.652 49.7547 829.725 49.232 827.7 49.232C825.74 49.232 823.845 49.7547 822.016 50.8C820.186 51.78 818.684 53.2827 817.508 55.308C816.332 57.3333 815.744 59.816 815.744 62.756C815.744 65.696 816.332 68.1787 817.508 70.204C818.684 72.164 820.186 73.6667 822.016 74.712C823.845 75.692 825.74 76.182 827.7 76.182C829.66 76.182 831.554 75.692 833.384 74.712C835.278 73.6667 836.781 72.1313 837.892 70.106C839.068 68.0807 839.656 65.598 839.656 62.658ZM920.575 35.316V90H903.817V82.552C902.119 84.9693 899.799 86.9293 896.859 88.432C893.985 89.8693 890.783 90.588 887.255 90.588C883.074 90.588 879.383 89.6733 876.181 87.844C872.98 85.9493 870.497 83.238 868.733 79.71C866.969 76.182 866.087 72.0333 866.087 67.264V35.316H882.747V65.01C882.747 68.6687 883.695 71.5107 885.589 73.536C887.484 75.5613 890.032 76.574 893.233 76.574C896.5 76.574 899.081 75.5613 900.975 73.536C902.87 71.5107 903.817 68.6687 903.817 65.01V35.316H920.575ZM982.2 61.776C982.2 63.344 982.102 64.9773 981.906 66.676H943.98C944.242 70.0733 945.32 72.6867 947.214 74.516C949.174 76.28 951.559 77.162 954.368 77.162C958.55 77.162 961.457 75.398 963.09 71.87H980.926C980.012 75.4633 978.346 78.6973 975.928 81.572C973.576 84.4467 970.604 86.7007 967.01 88.334C963.417 89.9673 959.399 90.784 954.956 90.784C949.599 90.784 944.83 89.6407 940.648 87.354C936.467 85.0673 933.2 81.8007 930.848 77.554C928.496 73.3073 927.32 68.342 927.32 62.658C927.32 56.974 928.464 52.0087 930.75 47.762C933.102 43.5153 936.369 40.2487 940.55 37.962C944.732 35.6753 949.534 34.532 954.956 34.532C960.248 34.532 964.952 35.6427 969.068 37.864C973.184 40.0853 976.386 43.254 978.672 47.37C981.024 51.486 982.2 56.288 982.2 61.776ZM965.05 57.366C965.05 54.4913 964.07 52.2047 962.11 50.506C960.15 48.8073 957.7 47.958 954.76 47.958C951.951 47.958 949.566 48.7747 947.606 50.408C945.712 52.0413 944.536 54.3607 944.078 57.366H965.05ZM3.234 167.504C3.234 160.709 4.704 154.666 7.644 149.374C10.584 144.017 14.6673 139.868 19.894 136.928C25.186 133.923 31.164 132.42 37.828 132.42C45.9947 132.42 52.9853 134.576 58.8 138.888C64.6147 143.2 68.502 149.08 70.462 156.528H52.038C50.666 153.653 48.706 151.465 46.158 149.962C43.6753 148.459 40.8333 147.708 37.632 147.708C32.4707 147.708 28.2893 149.505 25.088 153.098C21.8867 156.691 20.286 161.493 20.286 167.504C20.286 173.515 21.8867 178.317 25.088 181.91C28.2893 185.503 32.4707 187.3 37.632 187.3C40.8333 187.3 43.6753 186.549 46.158 185.046C48.706 183.543 50.666 181.355 52.038 178.48H70.462C68.502 185.928 64.6147 191.808 58.8 196.12C52.9853 200.367 45.9947 202.49 37.828 202.49C31.164 202.49 25.186 201.02 19.894 198.08C14.6673 195.075 10.584 190.926 7.644 185.634C4.704 180.342 3.234 174.299 3.234 167.504ZM103.656 202.784C98.2991 202.784 93.4644 201.641 89.1524 199.354C84.9058 197.067 81.5411 193.801 79.0584 189.554C76.6411 185.307 75.4324 180.342 75.4324 174.658C75.4324 169.039 76.6738 164.107 79.1564 159.86C81.6391 155.548 85.0364 152.249 89.3484 149.962C93.6604 147.675 98.4951 146.532 103.852 146.532C109.21 146.532 114.044 147.675 118.356 149.962C122.668 152.249 126.066 155.548 128.548 159.86C131.031 164.107 132.272 169.039 132.272 174.658C132.272 180.277 130.998 185.242 128.45 189.554C125.968 193.801 122.538 197.067 118.16 199.354C113.848 201.641 109.014 202.784 103.656 202.784ZM103.656 188.28C106.858 188.28 109.569 187.104 111.79 184.752C114.077 182.4 115.22 179.035 115.22 174.658C115.22 170.281 114.11 166.916 111.888 164.564C109.732 162.212 107.054 161.036 103.852 161.036C100.586 161.036 97.8744 162.212 95.7184 164.564C93.5624 166.851 92.4844 170.215 92.4844 174.658C92.4844 179.035 93.5298 182.4 95.6204 184.752C97.7764 187.104 100.455 188.28 103.656 188.28ZM208.979 146.728C215.774 146.728 221.164 148.786 225.149 152.902C229.2 157.018 231.225 162.735 231.225 170.052V202H214.565V172.306C214.565 168.778 213.618 166.067 211.723 164.172C209.894 162.212 207.346 161.232 204.079 161.232C200.812 161.232 198.232 162.212 196.337 164.172C194.508 166.067 193.593 168.778 193.593 172.306V202H176.933V172.306C176.933 168.778 175.986 166.067 174.091 164.172C172.262 162.212 169.714 161.232 166.447 161.232C163.18 161.232 160.6 162.212 158.705 164.172C156.876 166.067 155.961 168.778 155.961 172.306V202H139.203V147.316H155.961V154.176C157.66 151.889 159.881 150.093 162.625 148.786C165.369 147.414 168.472 146.728 171.935 146.728C176.051 146.728 179.71 147.61 182.911 149.374C186.178 151.138 188.726 153.653 190.555 156.92C192.45 153.915 195.03 151.465 198.297 149.57C201.564 147.675 205.124 146.728 208.979 146.728ZM257.743 155.058C259.376 152.51 261.63 150.452 264.505 148.884C267.38 147.316 270.744 146.532 274.599 146.532C279.107 146.532 283.19 147.675 286.849 149.962C290.508 152.249 293.382 155.515 295.473 159.762C297.629 164.009 298.707 168.941 298.707 174.56C298.707 180.179 297.629 185.144 295.473 189.456C293.382 193.703 290.508 197.002 286.849 199.354C283.19 201.641 279.107 202.784 274.599 202.784C270.81 202.784 267.445 202 264.505 200.432C261.63 198.864 259.376 196.839 257.743 194.356V228.068H240.985V147.316H257.743V155.058ZM281.655 174.56C281.655 170.379 280.479 167.112 278.127 164.76C275.84 162.343 272.998 161.134 269.601 161.134C266.269 161.134 263.427 162.343 261.075 164.76C258.788 167.177 257.645 170.477 257.645 174.658C257.645 178.839 258.788 182.139 261.075 184.556C263.427 186.973 266.269 188.182 269.601 188.182C272.933 188.182 275.775 186.973 278.127 184.556C280.479 182.073 281.655 178.741 281.655 174.56ZM302.207 174.56C302.207 168.941 303.252 164.009 305.343 159.762C307.499 155.515 310.406 152.249 314.065 149.962C317.723 147.675 321.807 146.532 326.315 146.532C330.169 146.532 333.534 147.316 336.409 148.884C339.349 150.452 341.603 152.51 343.171 155.058V147.316H359.929V202H343.171V194.258C341.537 196.806 339.251 198.864 336.311 200.432C333.436 202 330.071 202.784 326.217 202.784C321.774 202.784 317.723 201.641 314.065 199.354C310.406 197.002 307.499 193.703 305.343 189.456C303.252 185.144 302.207 180.179 302.207 174.56ZM343.171 174.658C343.171 170.477 341.995 167.177 339.643 164.76C337.356 162.343 334.547 161.134 331.215 161.134C327.883 161.134 325.041 162.343 322.689 164.76C320.402 167.112 319.259 170.379 319.259 174.56C319.259 178.741 320.402 182.073 322.689 184.556C325.041 186.973 327.883 188.182 331.215 188.182C334.547 188.182 337.356 186.973 339.643 184.556C341.995 182.139 343.171 178.839 343.171 174.658ZM403.412 146.728C409.815 146.728 414.911 148.819 418.7 153C422.555 157.116 424.482 162.8 424.482 170.052V202H407.822V172.306C407.822 168.647 406.875 165.805 404.98 163.78C403.086 161.755 400.538 160.742 397.336 160.742C394.135 160.742 391.587 161.755 389.692 163.78C387.798 165.805 386.85 168.647 386.85 172.306V202H370.092V147.316H386.85V154.568C388.549 152.151 390.836 150.256 393.71 148.884C396.585 147.447 399.819 146.728 403.412 146.728ZM490.028 147.316L455.728 227.97H437.696L450.24 200.138L427.994 147.316H446.712L459.354 181.518L471.898 147.316H490.028ZM554.585 166.72C558.57 167.569 561.772 169.562 564.189 172.698C566.606 175.769 567.815 179.297 567.815 183.282C567.815 189.031 565.79 193.605 561.739 197.002C557.754 200.334 552.168 202 544.981 202H512.935V133.204H543.903C550.894 133.204 556.349 134.805 560.269 138.006C564.254 141.207 566.247 145.552 566.247 151.04C566.247 155.091 565.169 158.455 563.013 161.134C560.922 163.813 558.113 165.675 554.585 166.72ZM529.693 161.036H540.669C543.413 161.036 545.504 160.448 546.941 159.272C548.444 158.031 549.195 156.234 549.195 153.882C549.195 151.53 548.444 149.733 546.941 148.492C545.504 147.251 543.413 146.63 540.669 146.63H529.693V161.036ZM542.041 188.476C544.85 188.476 547.006 187.855 548.509 186.614C550.077 185.307 550.861 183.445 550.861 181.028C550.861 178.611 550.044 176.716 548.411 175.344C546.843 173.972 544.654 173.286 541.845 173.286H529.693V188.476H542.041ZM627.123 173.776C627.123 175.344 627.025 176.977 626.829 178.676H588.903C589.164 182.073 590.242 184.687 592.137 186.516C594.097 188.28 596.481 189.162 599.291 189.162C603.472 189.162 606.379 187.398 608.013 183.87H625.849C624.934 187.463 623.268 190.697 620.851 193.572C618.499 196.447 615.526 198.701 611.933 200.334C608.339 201.967 604.321 202.784 599.879 202.784C594.521 202.784 589.752 201.641 585.571 199.354C581.389 197.067 578.123 193.801 575.771 189.554C573.419 185.307 572.243 180.342 572.243 174.658C572.243 168.974 573.386 164.009 575.673 159.762C578.025 155.515 581.291 152.249 585.473 149.962C589.654 147.675 594.456 146.532 599.879 146.532C605.171 146.532 609.875 147.643 613.991 149.864C618.107 152.085 621.308 155.254 623.595 159.37C625.947 163.486 627.123 168.288 627.123 173.776ZM609.973 169.366C609.973 166.491 608.993 164.205 607.033 162.506C605.073 160.807 602.623 159.958 599.683 159.958C596.873 159.958 594.489 160.775 592.529 162.408C590.634 164.041 589.458 166.361 589.001 169.366H609.973ZM667.617 146.728C673.889 146.728 678.92 148.819 682.709 153C686.499 157.116 688.393 162.8 688.393 170.052V202H671.733V172.306C671.733 168.647 670.786 165.805 668.891 163.78C666.997 161.755 664.449 160.742 661.247 160.742C658.046 160.742 655.498 161.755 653.603 163.78C651.709 165.805 650.761 168.647 650.761 172.306V202H634.003V129.48H650.761V154.666C652.46 152.249 654.779 150.321 657.719 148.884C660.659 147.447 663.959 146.728 667.617 146.728ZM706.507 141.632C703.567 141.632 701.149 140.783 699.255 139.084C697.425 137.32 696.511 135.164 696.511 132.616C696.511 130.003 697.425 127.847 699.255 126.148C701.149 124.384 703.567 123.502 706.507 123.502C709.381 123.502 711.733 124.384 713.563 126.148C715.457 127.847 716.405 130.003 716.405 132.616C716.405 135.164 715.457 137.32 713.563 139.084C711.733 140.783 709.381 141.632 706.507 141.632ZM714.837 147.316V202H698.079V147.316H714.837ZM758.341 146.728C764.743 146.728 769.839 148.819 773.629 153C777.483 157.116 779.411 162.8 779.411 170.052V202H762.751V172.306C762.751 168.647 761.803 165.805 759.909 163.78C758.014 161.755 755.466 160.742 752.265 160.742C749.063 160.742 746.515 161.755 744.621 163.78C742.726 165.805 741.779 168.647 741.779 172.306V202H725.021V147.316H741.779V154.568C743.477 152.151 745.764 150.256 748.639 148.884C751.513 147.447 754.747 146.728 758.341 146.728ZM785.764 174.56C785.764 168.941 786.809 164.009 788.9 159.762C791.056 155.515 793.963 152.249 797.622 149.962C801.281 147.675 805.364 146.532 809.872 146.532C813.465 146.532 816.732 147.283 819.672 148.786C822.677 150.289 825.029 152.314 826.728 154.862V129.48H843.486V202H826.728V194.16C825.16 196.773 822.906 198.864 819.966 200.432C817.091 202 813.727 202.784 809.872 202.784C805.364 202.784 801.281 201.641 797.622 199.354C793.963 197.002 791.056 193.703 788.9 189.456C786.809 185.144 785.764 180.179 785.764 174.56ZM826.728 174.658C826.728 170.477 825.552 167.177 823.2 164.76C820.913 162.343 818.104 161.134 814.772 161.134C811.44 161.134 808.598 162.343 806.246 164.76C803.959 167.112 802.816 170.379 802.816 174.56C802.816 178.741 803.959 182.073 806.246 184.556C808.598 186.973 811.44 188.182 814.772 188.182C818.104 188.182 820.913 186.973 823.2 184.556C825.552 182.139 826.728 178.839 826.728 174.658ZM889.215 146.63V160.546H911.657V173.482H889.215V188.574H914.597V202H872.457V133.204H914.597V146.63H889.215ZM956.837 146.728C963.239 146.728 968.335 148.819 972.125 153C975.979 157.116 977.907 162.8 977.907 170.052V202H961.247V172.306C961.247 168.647 960.299 165.805 958.405 163.78C956.51 161.755 953.962 160.742 950.761 160.742C947.559 160.742 945.011 161.755 943.117 163.78C941.222 165.805 940.275 168.647 940.275 172.306V202H923.517V147.316H940.275V154.568C941.973 152.151 944.26 150.256 947.135 148.884C950.009 147.447 953.243 146.728 956.837 146.728ZM1018.07 187.79V202H1009.54C1003.47 202 998.731 200.53 995.334 197.59C991.937 194.585 990.238 189.717 990.238 182.988V161.232H983.574V147.316H990.238V133.988H1007V147.316H1017.97V161.232H1007V183.184C1007 184.817 1007.39 185.993 1008.17 186.712C1008.96 187.431 1010.26 187.79 1012.09 187.79H1018.07ZM1076.99 173.776C1076.99 175.344 1076.89 176.977 1076.7 178.676H1038.77C1039.03 182.073 1040.11 184.687 1042.01 186.516C1043.97 188.28 1046.35 189.162 1049.16 189.162C1053.34 189.162 1056.25 187.398 1057.88 183.87H1075.72C1074.8 187.463 1073.14 190.697 1070.72 193.572C1068.37 196.447 1065.4 198.701 1061.8 200.334C1058.21 201.967 1054.19 202.784 1049.75 202.784C1044.39 202.784 1039.62 201.641 1035.44 199.354C1031.26 197.067 1027.99 193.801 1025.64 189.554C1023.29 185.307 1022.11 180.342 1022.11 174.658C1022.11 168.974 1023.26 164.009 1025.54 159.762C1027.89 155.515 1031.16 152.249 1035.34 149.962C1039.52 147.675 1044.33 146.532 1049.75 146.532C1055.04 146.532 1059.74 147.643 1063.86 149.864C1067.98 152.085 1071.18 155.254 1073.46 159.37C1075.82 163.486 1076.99 168.288 1076.99 173.776ZM1059.84 169.366C1059.84 166.491 1058.86 164.205 1056.9 162.506C1054.94 160.807 1052.49 159.958 1049.55 159.958C1046.74 159.958 1044.36 160.775 1042.4 162.408C1040.5 164.041 1039.33 166.361 1038.87 169.366H1059.84ZM1100.63 156.43C1102.59 153.425 1105.04 151.073 1107.98 149.374C1110.92 147.61 1114.19 146.728 1117.78 146.728V164.466H1113.18C1108.99 164.466 1105.86 165.381 1103.77 167.21C1101.68 168.974 1100.63 172.11 1100.63 176.618V202H1083.87V147.316H1100.63V156.43ZM1140.59 155.058C1142.22 152.51 1144.48 150.452 1147.35 148.884C1150.23 147.316 1153.59 146.532 1157.45 146.532C1161.95 146.532 1166.04 147.675 1169.7 149.962C1173.35 152.249 1176.23 155.515 1178.32 159.762C1180.48 164.009 1181.55 168.941 1181.55 174.56C1181.55 180.179 1180.48 185.144 1178.32 189.456C1176.23 193.703 1173.35 197.002 1169.7 199.354C1166.04 201.641 1161.95 202.784 1157.45 202.784C1153.66 202.784 1150.29 202 1147.35 200.432C1144.48 198.864 1142.22 196.839 1140.59 194.356V228.068H1123.83V147.316H1140.59V155.058ZM1164.5 174.56C1164.5 170.379 1163.33 167.112 1160.97 164.76C1158.69 162.343 1155.84 161.134 1152.45 161.134C1149.12 161.134 1146.27 162.343 1143.92 164.76C1141.63 167.177 1140.49 170.477 1140.49 174.658C1140.49 178.839 1141.63 182.139 1143.92 184.556C1146.27 186.973 1149.12 188.182 1152.45 188.182C1155.78 188.182 1158.62 186.973 1160.97 184.556C1163.33 182.073 1164.5 178.741 1164.5 174.56ZM1205.14 156.43C1207.1 153.425 1209.55 151.073 1212.49 149.374C1215.43 147.61 1218.7 146.728 1222.29 146.728V164.466H1217.69C1213.51 164.466 1210.37 165.381 1208.28 167.21C1206.19 168.974 1205.14 172.11 1205.14 176.618V202H1188.38V147.316H1205.14V156.43ZM1236.77 141.632C1233.83 141.632 1231.41 140.783 1229.52 139.084C1227.69 137.32 1226.77 135.164 1226.77 132.616C1226.77 130.003 1227.69 127.847 1229.52 126.148C1231.41 124.384 1233.83 123.502 1236.77 123.502C1239.65 123.502 1242 124.384 1243.83 126.148C1245.72 127.847 1246.67 130.003 1246.67 132.616C1246.67 135.164 1245.72 137.32 1243.83 139.084C1242 140.783 1239.65 141.632 1236.77 141.632ZM1245.1 147.316V202H1228.34V147.316H1245.1ZM1277.53 202.784C1272.76 202.784 1268.52 201.967 1264.79 200.334C1261.07 198.701 1258.13 196.479 1255.97 193.67C1253.82 190.795 1252.61 187.594 1252.35 184.066H1268.91C1269.1 185.961 1269.99 187.496 1271.55 188.672C1273.12 189.848 1275.05 190.436 1277.34 190.436C1279.43 190.436 1281.03 190.044 1282.14 189.26C1283.31 188.411 1283.9 187.333 1283.9 186.026C1283.9 184.458 1283.08 183.315 1281.45 182.596C1279.82 181.812 1277.17 180.963 1273.51 180.048C1269.59 179.133 1266.33 178.186 1263.71 177.206C1261.1 176.161 1258.85 174.56 1256.95 172.404C1255.06 170.183 1254.11 167.21 1254.11 163.486C1254.11 160.35 1254.96 157.508 1256.66 154.96C1258.42 152.347 1260.97 150.289 1264.3 148.786C1267.7 147.283 1271.72 146.532 1276.36 146.532C1283.22 146.532 1288.61 148.231 1292.53 151.628C1296.51 155.025 1298.8 159.533 1299.39 165.152H1283.9C1283.64 163.257 1282.79 161.755 1281.35 160.644C1279.98 159.533 1278.15 158.978 1275.87 158.978C1273.91 158.978 1272.4 159.37 1271.36 160.154C1270.31 160.873 1269.79 161.885 1269.79 163.192C1269.79 164.76 1270.61 165.936 1272.24 166.72C1273.94 167.504 1276.55 168.288 1280.08 169.072C1284.13 170.117 1287.43 171.163 1289.98 172.208C1292.53 173.188 1294.75 174.821 1296.64 177.108C1298.6 179.329 1299.61 182.335 1299.68 186.124C1299.68 189.325 1298.76 192.2 1296.94 194.748C1295.17 197.231 1292.59 199.191 1289.19 200.628C1285.86 202.065 1281.97 202.784 1277.53 202.784ZM1359.52 173.776C1359.52 175.344 1359.42 176.977 1359.23 178.676H1321.3C1321.56 182.073 1322.64 184.687 1324.53 186.516C1326.49 188.28 1328.88 189.162 1331.69 189.162C1335.87 189.162 1338.78 187.398 1340.41 183.87H1358.25C1357.33 187.463 1355.66 190.697 1353.25 193.572C1350.9 196.447 1347.92 198.701 1344.33 200.334C1340.74 201.967 1336.72 202.784 1332.28 202.784C1326.92 202.784 1322.15 201.641 1317.97 199.354C1313.79 197.067 1310.52 193.801 1308.17 189.554C1305.82 185.307 1304.64 180.342 1304.64 174.658C1304.64 168.974 1305.78 164.009 1308.07 159.762C1310.42 155.515 1313.69 152.249 1317.87 149.962C1322.05 147.675 1326.85 146.532 1332.28 146.532C1337.57 146.532 1342.27 147.643 1346.39 149.864C1350.5 152.085 1353.7 155.254 1355.99 159.37C1358.34 163.486 1359.52 168.288 1359.52 173.776ZM1342.37 169.366C1342.37 166.491 1341.39 164.205 1339.43 162.506C1337.47 160.807 1335.02 159.958 1332.08 159.958C1329.27 159.958 1326.89 160.775 1324.93 162.408C1323.03 164.041 1321.85 166.361 1321.4 169.366H1342.37ZM51.744 266.96C50.5027 264.673 48.706 262.942 46.354 261.766C44.0673 260.525 41.356 259.904 38.22 259.904C32.7973 259.904 28.4527 261.701 25.186 265.294C21.9193 268.822 20.286 273.559 20.286 279.504C20.286 285.841 21.9847 290.807 25.382 294.4C28.8447 297.928 33.5813 299.692 39.592 299.692C43.708 299.692 47.1707 298.647 49.98 296.556C52.8547 294.465 54.9453 291.46 56.252 287.54H34.986V275.192H71.442V290.774C70.2007 294.955 68.0773 298.843 65.072 302.436C62.132 306.029 58.3753 308.937 53.802 311.158C49.2287 313.379 44.0673 314.49 38.318 314.49C31.5233 314.49 25.4473 313.02 20.09 310.08C14.798 307.075 10.6493 302.926 7.644 297.634C4.704 292.342 3.234 286.299 3.234 279.504C3.234 272.709 4.704 266.666 7.644 261.374C10.6493 256.017 14.798 251.868 20.09 248.928C25.382 245.923 31.4253 244.42 38.22 244.42C46.452 244.42 53.3773 246.413 58.996 250.398C64.68 254.383 68.4367 259.904 70.266 266.96H51.744ZM95.5224 268.43C97.4824 265.425 99.9324 263.073 102.872 261.374C105.812 259.61 109.079 258.728 112.672 258.728V276.466H108.066C103.885 276.466 100.749 277.381 98.6584 279.21C96.5678 280.974 95.5224 284.11 95.5224 288.618V314H78.7644V259.316H95.5224V268.43ZM115.39 286.56C115.39 280.941 116.436 276.009 118.526 271.762C120.682 267.515 123.59 264.249 127.248 261.962C130.907 259.675 134.99 258.532 139.498 258.532C143.353 258.532 146.718 259.316 149.592 260.884C152.532 262.452 154.786 264.51 156.354 267.058V259.316H173.112V314H156.354V306.258C154.721 308.806 152.434 310.864 149.494 312.432C146.62 314 143.255 314.784 139.4 314.784C134.958 314.784 130.907 313.641 127.248 311.354C123.59 309.002 120.682 305.703 118.526 301.456C116.436 297.144 115.39 292.179 115.39 286.56ZM156.354 286.658C156.354 282.477 155.178 279.177 152.826 276.76C150.54 274.343 147.73 273.134 144.398 273.134C141.066 273.134 138.224 274.343 135.872 276.76C133.586 279.112 132.442 282.379 132.442 286.56C132.442 290.741 133.586 294.073 135.872 296.556C138.224 298.973 141.066 300.182 144.398 300.182C147.73 300.182 150.54 298.973 152.826 296.556C155.178 294.139 156.354 290.839 156.354 286.658ZM179.944 286.56C179.944 280.941 180.989 276.009 183.08 271.762C185.236 267.515 188.143 264.249 191.802 261.962C195.461 259.675 199.544 258.532 204.052 258.532C207.645 258.532 210.912 259.283 213.852 260.786C216.857 262.289 219.209 264.314 220.908 266.862V241.48H237.666V314H220.908V306.16C219.34 308.773 217.086 310.864 214.146 312.432C211.271 314 207.907 314.784 204.052 314.784C199.544 314.784 195.461 313.641 191.802 311.354C188.143 309.002 185.236 305.703 183.08 301.456C180.989 297.144 179.944 292.179 179.944 286.56ZM220.908 286.658C220.908 282.477 219.732 279.177 217.38 276.76C215.093 274.343 212.284 273.134 208.952 273.134C205.62 273.134 202.778 274.343 200.426 276.76C198.139 279.112 196.996 282.379 196.996 286.56C196.996 290.741 198.139 294.073 200.426 296.556C202.778 298.973 205.62 300.182 208.952 300.182C212.284 300.182 215.093 298.973 217.38 296.556C219.732 294.139 220.908 290.839 220.908 286.658ZM299.378 285.776C299.378 287.344 299.28 288.977 299.084 290.676H261.158C261.419 294.073 262.497 296.687 264.392 298.516C266.352 300.28 268.736 301.162 271.546 301.162C275.727 301.162 278.634 299.398 280.268 295.87H298.104C297.189 299.463 295.523 302.697 293.106 305.572C290.754 308.447 287.781 310.701 284.188 312.334C280.594 313.967 276.576 314.784 272.134 314.784C266.776 314.784 262.007 313.641 257.826 311.354C253.644 309.067 250.378 305.801 248.026 301.554C245.674 297.307 244.498 292.342 244.498 286.658C244.498 280.974 245.641 276.009 247.928 271.762C250.28 267.515 253.546 264.249 257.728 261.962C261.909 259.675 266.711 258.532 272.134 258.532C277.426 258.532 282.13 259.643 286.246 261.864C290.362 264.085 293.563 267.254 295.85 271.37C298.202 275.486 299.378 280.288 299.378 285.776ZM282.228 281.366C282.228 278.491 281.248 276.205 279.288 274.506C277.328 272.807 274.878 271.958 271.938 271.958C269.128 271.958 266.744 272.775 264.784 274.408C262.889 276.041 261.713 278.361 261.256 281.366H282.228ZM350.84 245.204C358.092 245.204 364.429 246.641 369.852 249.516C375.275 252.391 379.456 256.441 382.396 261.668C385.401 266.829 386.904 272.807 386.904 279.602C386.904 286.331 385.401 292.309 382.396 297.536C379.456 302.763 375.242 306.813 369.754 309.688C364.331 312.563 358.027 314 350.84 314H325.066V245.204H350.84ZM349.762 299.496C356.099 299.496 361.032 297.765 364.56 294.302C368.088 290.839 369.852 285.939 369.852 279.602C369.852 273.265 368.088 268.332 364.56 264.804C361.032 261.276 356.099 259.512 349.762 259.512H341.824V299.496H349.762ZM402.737 253.632C399.797 253.632 397.38 252.783 395.485 251.084C393.656 249.32 392.741 247.164 392.741 244.616C392.741 242.003 393.656 239.847 395.485 238.148C397.38 236.384 399.797 235.502 402.737 235.502C405.612 235.502 407.964 236.384 409.793 238.148C411.688 239.847 412.635 242.003 412.635 244.616C412.635 247.164 411.688 249.32 409.793 251.084C407.964 252.783 405.612 253.632 402.737 253.632ZM411.067 259.316V314H394.309V259.316H411.067ZM442.027 258.532C445.882 258.532 449.247 259.316 452.121 260.884C455.061 262.452 457.315 264.51 458.883 267.058V259.316H475.641V313.902C475.641 318.933 474.629 323.473 472.603 327.524C470.643 331.64 467.605 334.907 463.489 337.324C459.439 339.741 454.375 340.95 448.299 340.95C440.198 340.95 433.632 339.023 428.601 335.168C423.571 331.379 420.696 326.217 419.977 319.684H436.539C437.062 321.775 438.303 323.408 440.263 324.584C442.223 325.825 444.641 326.446 447.515 326.446C450.978 326.446 453.722 325.433 455.747 323.408C457.838 321.448 458.883 318.279 458.883 313.902V306.16C457.25 308.708 454.996 310.799 452.121 312.432C449.247 314 445.882 314.784 442.027 314.784C437.519 314.784 433.436 313.641 429.777 311.354C426.119 309.002 423.211 305.703 421.055 301.456C418.965 297.144 417.919 292.179 417.919 286.56C417.919 280.941 418.965 276.009 421.055 271.762C423.211 267.515 426.119 264.249 429.777 261.962C433.436 259.675 437.519 258.532 442.027 258.532ZM458.883 286.658C458.883 282.477 457.707 279.177 455.355 276.76C453.069 274.343 450.259 273.134 446.927 273.134C443.595 273.134 440.753 274.343 438.401 276.76C436.115 279.112 434.971 282.379 434.971 286.56C434.971 290.741 436.115 294.073 438.401 296.556C440.753 298.973 443.595 300.182 446.927 300.182C450.259 300.182 453.069 298.973 455.355 296.556C457.707 294.139 458.883 290.839 458.883 286.658ZM494.233 253.632C491.293 253.632 488.876 252.783 486.981 251.084C485.152 249.32 484.237 247.164 484.237 244.616C484.237 242.003 485.152 239.847 486.981 238.148C488.876 236.384 491.293 235.502 494.233 235.502C497.108 235.502 499.46 236.384 501.289 238.148C503.184 239.847 504.131 242.003 504.131 244.616C504.131 247.164 503.184 249.32 501.289 251.084C499.46 252.783 497.108 253.632 494.233 253.632ZM502.563 259.316V314H485.805V259.316H502.563ZM543.225 299.79V314H534.699C528.623 314 523.887 312.53 520.489 309.59C517.092 306.585 515.393 301.717 515.393 294.988V273.232H508.729V259.316H515.393V245.988H532.151V259.316H543.127V273.232H532.151V295.184C532.151 296.817 532.543 297.993 533.327 298.712C534.111 299.431 535.418 299.79 537.247 299.79H543.225ZM547.268 286.56C547.268 280.941 548.313 276.009 550.404 271.762C552.56 267.515 555.467 264.249 559.126 261.962C562.785 259.675 566.868 258.532 571.376 258.532C575.231 258.532 578.595 259.316 581.47 260.884C584.41 262.452 586.664 264.51 588.232 267.058V259.316H604.99V314H588.232V306.258C586.599 308.806 584.312 310.864 581.372 312.432C578.497 314 575.133 314.784 571.278 314.784C566.835 314.784 562.785 313.641 559.126 311.354C555.467 309.002 552.56 305.703 550.404 301.456C548.313 297.144 547.268 292.179 547.268 286.56ZM588.232 286.658C588.232 282.477 587.056 279.177 584.704 276.76C582.417 274.343 579.608 273.134 576.276 273.134C572.944 273.134 570.102 274.343 567.75 276.76C565.463 279.112 564.32 282.379 564.32 286.56C564.32 290.741 565.463 294.073 567.75 296.556C570.102 298.973 572.944 300.182 576.276 300.182C579.608 300.182 582.417 298.973 584.704 296.556C587.056 294.139 588.232 290.839 588.232 286.658ZM631.912 241.48V314H615.154V241.48H631.912ZM677.662 258.63V272.546H700.104V285.482H677.662V300.574H703.044V314H660.904V245.204H703.044V258.63H677.662ZM744.303 314L733.817 298.81L724.997 314H706.867L724.899 286.07L706.377 259.316H725.193L735.679 274.408L744.499 259.316H762.629L744.303 286.854L763.119 314H744.303ZM784.374 267.058C786.008 264.51 788.262 262.452 791.136 260.884C794.011 259.316 797.376 258.532 801.23 258.532C805.738 258.532 809.822 259.675 813.48 261.962C817.139 264.249 820.014 267.515 822.104 271.762C824.26 276.009 825.338 280.941 825.338 286.56C825.338 292.179 824.26 297.144 822.104 301.456C820.014 305.703 817.139 309.002 813.48 311.354C809.822 313.641 805.738 314.784 801.23 314.784C797.441 314.784 794.076 314 791.136 312.432C788.262 310.864 786.008 308.839 784.374 306.356V340.068H767.616V259.316H784.374V267.058ZM808.286 286.56C808.286 282.379 807.11 279.112 804.758 276.76C802.472 274.343 799.63 273.134 796.232 273.134C792.9 273.134 790.058 274.343 787.706 276.76C785.42 279.177 784.276 282.477 784.276 286.658C784.276 290.839 785.42 294.139 787.706 296.556C790.058 298.973 792.9 300.182 796.232 300.182C799.564 300.182 802.406 298.973 804.758 296.556C807.11 294.073 808.286 290.741 808.286 286.56ZM883.718 285.776C883.718 287.344 883.62 288.977 883.424 290.676H845.498C845.759 294.073 846.837 296.687 848.732 298.516C850.692 300.28 853.077 301.162 855.886 301.162C860.067 301.162 862.975 299.398 864.608 295.87H882.444C881.529 299.463 879.863 302.697 877.446 305.572C875.094 308.447 872.121 310.701 868.528 312.334C864.935 313.967 860.917 314.784 856.474 314.784C851.117 314.784 846.347 313.641 842.166 311.354C837.985 309.067 834.718 305.801 832.366 301.554C830.014 297.307 828.838 292.342 828.838 286.658C828.838 280.974 829.981 276.009 832.268 271.762C834.62 267.515 837.887 264.249 842.068 261.962C846.249 259.675 851.051 258.532 856.474 258.532C861.766 258.532 866.47 259.643 870.586 261.864C874.702 264.085 877.903 267.254 880.19 271.37C882.542 275.486 883.718 280.288 883.718 285.776ZM866.568 281.366C866.568 278.491 865.588 276.205 863.628 274.506C861.668 272.807 859.218 271.958 856.278 271.958C853.469 271.958 851.084 272.775 849.124 274.408C847.229 276.041 846.053 278.361 845.596 281.366H866.568ZM907.357 268.43C909.317 265.425 911.767 263.073 914.707 261.374C917.647 259.61 920.913 258.728 924.507 258.728V276.466H919.901C915.719 276.466 912.583 277.381 910.493 279.21C908.402 280.974 907.357 284.11 907.357 288.618V314H890.599V259.316H907.357V268.43ZM938.985 253.632C936.045 253.632 933.627 252.783 931.733 251.084C929.903 249.32 928.989 247.164 928.989 244.616C928.989 242.003 929.903 239.847 931.733 238.148C933.627 236.384 936.045 235.502 938.985 235.502C941.859 235.502 944.211 236.384 946.041 238.148C947.935 239.847 948.883 242.003 948.883 244.616C948.883 247.164 947.935 249.32 946.041 251.084C944.211 252.783 941.859 253.632 938.985 253.632ZM947.315 259.316V314H930.557V259.316H947.315ZM1009.05 285.776C1009.05 287.344 1008.95 288.977 1008.75 290.676H970.827C971.088 294.073 972.166 296.687 974.061 298.516C976.021 300.28 978.406 301.162 981.215 301.162C985.396 301.162 988.304 299.398 989.937 295.87H1007.77C1006.86 299.463 1005.19 302.697 1002.78 305.572C1000.42 308.447 997.45 310.701 993.857 312.334C990.264 313.967 986.246 314.784 981.803 314.784C976.446 314.784 971.676 313.641 967.495 311.354C963.314 309.067 960.047 305.801 957.695 301.554C955.343 297.307 954.167 292.342 954.167 286.658C954.167 280.974 955.31 276.009 957.597 271.762C959.949 267.515 963.216 264.249 967.397 261.962C971.578 259.675 976.38 258.532 981.803 258.532C987.095 258.532 991.799 259.643 995.915 261.864C1000.03 264.085 1003.23 267.254 1005.52 271.37C1007.87 275.486 1009.05 280.288 1009.05 285.776ZM991.897 281.366C991.897 278.491 990.917 276.205 988.957 274.506C986.997 272.807 984.547 271.958 981.607 271.958C978.798 271.958 976.413 272.775 974.453 274.408C972.558 276.041 971.382 278.361 970.925 281.366H991.897ZM1049.25 258.728C1055.65 258.728 1060.75 260.819 1064.54 265C1068.39 269.116 1070.32 274.8 1070.32 282.052V314H1053.66V284.306C1053.66 280.647 1052.71 277.805 1050.82 275.78C1048.92 273.755 1046.37 272.742 1043.17 272.742C1039.97 272.742 1037.42 273.755 1035.53 275.78C1033.63 277.805 1032.69 280.647 1032.69 284.306V314H1015.93V259.316H1032.69V266.568C1034.38 264.151 1036.67 262.256 1039.55 260.884C1042.42 259.447 1045.65 258.728 1049.25 258.728ZM1076.67 286.658C1076.67 280.974 1077.81 276.009 1080.1 271.762C1082.45 267.515 1085.69 264.249 1089.8 261.962C1093.98 259.675 1098.75 258.532 1104.11 258.532C1110.97 258.532 1116.69 260.329 1121.26 263.922C1125.9 267.515 1128.94 272.579 1130.37 279.112H1112.54C1111.04 274.931 1108.13 272.84 1103.82 272.84C1100.75 272.84 1098.3 274.049 1096.47 276.466C1094.64 278.818 1093.72 282.215 1093.72 286.658C1093.72 291.101 1094.64 294.531 1096.47 296.948C1098.3 299.3 1100.75 300.476 1103.82 300.476C1108.13 300.476 1111.04 298.385 1112.54 294.204H1130.37C1128.94 300.607 1125.9 305.637 1121.26 309.296C1116.62 312.955 1110.91 314.784 1104.11 314.784C1098.75 314.784 1093.98 313.641 1089.8 311.354C1085.69 309.067 1082.45 305.801 1080.1 301.554C1077.81 297.307 1076.67 292.342 1076.67 286.658ZM1188.93 285.776C1188.93 287.344 1188.83 288.977 1188.63 290.676H1150.71C1150.97 294.073 1152.05 296.687 1153.94 298.516C1155.9 300.28 1158.29 301.162 1161.09 301.162C1165.28 301.162 1168.18 299.398 1169.82 295.87H1187.65C1186.74 299.463 1185.07 302.697 1182.65 305.572C1180.3 308.447 1177.33 310.701 1173.74 312.334C1170.14 313.967 1166.13 314.784 1161.68 314.784C1156.33 314.784 1151.56 313.641 1147.37 311.354C1143.19 309.067 1139.93 305.801 1137.57 301.554C1135.22 297.307 1134.05 292.342 1134.05 286.658C1134.05 280.974 1135.19 276.009 1137.48 271.762C1139.83 267.515 1143.1 264.249 1147.28 261.962C1151.46 259.675 1156.26 258.532 1161.68 258.532C1166.97 258.532 1171.68 259.643 1175.79 261.864C1179.91 264.085 1183.11 267.254 1185.4 271.37C1187.75 275.486 1188.93 280.288 1188.93 285.776ZM1171.78 281.366C1171.78 278.491 1170.8 276.205 1168.84 274.506C1166.88 272.807 1164.43 271.958 1161.49 271.958C1158.68 271.958 1156.29 272.775 1154.33 274.408C1152.44 276.041 1151.26 278.361 1150.8 281.366H1171.78ZM1218.05 314.784C1213.28 314.784 1209.04 313.967 1205.31 312.334C1201.59 310.701 1198.65 308.479 1196.49 305.67C1194.34 302.795 1193.13 299.594 1192.87 296.066H1209.43C1209.63 297.961 1210.51 299.496 1212.08 300.672C1213.64 301.848 1215.57 302.436 1217.86 302.436C1219.95 302.436 1221.55 302.044 1222.66 301.26C1223.84 300.411 1224.42 299.333 1224.42 298.026C1224.42 296.458 1223.61 295.315 1221.97 294.596C1220.34 293.812 1217.69 292.963 1214.04 292.048C1210.12 291.133 1206.85 290.186 1204.24 289.206C1201.62 288.161 1199.37 286.56 1197.47 284.404C1195.58 282.183 1194.63 279.21 1194.63 275.486C1194.63 272.35 1195.48 269.508 1197.18 266.96C1198.94 264.347 1201.49 262.289 1204.82 260.786C1208.22 259.283 1212.24 258.532 1216.88 258.532C1223.74 258.532 1229.13 260.231 1233.05 263.628C1237.03 267.025 1239.32 271.533 1239.91 277.152H1224.42C1224.16 275.257 1223.31 273.755 1221.88 272.644C1220.5 271.533 1218.67 270.978 1216.39 270.978C1214.43 270.978 1212.92 271.37 1211.88 272.154C1210.83 272.873 1210.31 273.885 1210.31 275.192C1210.31 276.76 1211.13 277.936 1212.76 278.72C1214.46 279.504 1217.07 280.288 1220.6 281.072C1224.65 282.117 1227.95 283.163 1230.5 284.208C1233.05 285.188 1235.27 286.821 1237.16 289.108C1239.12 291.329 1240.14 294.335 1240.2 298.124C1240.2 301.325 1239.29 304.2 1237.46 306.748C1235.69 309.231 1233.11 311.191 1229.72 312.628C1226.38 314.065 1222.5 314.784 1218.05 314.784Z" fill="white"/>
</svg>
