<svg width="48" height="48" viewBox="0 0 48 48" fill="none" xmlns="http://www.w3.org/2000/svg">
<path d="M7.75858 35.8697C6.56842 35.8697 5.57547 35.4729 4.77974 34.6791C3.984 33.8854 3.58528 32.8971 3.58355 31.7143V10.1554C3.58355 8.97086 3.98228 7.98257 4.77974 7.19057C5.57719 6.39857 6.57014 6.00171 7.75858 6H40.748C41.6384 6 42.4238 6.24 43.1042 6.72C43.7845 7.2 44.2582 7.81714 44.5251 8.57143H33.6432C31.0131 8.57143 28.8068 9.45857 27.0241 11.2329C25.2415 13.0071 24.3502 15.2023 24.3502 17.8183V35.8697H7.75858ZM34.6353 42C33.7672 42 33.0283 41.6974 32.4186 41.0923C31.8106 40.4854 31.5066 39.75 31.5066 38.886V18.8057C31.5066 17.9314 31.8106 17.1943 32.4186 16.5943C33.0266 15.9909 33.7655 15.6891 34.6353 15.6891H44.861C45.7463 15.6891 46.4903 15.99 47.0932 16.5917C47.6977 17.1934 48 17.9306 48 18.8031V38.8809C48 39.7466 47.6986 40.4829 47.0958 41.0897C46.4912 41.6949 45.7463 41.9974 44.861 41.9974L34.6353 42ZM1 42V39.4286H24.3527V42H1ZM39.7455 25.2857C40.245 25.2857 40.661 25.1143 40.9934 24.7714C41.3258 24.4251 41.492 24.0223 41.492 23.5629C41.492 23.0657 41.3258 22.6517 40.9934 22.3209C40.661 21.99 40.2407 21.8246 39.7326 21.8246C39.2624 21.8246 38.8585 21.99 38.5209 22.3209C38.1834 22.6517 38.0146 23.07 38.0146 23.5757C38.0146 24.0437 38.1868 24.4457 38.5313 24.7817C38.8775 25.1177 39.2822 25.2857 39.7455 25.2857Z" fill="white"/>
</svg>
