<svg width="975" height="224" viewBox="0 0 975 224" fill="none" xmlns="http://www.w3.org/2000/svg">
<path d="M51.744 42.96C50.5027 40.6733 48.706 38.942 46.354 37.766C44.0673 36.5247 41.356 35.904 38.22 35.904C32.7973 35.904 28.4527 37.7007 25.186 41.294C21.9193 44.822 20.286 49.5587 20.286 55.504C20.286 61.8413 21.9847 66.8067 25.382 70.4C28.8447 73.928 33.5813 75.692 39.592 75.692C43.708 75.692 47.1707 74.6467 49.98 72.556C52.8547 70.4653 54.9453 67.46 56.252 63.54H34.986V51.192H71.442V66.774C70.2007 70.9553 68.0773 74.8427 65.072 78.436C62.132 82.0293 58.3753 84.9367 53.802 87.158C49.2287 89.3793 44.0673 90.49 38.318 90.49C31.5233 90.49 25.4473 89.02 20.09 86.08C14.798 83.0747 10.6493 78.926 7.644 73.634C4.704 68.342 3.234 62.2987 3.234 55.504C3.234 48.7093 4.704 42.666 7.644 37.374C10.6493 32.0167 14.798 27.868 20.09 24.928C25.382 21.9227 31.4253 20.42 38.22 20.42C46.452 20.42 53.3773 22.4127 58.996 26.398C64.68 30.3833 68.4367 35.904 70.266 42.96H51.744ZM95.5224 44.43C97.4824 41.4247 99.9324 39.0727 102.872 37.374C105.812 35.61 109.079 34.728 112.672 34.728V52.466H108.066C103.885 52.466 100.749 53.3807 98.6584 55.21C96.5678 56.974 95.5224 60.11 95.5224 64.618V90H78.7644V35.316H95.5224V44.43ZM143.614 90.784C138.257 90.784 133.422 89.6407 129.11 87.354C124.864 85.0673 121.499 81.8007 119.016 77.554C116.599 73.3073 115.39 68.342 115.39 62.658C115.39 57.0393 116.632 52.1067 119.114 47.86C121.597 43.548 124.994 40.2487 129.306 37.962C133.618 35.6753 138.453 34.532 143.81 34.532C149.168 34.532 154.002 35.6753 158.314 37.962C162.626 40.2487 166.024 43.548 168.506 47.86C170.989 52.1067 172.23 57.0393 172.23 62.658C172.23 68.2767 170.956 73.242 168.408 77.554C165.926 81.8007 162.496 85.0673 158.118 87.354C153.806 89.6407 148.972 90.784 143.614 90.784ZM143.614 76.28C146.816 76.28 149.527 75.104 151.748 72.752C154.035 70.4 155.178 67.0353 155.178 62.658C155.178 58.2807 154.068 54.916 151.846 52.564C149.69 50.212 147.012 49.036 143.81 49.036C140.544 49.036 137.832 50.212 135.676 52.564C133.52 54.8507 132.442 58.2153 132.442 62.658C132.442 67.0353 133.488 70.4 135.578 72.752C137.734 75.104 140.413 76.28 143.614 76.28ZM257.659 35.316L242.861 90H224.339L215.715 54.524L206.797 90H188.373L173.477 35.316H190.235L197.977 74.418L207.189 35.316H224.927L234.237 74.222L241.881 35.316H257.659ZM375.565 21.204L357.631 90H337.345L326.369 44.724L315.001 90H294.715L277.271 21.204H295.205L305.103 71.282L317.353 21.204H335.777L347.537 71.282L357.533 21.204H375.565ZM390.437 29.632C387.497 29.632 385.08 28.7827 383.185 27.084C381.356 25.32 380.441 23.164 380.441 20.616C380.441 18.0027 381.356 15.8467 383.185 14.148C385.08 12.384 387.497 11.502 390.437 11.502C393.312 11.502 395.664 12.384 397.493 14.148C399.388 15.8467 400.335 18.0027 400.335 20.616C400.335 23.164 399.388 25.32 397.493 27.084C395.664 28.7827 393.312 29.632 390.437 29.632ZM398.767 35.316V90H382.009V35.316H398.767ZM439.43 75.79V90H430.904C424.828 90 420.091 88.53 416.694 85.59C413.296 82.5847 411.598 77.7173 411.598 70.988V49.232H404.934V35.316H411.598V21.988H428.356V35.316H439.332V49.232H428.356V71.184C428.356 72.8173 428.748 73.9933 429.532 74.712C430.316 75.4307 431.622 75.79 433.452 75.79H439.43ZM480.418 34.728C486.69 34.728 491.721 36.8187 495.51 41C499.3 45.116 501.194 50.8 501.194 58.052V90H484.534V60.306C484.534 56.6473 483.587 53.8053 481.692 51.78C479.798 49.7547 477.25 48.742 474.048 48.742C470.847 48.742 468.299 49.7547 466.404 51.78C464.51 53.8053 463.562 56.6473 463.562 60.306V90H446.804V17.48H463.562V42.666C465.261 40.2487 467.58 38.3213 470.52 36.884C473.46 35.4467 476.76 34.728 480.418 34.728ZM546.445 21.204V90H529.687V21.204H546.445ZM602.297 42.96C601.056 40.6733 599.259 38.942 596.907 37.766C594.621 36.5247 591.909 35.904 588.773 35.904C583.351 35.904 579.006 37.7007 575.739 41.294C572.473 44.822 570.839 49.5587 570.839 55.504C570.839 61.8413 572.538 66.8067 575.935 70.4C579.398 73.928 584.135 75.692 590.145 75.692C594.261 75.692 597.724 74.6467 600.533 72.556C603.408 70.4653 605.499 67.46 606.805 63.54H585.539V51.192H621.995V66.774C620.754 70.9553 618.631 74.8427 615.625 78.436C612.685 82.0293 608.929 84.9367 604.355 87.158C599.782 89.3793 594.621 90.49 588.871 90.49C582.077 90.49 576.001 89.02 570.643 86.08C565.351 83.0747 561.203 78.926 558.197 73.634C555.257 68.342 553.787 62.2987 553.787 55.504C553.787 48.7093 555.257 42.666 558.197 37.374C561.203 32.0167 565.351 27.868 570.643 24.928C575.935 21.9227 581.979 20.42 588.773 20.42C597.005 20.42 603.931 22.4127 609.549 26.398C615.233 30.3833 618.99 35.904 620.819 42.96H602.297ZM690.862 90H674.104L646.076 47.566V90H629.318V21.204H646.076L674.104 63.834V21.204H690.862V90ZM717.807 34.63V48.546H740.249V61.482H717.807V76.574H743.189V90H701.049V21.204H743.189V34.63H717.807ZM791.995 90L768.867 59.62V90H752.109V21.204H768.867V51.388L791.799 21.204H811.497L784.841 54.916L812.477 90H791.995ZM826.321 90.784C823.381 90.784 820.963 89.9347 819.069 88.236C817.239 86.472 816.325 84.316 816.325 81.768C816.325 79.1547 817.239 76.966 819.069 75.202C820.963 73.438 823.381 72.556 826.321 72.556C829.195 72.556 831.547 73.438 833.377 75.202C835.271 76.966 836.219 79.1547 836.219 81.768C836.219 84.316 835.271 86.472 833.377 88.236C831.547 89.9347 829.195 90.784 826.321 90.784ZM47.726 166.72C51.7113 167.569 54.9127 169.562 57.33 172.698C59.7473 175.769 60.956 179.297 60.956 183.282C60.956 189.031 58.9307 193.605 54.88 197.002C50.8947 200.334 45.3087 202 38.122 202H6.076V133.204H37.044C44.0347 133.204 49.49 134.805 53.41 138.006C57.3953 141.207 59.388 145.552 59.388 151.04C59.388 155.091 58.31 158.455 56.154 161.134C54.0633 163.813 51.254 165.675 47.726 166.72ZM22.834 161.036H33.81C36.554 161.036 38.6447 160.448 40.082 159.272C41.5847 158.031 42.336 156.234 42.336 153.882C42.336 151.53 41.5847 149.733 40.082 148.492C38.6447 147.251 36.554 146.63 33.81 146.63H22.834V161.036ZM35.182 188.476C37.9913 188.476 40.1473 187.855 41.65 186.614C43.218 185.307 44.002 183.445 44.002 181.028C44.002 178.611 43.1853 176.716 41.552 175.344C39.984 173.972 37.7953 173.286 34.986 173.286H22.834V188.476H35.182ZM122.714 147.316V202H105.956V194.552C104.257 196.969 101.938 198.929 98.9976 200.432C96.1229 201.869 92.9216 202.588 89.3936 202.588C85.2123 202.588 81.5209 201.673 78.3196 199.844C75.1183 197.949 72.6356 195.238 70.8716 191.71C69.1076 188.182 68.2256 184.033 68.2256 179.264V147.316H84.8856V177.01C84.8856 180.669 85.8329 183.511 87.7276 185.536C89.6223 187.561 92.1703 188.574 95.3716 188.574C98.6383 188.574 101.219 187.561 103.114 185.536C105.008 183.511 105.956 180.669 105.956 177.01V147.316H122.714ZM141.219 141.632C138.279 141.632 135.861 140.783 133.967 139.084C132.137 137.32 131.223 135.164 131.223 132.616C131.223 130.003 132.137 127.847 133.967 126.148C135.861 124.384 138.279 123.502 141.219 123.502C144.093 123.502 146.445 124.384 148.275 126.148C150.169 127.847 151.117 130.003 151.117 132.616C151.117 135.164 150.169 137.32 148.275 139.084C146.445 140.783 144.093 141.632 141.219 141.632ZM149.549 147.316V202H132.791V147.316H149.549ZM176.491 129.48V202H159.733V129.48H176.491ZM183.343 174.56C183.343 168.941 184.389 164.009 186.479 159.762C188.635 155.515 191.543 152.249 195.201 149.962C198.86 147.675 202.943 146.532 207.451 146.532C211.045 146.532 214.311 147.283 217.251 148.786C220.257 150.289 222.609 152.314 224.307 154.862V129.48H241.065V202H224.307V194.16C222.739 196.773 220.485 198.864 217.545 200.432C214.671 202 211.306 202.784 207.451 202.784C202.943 202.784 198.86 201.641 195.201 199.354C191.543 197.002 188.635 193.703 186.479 189.456C184.389 185.144 183.343 180.179 183.343 174.56ZM224.307 174.658C224.307 170.477 223.131 167.177 220.779 164.76C218.493 162.343 215.683 161.134 212.351 161.134C209.019 161.134 206.177 162.343 203.825 164.76C201.539 167.112 200.395 170.379 200.395 174.56C200.395 178.741 201.539 182.073 203.825 184.556C206.177 186.973 209.019 188.182 212.351 188.182C215.683 188.182 218.493 186.973 220.779 184.556C223.131 182.139 224.307 178.839 224.307 174.658ZM364.705 133.204L346.771 202H326.485L315.509 156.724L304.141 202H283.855L266.411 133.204H284.345L294.243 183.282L306.493 133.204H324.917L336.677 183.282L346.673 133.204H364.705ZM404.763 146.728C411.035 146.728 416.066 148.819 419.855 153C423.644 157.116 425.539 162.8 425.539 170.052V202H408.879V172.306C408.879 168.647 407.932 165.805 406.037 163.78C404.142 161.755 401.594 160.742 398.393 160.742C395.192 160.742 392.644 161.755 390.749 163.78C388.854 165.805 387.907 168.647 387.907 172.306V202H371.149V129.48H387.907V154.666C389.606 152.249 391.925 150.321 394.865 148.884C397.805 147.447 401.104 146.728 404.763 146.728ZM431.892 174.56C431.892 168.941 432.937 164.009 435.028 159.762C437.184 155.515 440.091 152.249 443.75 149.962C447.409 147.675 451.492 146.532 456 146.532C459.855 146.532 463.219 147.316 466.094 148.884C469.034 150.452 471.288 152.51 472.856 155.058V147.316H489.614V202H472.856V194.258C471.223 196.806 468.936 198.864 465.996 200.432C463.121 202 459.757 202.784 455.902 202.784C451.459 202.784 447.409 201.641 443.75 199.354C440.091 197.002 437.184 193.703 435.028 189.456C432.937 185.144 431.892 180.179 431.892 174.56ZM472.856 174.658C472.856 170.477 471.68 167.177 469.328 164.76C467.041 162.343 464.232 161.134 460.9 161.134C457.568 161.134 454.726 162.343 452.374 164.76C450.087 167.112 448.944 170.379 448.944 174.56C448.944 178.741 450.087 182.073 452.374 184.556C454.726 186.973 457.568 188.182 460.9 188.182C464.232 188.182 467.041 186.973 469.328 184.556C471.68 182.139 472.856 178.839 472.856 174.658ZM530.256 187.79V202H521.73C515.654 202 510.917 200.53 507.52 197.59C504.122 194.585 502.424 189.717 502.424 182.988V161.232H495.76V147.316H502.424V133.988H519.182V147.316H530.158V161.232H519.182V183.184C519.182 184.817 519.574 185.993 520.358 186.712C521.142 187.431 522.448 187.79 524.278 187.79H530.256ZM541.452 133.204H558.602L547.626 159.468H536.356L541.452 133.204ZM588.733 202.784C583.963 202.784 579.717 201.967 575.993 200.334C572.269 198.701 569.329 196.479 567.173 193.67C565.017 190.795 563.808 187.594 563.547 184.066H580.109C580.305 185.961 581.187 187.496 582.755 188.672C584.323 189.848 586.25 190.436 588.537 190.436C590.627 190.436 592.228 190.044 593.339 189.26C594.515 188.411 595.103 187.333 595.103 186.026C595.103 184.458 594.286 183.315 592.653 182.596C591.019 181.812 588.373 180.963 584.715 180.048C580.795 179.133 577.528 178.186 574.915 177.206C572.301 176.161 570.047 174.56 568.153 172.404C566.258 170.183 565.311 167.21 565.311 163.486C565.311 160.35 566.16 157.508 567.859 154.96C569.623 152.347 572.171 150.289 575.503 148.786C578.9 147.283 582.918 146.532 587.557 146.532C594.417 146.532 599.807 148.231 603.727 151.628C607.712 155.025 609.999 159.533 610.587 165.152H595.103C594.841 163.257 593.992 161.755 592.555 160.644C591.183 159.533 589.353 158.978 587.067 158.978C585.107 158.978 583.604 159.37 582.559 160.154C581.513 160.873 580.991 161.885 580.991 163.192C580.991 164.76 581.807 165.936 583.441 166.72C585.139 167.504 587.753 168.288 591.281 169.072C595.331 170.117 598.631 171.163 601.179 172.208C603.727 173.188 605.948 174.821 607.843 177.108C609.803 179.329 610.815 182.335 610.881 186.124C610.881 189.325 609.966 192.2 608.137 194.748C606.373 197.231 603.792 199.191 600.395 200.628C597.063 202.065 593.175 202.784 588.733 202.784ZM699.525 202H682.767L654.739 159.566V202H637.981V133.204H654.739L682.767 175.834V133.204H699.525V202ZM761.26 173.776C761.26 175.344 761.162 176.977 760.966 178.676H723.04C723.302 182.073 724.38 184.687 726.274 186.516C728.234 188.28 730.619 189.162 733.428 189.162C737.61 189.162 740.517 187.398 742.15 183.87H759.986C759.072 187.463 757.406 190.697 754.988 193.572C752.636 196.447 749.664 198.701 746.07 200.334C742.477 201.967 738.459 202.784 734.016 202.784C728.659 202.784 723.89 201.641 719.708 199.354C715.527 197.067 712.26 193.801 709.908 189.554C707.556 185.307 706.38 180.342 706.38 174.658C706.38 168.974 707.524 164.009 709.81 159.762C712.162 155.515 715.429 152.249 719.61 149.962C723.792 147.675 728.594 146.532 734.016 146.532C739.308 146.532 744.012 147.643 748.128 149.864C752.244 152.085 755.446 155.254 757.732 159.37C760.084 163.486 761.26 168.288 761.26 173.776ZM744.11 169.366C744.11 166.491 743.13 164.205 741.17 162.506C739.21 160.807 736.76 159.958 733.82 159.958C731.011 159.958 728.626 160.775 726.666 162.408C724.772 164.041 723.596 166.361 723.138 169.366H744.11ZM800.481 202L789.995 186.81L781.175 202H763.045L781.077 174.07L762.555 147.316H781.371L791.857 162.408L800.677 147.316H818.807L800.481 174.854L819.297 202H800.481ZM854.272 187.79V202H845.746C839.67 202 834.933 200.53 831.536 197.59C828.139 194.585 826.44 189.717 826.44 182.988V161.232H819.776V147.316H826.44V133.988H843.198V147.316H854.174V161.232H843.198V183.184C843.198 184.817 843.59 185.993 844.374 186.712C845.158 187.431 846.465 187.79 848.294 187.79H854.272ZM869.487 202.784C866.547 202.784 864.129 201.935 862.235 200.236C860.405 198.472 859.491 196.316 859.491 193.768C859.491 191.155 860.405 188.966 862.235 187.202C864.129 185.438 866.547 184.556 869.487 184.556C872.361 184.556 874.713 185.438 876.543 187.202C878.437 188.966 879.385 191.155 879.385 193.768C879.385 196.316 878.437 198.472 876.543 200.236C874.713 201.935 872.361 202.784 869.487 202.784Z" fill="white"/>
</svg>
