<svg width="822" height="224" viewBox="0 0 822 224" fill="none" xmlns="http://www.w3.org/2000/svg">
<mask id="path-1-outside-1_267_2" maskUnits="userSpaceOnUse" x="2" y="10" width="668" height="194" fill="black">
<rect fill="white" x="2" y="10" width="668" height="194"/>
<path d="M51.744 42.96C50.5027 40.6733 48.706 38.942 46.354 37.766C44.0673 36.5247 41.356 35.904 38.22 35.904C32.7973 35.904 28.4527 37.7007 25.186 41.294C21.9193 44.822 20.286 49.5587 20.286 55.504C20.286 61.8413 21.9847 66.8067 25.382 70.4C28.8447 73.928 33.5813 75.692 39.592 75.692C43.708 75.692 47.1707 74.6467 49.98 72.556C52.8547 70.4653 54.9453 67.46 56.252 63.54H34.986V51.192H71.442V66.774C70.2007 70.9553 68.0773 74.8427 65.072 78.436C62.132 82.0293 58.3753 84.9367 53.802 87.158C49.2287 89.3793 44.0673 90.49 38.318 90.49C31.5233 90.49 25.4473 89.02 20.09 86.08C14.798 83.0747 10.6493 78.926 7.644 73.634C4.704 68.342 3.234 62.2987 3.234 55.504C3.234 48.7093 4.704 42.666 7.644 37.374C10.6493 32.0167 14.798 27.868 20.09 24.928C25.382 21.9227 31.4253 20.42 38.22 20.42C46.452 20.42 53.3773 22.4127 58.996 26.398C64.68 30.3833 68.4367 35.904 70.266 42.96H51.744ZM95.5224 44.43C97.4824 41.4247 99.9324 39.0727 102.872 37.374C105.812 35.61 109.079 34.728 112.672 34.728V52.466H108.066C103.885 52.466 100.749 53.3807 98.6584 55.21C96.5678 56.974 95.5224 60.11 95.5224 64.618V90H78.7644V35.316H95.5224V44.43ZM143.614 90.784C138.257 90.784 133.422 89.6407 129.11 87.354C124.864 85.0673 121.499 81.8007 119.016 77.554C116.599 73.3073 115.39 68.342 115.39 62.658C115.39 57.0393 116.632 52.1067 119.114 47.86C121.597 43.548 124.994 40.2487 129.306 37.962C133.618 35.6753 138.453 34.532 143.81 34.532C149.168 34.532 154.002 35.6753 158.314 37.962C162.626 40.2487 166.024 43.548 168.506 47.86C170.989 52.1067 172.23 57.0393 172.23 62.658C172.23 68.2767 170.956 73.242 168.408 77.554C165.926 81.8007 162.496 85.0673 158.118 87.354C153.806 89.6407 148.972 90.784 143.614 90.784ZM143.614 76.28C146.816 76.28 149.527 75.104 151.748 72.752C154.035 70.4 155.178 67.0353 155.178 62.658C155.178 58.2807 154.068 54.916 151.846 52.564C149.69 50.212 147.012 49.036 143.81 49.036C140.544 49.036 137.832 50.212 135.676 52.564C133.52 54.8507 132.442 58.2153 132.442 62.658C132.442 67.0353 133.488 70.4 135.578 72.752C137.734 75.104 140.413 76.28 143.614 76.28ZM257.659 35.316L242.861 90H224.339L215.715 54.524L206.797 90H188.373L173.477 35.316H190.235L197.977 74.418L207.189 35.316H224.927L234.237 74.222L241.881 35.316H257.659ZM375.565 21.204L357.631 90H337.345L326.369 44.724L315.001 90H294.715L277.271 21.204H295.205L305.103 71.282L317.353 21.204H335.777L347.537 71.282L357.533 21.204H375.565ZM390.437 29.632C387.497 29.632 385.08 28.7827 383.185 27.084C381.356 25.32 380.441 23.164 380.441 20.616C380.441 18.0027 381.356 15.8467 383.185 14.148C385.08 12.384 387.497 11.502 390.437 11.502C393.312 11.502 395.664 12.384 397.493 14.148C399.388 15.8467 400.335 18.0027 400.335 20.616C400.335 23.164 399.388 25.32 397.493 27.084C395.664 28.7827 393.312 29.632 390.437 29.632ZM398.767 35.316V90H382.009V35.316H398.767ZM439.43 75.79V90H430.904C424.828 90 420.091 88.53 416.694 85.59C413.296 82.5847 411.598 77.7173 411.598 70.988V49.232H404.934V35.316H411.598V21.988H428.356V35.316H439.332V49.232H428.356V71.184C428.356 72.8173 428.748 73.9933 429.532 74.712C430.316 75.4307 431.622 75.79 433.452 75.79H439.43ZM480.418 34.728C486.69 34.728 491.721 36.8187 495.51 41C499.3 45.116 501.194 50.8 501.194 58.052V90H484.534V60.306C484.534 56.6473 483.587 53.8053 481.692 51.78C479.798 49.7547 477.25 48.742 474.048 48.742C470.847 48.742 468.299 49.7547 466.404 51.78C464.51 53.8053 463.562 56.6473 463.562 60.306V90H446.804V17.48H463.562V42.666C465.261 40.2487 467.58 38.3213 470.52 36.884C473.46 35.4467 476.76 34.728 480.418 34.728ZM546.151 21.204V62.364C546.151 66.48 547.164 69.6487 549.189 71.87C551.214 74.0913 554.187 75.202 558.107 75.202C562.027 75.202 565.032 74.0913 567.123 71.87C569.214 69.6487 570.259 66.48 570.259 62.364V21.204H587.017V62.266C587.017 68.4073 585.71 73.6013 583.097 77.848C580.484 82.0947 576.956 85.296 572.513 87.452C568.136 89.608 563.236 90.686 557.813 90.686C552.39 90.686 547.523 89.6407 543.211 87.55C538.964 85.394 535.6 82.1927 533.117 77.946C530.634 73.634 529.393 68.4073 529.393 62.266V21.204H546.151ZM619.071 90.784C614.301 90.784 610.055 89.9673 606.331 88.334C602.607 86.7007 599.667 84.4793 597.511 81.67C595.355 78.7953 594.146 75.594 593.885 72.066H610.447C610.643 73.9607 611.525 75.496 613.093 76.672C614.661 77.848 616.588 78.436 618.875 78.436C620.965 78.436 622.566 78.044 623.677 77.26C624.853 76.4107 625.441 75.3327 625.441 74.026C625.441 72.458 624.624 71.3147 622.991 70.596C621.357 69.812 618.711 68.9627 615.053 68.048C611.133 67.1333 607.866 66.186 605.253 65.206C602.639 64.1607 600.385 62.56 598.491 60.404C596.596 58.1827 595.649 55.21 595.649 51.486C595.649 48.35 596.498 45.508 598.197 42.96C599.961 40.3467 602.509 38.2887 605.841 36.786C609.238 35.2833 613.256 34.532 617.895 34.532C624.755 34.532 630.145 36.2307 634.065 39.628C638.05 43.0253 640.337 47.5333 640.925 53.152H625.441C625.179 51.2573 624.33 49.7547 622.893 48.644C621.521 47.5333 619.691 46.978 617.405 46.978C615.445 46.978 613.942 47.37 612.897 48.154C611.851 48.8727 611.329 49.8853 611.329 51.192C611.329 52.76 612.145 53.936 613.779 54.72C615.477 55.504 618.091 56.288 621.619 57.072C625.669 58.1173 628.969 59.1627 631.517 60.208C634.065 61.188 636.286 62.8213 638.181 65.108C640.141 67.3293 641.153 70.3347 641.219 74.124C641.219 77.3253 640.304 80.2 638.475 82.748C636.711 85.2307 634.13 87.1907 630.733 88.628C627.401 90.0653 623.513 90.784 619.071 90.784ZM667.543 74.516L656.665 102.642H645.983L651.667 74.516H667.543ZM30.968 202.686C25.9373 202.686 21.4293 201.869 17.444 200.236C13.4587 198.603 10.2573 196.185 7.84 192.984C5.488 189.783 4.24667 185.928 4.116 181.42H21.952C22.2133 183.968 23.0953 185.928 24.598 187.3C26.1007 188.607 28.0607 189.26 30.478 189.26C32.9607 189.26 34.9207 188.705 36.358 187.594C37.7953 186.418 38.514 184.817 38.514 182.792C38.514 181.093 37.926 179.689 36.75 178.578C35.6393 177.467 34.2347 176.553 32.536 175.834C30.9027 175.115 28.5507 174.299 25.48 173.384C21.0373 172.012 17.4113 170.64 14.602 169.268C11.7927 167.896 9.37533 165.871 7.35 163.192C5.32467 160.513 4.312 157.018 4.312 152.706C4.312 146.303 6.63133 141.305 11.27 137.712C15.9087 134.053 21.952 132.224 29.4 132.224C36.9787 132.224 43.0873 134.053 47.726 137.712C52.3647 141.305 54.8473 146.336 55.174 152.804H37.044C36.9133 150.583 36.0967 148.851 34.594 147.61C33.0913 146.303 31.164 145.65 28.812 145.65C26.7867 145.65 25.1533 146.205 23.912 147.316C22.6707 148.361 22.05 149.897 22.05 151.922C22.05 154.143 23.0953 155.875 25.186 157.116C27.2767 158.357 30.5433 159.697 34.986 161.134C39.4287 162.637 43.022 164.074 45.766 165.446C48.5753 166.818 50.9927 168.811 53.018 171.424C55.0433 174.037 56.056 177.402 56.056 181.518C56.056 185.438 55.0433 188.999 53.018 192.2C51.058 195.401 48.1833 197.949 44.394 199.844C40.6047 201.739 36.1293 202.686 30.968 202.686ZM98.023 146.728C104.295 146.728 109.326 148.819 113.115 153C116.904 157.116 118.799 162.8 118.799 170.052V202H102.139V172.306C102.139 168.647 101.192 165.805 99.297 163.78C97.4023 161.755 94.8543 160.742 91.653 160.742C88.4516 160.742 85.9036 161.755 84.009 163.78C82.1143 165.805 81.167 168.647 81.167 172.306V202H64.409V129.48H81.167V154.666C82.8656 152.249 85.185 150.321 88.125 148.884C91.065 147.447 94.3643 146.728 98.023 146.728ZM136.912 141.632C133.972 141.632 131.555 140.783 129.66 139.084C127.831 137.32 126.916 135.164 126.916 132.616C126.916 130.003 127.831 127.847 129.66 126.148C131.555 124.384 133.972 123.502 136.912 123.502C139.787 123.502 142.139 124.384 143.968 126.148C145.863 127.847 146.81 130.003 146.81 132.616C146.81 135.164 145.863 137.32 143.968 139.084C142.139 140.783 139.787 141.632 136.912 141.632ZM145.242 147.316V202H128.484V147.316H145.242ZM188.746 146.728C195.149 146.728 200.245 148.819 204.034 153C207.889 157.116 209.816 162.8 209.816 170.052V202H193.156V172.306C193.156 168.647 192.209 165.805 190.314 163.78C188.42 161.755 185.872 160.742 182.67 160.742C179.469 160.742 176.921 161.755 175.026 163.78C173.132 165.805 172.184 168.647 172.184 172.306V202H155.426V147.316H172.184V154.568C173.883 152.151 176.17 150.256 179.044 148.884C181.919 147.447 185.153 146.728 188.746 146.728ZM271.05 173.776C271.05 175.344 270.952 176.977 270.756 178.676H232.83C233.091 182.073 234.169 184.687 236.064 186.516C238.024 188.28 240.408 189.162 243.218 189.162C247.399 189.162 250.306 187.398 251.94 183.87H269.776C268.861 187.463 267.195 190.697 264.778 193.572C262.426 196.447 259.453 198.701 255.86 200.334C252.266 201.967 248.248 202.784 243.806 202.784C238.448 202.784 233.679 201.641 229.498 199.354C225.316 197.067 222.05 193.801 219.698 189.554C217.346 185.307 216.17 180.342 216.17 174.658C216.17 168.974 217.313 164.009 219.6 159.762C221.952 155.515 225.218 152.249 229.4 149.962C233.581 147.675 238.383 146.532 243.806 146.532C249.098 146.532 253.802 147.643 257.918 149.864C262.034 152.085 265.235 155.254 267.522 159.37C269.874 163.486 271.05 168.288 271.05 173.776ZM253.9 169.366C253.9 166.491 252.92 164.205 250.96 162.506C249 160.807 246.55 159.958 243.61 159.958C240.8 159.958 238.416 160.775 236.456 162.408C234.561 164.041 233.385 166.361 232.928 169.366H253.9ZM391.406 133.204L373.472 202H353.186L342.21 156.724L330.842 202H310.556L293.112 133.204H311.046L320.944 183.282L333.194 133.204H351.618L363.378 183.282L373.374 133.204H391.406ZM406.278 141.632C403.338 141.632 400.921 140.783 399.026 139.084C397.197 137.32 396.282 135.164 396.282 132.616C396.282 130.003 397.197 127.847 399.026 126.148C400.921 124.384 403.338 123.502 406.278 123.502C409.153 123.502 411.505 124.384 413.334 126.148C415.229 127.847 416.176 130.003 416.176 132.616C416.176 135.164 415.229 137.32 413.334 139.084C411.505 140.783 409.153 141.632 406.278 141.632ZM414.608 147.316V202H397.85V147.316H414.608ZM455.27 187.79V202H446.744C440.668 202 435.932 200.53 432.534 197.59C429.137 194.585 427.438 189.717 427.438 182.988V161.232H420.774V147.316H427.438V133.988H444.196V147.316H455.172V161.232H444.196V183.184C444.196 184.817 444.588 185.993 445.372 186.712C446.156 187.431 447.463 187.79 449.292 187.79H455.27ZM496.259 146.728C502.531 146.728 507.562 148.819 511.351 153C515.14 157.116 517.035 162.8 517.035 170.052V202H500.375V172.306C500.375 168.647 499.428 165.805 497.533 163.78C495.638 161.755 493.09 160.742 489.889 160.742C486.688 160.742 484.14 161.755 482.245 163.78C480.35 165.805 479.403 168.647 479.403 172.306V202H462.645V129.48H479.403V154.666C481.102 152.249 483.421 150.321 486.361 148.884C489.301 147.447 492.6 146.728 496.259 146.728ZM561.992 133.204V174.364C561.992 178.48 563.004 181.649 565.03 183.87C567.055 186.091 570.028 187.202 573.948 187.202C577.868 187.202 580.873 186.091 582.964 183.87C585.054 181.649 586.1 178.48 586.1 174.364V133.204H602.858V174.266C602.858 180.407 601.551 185.601 598.938 189.848C596.324 194.095 592.796 197.296 588.354 199.452C583.976 201.608 579.076 202.686 573.654 202.686C568.231 202.686 563.364 201.641 559.052 199.55C554.805 197.394 551.44 194.193 548.958 189.946C546.475 185.634 545.234 180.407 545.234 174.266V133.204H561.992ZM634.911 202.784C630.142 202.784 625.895 201.967 622.171 200.334C618.447 198.701 615.507 196.479 613.351 193.67C611.195 190.795 609.987 187.594 609.725 184.066H626.287C626.483 185.961 627.365 187.496 628.933 188.672C630.501 189.848 632.429 190.436 634.715 190.436C636.806 190.436 638.407 190.044 639.517 189.26C640.693 188.411 641.281 187.333 641.281 186.026C641.281 184.458 640.465 183.315 638.831 182.596C637.198 181.812 634.552 180.963 630.893 180.048C626.973 179.133 623.707 178.186 621.093 177.206C618.48 176.161 616.226 174.56 614.331 172.404C612.437 170.183 611.489 167.21 611.489 163.486C611.489 160.35 612.339 157.508 614.037 154.96C615.801 152.347 618.349 150.289 621.681 148.786C625.079 147.283 629.097 146.532 633.735 146.532C640.595 146.532 645.985 148.231 649.905 151.628C653.891 155.025 656.177 159.533 656.765 165.152H641.281C641.02 163.257 640.171 161.755 638.733 160.644C637.361 159.533 635.532 158.978 633.245 158.978C631.285 158.978 629.783 159.37 628.737 160.154C627.692 160.873 627.169 161.885 627.169 163.192C627.169 164.76 627.986 165.936 629.619 166.72C631.318 167.504 633.931 168.288 637.459 169.072C641.51 170.117 644.809 171.163 647.357 172.208C649.905 173.188 652.127 174.821 654.021 177.108C655.981 179.329 656.994 182.335 657.059 186.124C657.059 189.325 656.145 192.2 654.315 194.748C652.551 197.231 649.971 199.191 646.573 200.628C643.241 202.065 639.354 202.784 634.911 202.784Z"/>
</mask>
<path d="M51.744 42.96L50.8651 43.4371L51.149 43.96H51.744V42.96ZM46.354 37.766L45.8769 38.6448L45.8917 38.6529L45.9068 38.6604L46.354 37.766ZM25.186 41.294L25.9198 41.9734L25.9259 41.9667L25.186 41.294ZM25.382 70.4L24.6554 71.087L24.6618 71.0938L24.6683 71.1005L25.382 70.4ZM49.98 72.556L49.3918 71.7472L49.383 71.7538L49.98 72.556ZM56.252 63.54L57.2007 63.8562L57.6394 62.54H56.252V63.54ZM34.986 63.54H33.986V64.54H34.986V63.54ZM34.986 51.192V50.192H33.986V51.192H34.986ZM71.442 51.192H72.442V50.192H71.442V51.192ZM71.442 66.774L72.4007 67.0586L72.442 66.9193V66.774H71.442ZM65.072 78.436L64.3049 77.7944L64.298 77.8028L65.072 78.436ZM53.802 87.158L53.3651 86.2585L53.802 87.158ZM20.09 86.08L19.5962 86.9496L19.6025 86.9532L19.6089 86.9567L20.09 86.08ZM7.644 73.634L6.7698 74.1197L6.77444 74.1278L7.644 73.634ZM7.644 37.374L6.77185 36.8847L6.76984 36.8884L7.644 37.374ZM20.09 24.928L20.5757 25.8022L20.5838 25.7976L20.09 24.928ZM58.996 26.398L58.4175 27.2137L58.4219 27.2168L58.996 26.398ZM70.266 42.96V43.96H71.5583L71.234 42.709L70.266 42.96ZM51.744 42.96L52.6229 42.4829C51.2827 40.0142 49.3344 38.1381 46.8012 36.8716L46.354 37.766L45.9068 38.6604C48.0776 39.7459 49.7227 41.3325 50.8651 43.4371L51.744 42.96ZM46.354 37.766L46.8311 36.8871C44.3707 35.5515 41.4886 34.904 38.22 34.904V35.904V36.904C41.2234 36.904 43.7639 37.4978 45.8769 38.6448L46.354 37.766ZM38.22 35.904V34.904C32.5521 34.904 27.9255 36.7939 24.4461 40.6213L25.186 41.294L25.9259 41.9667C28.9798 38.6074 33.0426 36.904 38.22 36.904V35.904ZM25.186 41.294L24.4522 40.6146C20.9763 44.3686 19.286 49.3692 19.286 55.504H20.286H21.286C21.286 49.7482 22.8624 45.2753 25.9198 41.9734L25.186 41.294ZM20.286 55.504H19.286C19.286 62.0221 21.0371 67.26 24.6554 71.087L25.382 70.4L26.1086 69.713C22.9322 66.3533 21.286 61.6605 21.286 55.504H20.286ZM25.382 70.4L24.6683 71.1005C28.3584 74.8602 33.3748 76.692 39.592 76.692V75.692V74.692C33.7878 74.692 29.3309 72.9958 26.0957 69.6995L25.382 70.4ZM39.592 75.692V76.692C43.8841 76.692 47.5663 75.5988 50.577 73.3582L49.98 72.556L49.383 71.7538C46.7751 73.6945 43.5319 74.692 39.592 74.692V75.692ZM49.98 72.556L50.5682 73.3647C53.6376 71.1324 55.8392 67.9408 57.2007 63.8562L56.252 63.54L55.3033 63.2238C54.0515 66.9792 52.0717 69.7983 49.3918 71.7473L49.98 72.556ZM56.252 63.54V62.54H34.986V63.54V64.54H56.252V63.54ZM34.986 63.54H35.986V51.192H34.986H33.986V63.54H34.986ZM34.986 51.192V52.192H71.442V51.192V50.192H34.986V51.192ZM71.442 51.192H70.442V66.774H71.442H72.442V51.192H71.442ZM71.442 66.774L70.4834 66.4894C69.2837 70.5305 67.2293 74.2979 64.3049 77.7944L65.072 78.436L65.8391 79.0776C68.9254 75.3874 71.1177 71.3802 72.4007 67.0586L71.442 66.774ZM65.072 78.436L64.298 77.8028C61.4582 81.2737 57.8207 84.0944 53.3651 86.2585L53.802 87.158L54.2389 88.0575C58.93 85.779 62.8058 82.785 65.846 79.0692L65.072 78.436ZM53.802 87.158L53.3651 86.2585C48.9448 88.4055 43.9359 89.49 38.318 89.49V90.49V91.49C44.1988 91.49 49.5126 90.3531 54.2389 88.0575L53.802 87.158ZM38.318 90.49V89.49C31.6723 89.49 25.765 88.0537 20.5711 85.2033L20.09 86.08L19.6089 86.9567C25.1296 89.9863 31.3743 91.49 38.318 91.49V90.49ZM20.09 86.08L20.5838 85.2104C15.4487 82.2942 11.4298 78.2753 8.51356 73.1402L7.644 73.634L6.77444 74.1278C9.86884 79.5767 14.1473 83.8552 19.5962 86.9496L20.09 86.08ZM7.644 73.634L8.51816 73.1484C5.67039 68.0224 4.234 62.1499 4.234 55.504H3.234H2.234C2.234 62.4474 3.73761 68.6616 6.76984 74.1196L7.644 73.634ZM3.234 55.504H4.234C4.234 48.8581 5.67039 42.9856 8.51816 37.8596L7.644 37.374L6.76984 36.8884C3.73761 42.3464 2.234 48.5606 2.234 55.504H3.234ZM7.644 37.374L8.51614 37.8633C11.4322 32.6651 15.4482 28.6508 20.5756 25.8022L20.09 24.928L19.6044 24.0538C14.1479 27.0852 9.86646 31.3683 6.77186 36.8848L7.644 37.374ZM20.09 24.928L20.5838 25.7976C25.7083 22.8873 31.5779 21.42 38.22 21.42V20.42V19.42C31.2728 19.42 25.0557 20.958 19.5962 24.0584L20.09 24.928ZM38.22 20.42V21.42C46.2861 21.42 52.9987 23.3701 58.4175 27.2136L58.996 26.398L59.5746 25.5823C53.7559 21.4552 46.6179 19.42 38.22 19.42V20.42ZM58.996 26.398L58.4219 27.2168C63.901 31.0584 67.5251 36.3725 69.298 43.211L70.266 42.96L71.234 42.709C69.3483 35.4355 65.459 29.7082 59.5701 25.5792L58.996 26.398ZM70.266 42.96V41.96H51.744V42.96V43.96H70.266V42.96ZM95.5224 44.43H94.5224V47.7939L96.36 44.9763L95.5224 44.43ZM102.872 37.374L103.373 38.2399L103.38 38.2357L103.387 38.2315L102.872 37.374ZM112.672 34.728H113.672V33.728H112.672V34.728ZM112.672 52.466V53.466H113.672V52.466H112.672ZM98.6584 55.21L99.3033 55.9743L99.3102 55.9685L99.3169 55.9626L98.6584 55.21ZM95.5224 90V91H96.5224V90H95.5224ZM78.7644 90H77.7644V91H78.7644V90ZM78.7644 35.316V34.316H77.7644V35.316H78.7644ZM95.5224 35.316H96.5224V34.316H95.5224V35.316ZM95.5224 44.43L96.36 44.9763C98.2393 42.0948 100.576 39.8555 103.373 38.2399L102.872 37.374L102.372 36.5081C99.2885 38.2898 96.7256 40.7545 94.6848 43.8837L95.5224 44.43ZM102.872 37.374L103.387 38.2315C106.164 36.5653 109.251 35.728 112.672 35.728V34.728V33.728C108.907 33.728 105.461 34.6547 102.358 36.5165L102.872 37.374ZM112.672 34.728H111.672V52.466H112.672H113.672V34.728H112.672ZM112.672 52.466V51.466H108.066V52.466V53.466H112.672V52.466ZM108.066 52.466V51.466C103.761 51.466 100.346 52.4049 97.9999 54.4574L98.6584 55.21L99.3169 55.9626C101.152 54.3565 104.009 53.466 108.066 53.466V52.466ZM98.6584 55.21L98.0136 54.4457C95.5862 56.4938 94.5224 60.0017 94.5224 64.618H95.5224H96.5224C96.5224 60.2183 97.5493 57.4542 99.3033 55.9743L98.6584 55.21ZM95.5224 64.618H94.5224V90H95.5224H96.5224V64.618H95.5224ZM95.5224 90V89H78.7644V90V91H95.5224V90ZM78.7644 90H79.7644V35.316H78.7644H77.7644V90H78.7644ZM78.7644 35.316V36.316H95.5224V35.316V34.316H78.7644V35.316ZM95.5224 35.316H94.5224V44.43H95.5224H96.5224V35.316H95.5224ZM129.11 87.354L128.636 88.2345L128.642 88.2375L129.11 87.354ZM119.016 77.554L118.147 78.0487L118.153 78.0587L119.016 77.554ZM119.114 47.86L119.978 48.3647L119.981 48.359L119.114 47.86ZM129.306 37.962L129.775 38.8455L129.306 37.962ZM158.314 37.962L157.846 38.8455L158.314 37.962ZM168.506 47.86L167.64 48.359L167.643 48.3647L168.506 47.86ZM168.408 77.554L167.547 77.0453L167.545 77.0493L168.408 77.554ZM158.118 87.354L157.655 86.4676L157.65 86.4705L158.118 87.354ZM151.748 72.752L151.031 72.0549L151.026 72.0601L151.021 72.0654L151.748 72.752ZM151.846 52.564L151.109 53.2397L151.114 53.2452L151.119 53.2506L151.846 52.564ZM135.676 52.564L136.404 53.2501L136.414 53.2397L135.676 52.564ZM135.578 72.752L134.831 73.4164L134.836 73.4221L134.841 73.4277L135.578 72.752ZM143.614 90.784V89.784C138.404 89.784 133.733 88.6734 129.579 86.4705L129.11 87.354L128.642 88.2375C133.112 90.6079 138.11 91.784 143.614 91.784V90.784ZM129.11 87.354L129.585 86.4735C125.503 84.2758 122.272 81.1407 119.88 77.0493L119.016 77.554L118.153 78.0587C120.727 82.4607 124.224 85.8589 128.636 88.2345L129.11 87.354ZM119.016 77.554L119.885 77.0593C117.567 72.9864 116.39 68.1971 116.39 62.658H115.39H114.39C114.39 68.4869 115.631 73.6283 118.147 78.0487L119.016 77.554ZM115.39 62.658H116.39C116.39 57.1911 117.597 52.4375 119.978 48.3647L119.114 47.86L118.251 47.3553C115.667 51.7758 114.39 56.8876 114.39 62.658H115.39ZM119.114 47.86L119.981 48.359C122.372 44.2067 125.633 41.0422 129.775 38.8455L129.306 37.962L128.838 37.0785C124.356 39.4552 120.822 42.8893 118.248 47.361L119.114 47.86ZM129.306 37.962L129.775 38.8455C133.929 36.6426 138.6 35.532 143.81 35.532V34.532V33.532C138.306 33.532 133.308 34.7081 128.838 37.0785L129.306 37.962ZM143.81 34.532V35.532C149.021 35.532 153.692 36.6426 157.846 38.8455L158.314 37.962L158.783 37.0785C154.313 34.7081 149.315 33.532 143.81 33.532V34.532ZM158.314 37.962L157.846 38.8455C161.988 41.0422 165.249 44.2067 167.64 48.359L168.506 47.86L169.373 47.361C166.798 42.8893 163.265 39.4552 158.783 37.0785L158.314 37.962ZM168.506 47.86L167.643 48.3647C170.024 52.4375 171.23 57.1911 171.23 62.658H172.23H173.23C173.23 56.8876 171.954 51.7758 169.37 47.3553L168.506 47.86ZM172.23 62.658H171.23C171.23 68.12 169.994 72.9055 167.547 77.0453L168.408 77.554L169.269 78.0627C171.919 73.5785 173.23 68.4333 173.23 62.658H172.23ZM168.408 77.554L167.545 77.0493C165.158 81.133 161.867 84.2677 157.655 86.4677L158.118 87.354L158.581 88.2403C163.125 85.867 166.694 82.4684 169.272 78.0587L168.408 77.554ZM158.118 87.354L157.65 86.4705C153.496 88.6734 148.825 89.784 143.614 89.784V90.784V91.784C149.119 91.784 154.117 90.6079 158.587 88.2375L158.118 87.354ZM143.614 76.28V77.28C147.094 77.28 150.067 75.9883 152.475 73.4386L151.748 72.752L151.021 72.0654C148.987 74.2197 146.537 75.28 143.614 75.28V76.28ZM151.748 72.752L152.465 73.4491C154.988 70.8548 156.178 67.2061 156.178 62.658H155.178H154.178C154.178 66.8645 153.083 69.9452 151.031 72.0549L151.748 72.752ZM155.178 62.658H156.178C156.178 58.1172 155.024 54.4725 152.573 51.8774L151.846 52.564L151.119 53.2506C153.111 55.3595 154.178 58.4442 154.178 62.658H155.178ZM151.846 52.564L152.584 51.8883C150.237 49.3289 147.291 48.036 143.81 48.036V49.036V50.036C146.733 50.036 149.143 51.0951 151.109 53.2397L151.846 52.564ZM143.81 49.036V48.036C140.271 48.036 137.29 49.3241 134.939 51.8883L135.676 52.564L136.414 53.2397C138.375 51.0999 140.816 50.036 143.81 50.036V49.036ZM135.676 52.564L134.949 51.878C132.557 54.415 131.442 58.066 131.442 62.658H132.442H133.442C133.442 58.3646 134.484 55.2863 136.404 53.25L135.676 52.564ZM132.442 62.658H131.442C131.442 67.1845 132.524 70.8206 134.831 73.4164L135.578 72.752L136.326 72.0876C134.452 69.9794 133.442 66.8862 133.442 62.658H132.442ZM135.578 72.752L134.841 73.4277C137.187 75.9871 140.134 77.28 143.614 77.28V76.28V75.28C140.692 75.28 138.281 74.2209 136.316 72.0763L135.578 72.752ZM257.659 35.316L258.624 35.5772L258.965 34.316H257.659V35.316ZM242.861 90V91H243.626L243.826 90.2612L242.861 90ZM224.339 90L223.367 90.2362L223.553 91H224.339V90ZM215.715 54.524L216.687 54.2878L214.745 54.2802L215.715 54.524ZM206.797 90V91H207.577L207.767 90.2438L206.797 90ZM188.373 90L187.408 90.2628L187.609 91H188.373V90ZM173.477 35.316V34.316H172.168L172.512 35.5788L173.477 35.316ZM190.235 35.316L191.216 35.1218L191.056 34.316H190.235V35.316ZM197.977 74.418L196.996 74.6122L198.95 74.6473L197.977 74.418ZM207.189 35.316V34.316H206.397L206.215 35.0867L207.189 35.316ZM224.927 35.316L225.899 35.0833L225.716 34.316H224.927V35.316ZM234.237 74.222L233.264 74.4547L235.218 74.4148L234.237 74.222ZM241.881 35.316V34.316H241.058L240.9 35.1232L241.881 35.316ZM257.659 35.316L256.694 35.0548L241.896 89.7388L242.861 90L243.826 90.2612L258.624 35.5772L257.659 35.316ZM242.861 90V89H224.339V90V91H242.861V90ZM224.339 90L225.311 89.7638L216.687 54.2878L215.715 54.524L214.743 54.7602L223.367 90.2362L224.339 90ZM215.715 54.524L214.745 54.2802L205.827 89.7562L206.797 90L207.767 90.2438L216.685 54.7678L215.715 54.524ZM206.797 90V89H188.373V90V91H206.797V90ZM188.373 90L189.338 89.7372L174.442 35.0532L173.477 35.316L172.512 35.5788L187.408 90.2628L188.373 90ZM173.477 35.316V36.316H190.235V35.316V34.316H173.477V35.316ZM190.235 35.316L189.254 35.5102L196.996 74.6122L197.977 74.418L198.958 74.2238L191.216 35.1218L190.235 35.316ZM197.977 74.418L198.95 74.6473L208.162 35.5453L207.189 35.316L206.215 35.0867L197.003 74.1887L197.977 74.418ZM207.189 35.316V36.316H224.927V35.316V34.316H207.189V35.316ZM224.927 35.316L223.954 35.5487L233.264 74.4547L234.237 74.222L235.209 73.9893L225.899 35.0833L224.927 35.316ZM234.237 74.222L235.218 74.4148L242.862 35.5088L241.881 35.316L240.9 35.1232L233.256 74.0292L234.237 74.222ZM241.881 35.316V36.316H257.659V35.316V34.316H241.881V35.316ZM375.565 21.204L376.533 21.4563L376.859 20.204H375.565V21.204ZM357.631 90V91H358.404L358.599 90.2523L357.631 90ZM337.345 90L336.373 90.2356L336.559 91H337.345V90ZM326.369 44.724L327.341 44.4884L325.399 44.4805L326.369 44.724ZM315.001 90V91H315.781L315.971 90.2435L315.001 90ZM294.715 90L293.746 90.2458L293.937 91H294.715V90ZM277.271 21.204V20.204H275.986L276.302 21.4498L277.271 21.204ZM295.205 21.204L296.186 21.0101L296.027 20.204H295.205V21.204ZM305.103 71.282L304.122 71.4759L306.074 71.5196L305.103 71.282ZM317.353 21.204V20.204H316.568L316.382 20.9664L317.353 21.204ZM335.777 21.204L336.751 20.9754L336.569 20.204H335.777V21.204ZM347.537 71.282L346.564 71.5106L348.518 71.4777L347.537 71.282ZM357.533 21.204V20.204H356.713L356.552 21.0083L357.533 21.204ZM375.565 21.204L374.597 20.9517L356.663 89.7477L357.631 90L358.599 90.2523L376.533 21.4563L375.565 21.204ZM357.631 90V89H337.345V90V91H357.631V90ZM337.345 90L338.317 89.7644L327.341 44.4884L326.369 44.724L325.397 44.9596L336.373 90.2356L337.345 90ZM326.369 44.724L325.399 44.4805L314.031 89.7565L315.001 90L315.971 90.2435L327.339 44.9675L326.369 44.724ZM315.001 90V89H294.715V90V91H315.001V90ZM294.715 90L295.684 89.7542L278.24 20.9582L277.271 21.204L276.302 21.4498L293.746 90.2458L294.715 90ZM277.271 21.204V22.204H295.205V21.204V20.204H277.271V21.204ZM295.205 21.204L294.224 21.3979L304.122 71.4759L305.103 71.282L306.084 71.0881L296.186 21.0101L295.205 21.204ZM305.103 71.282L306.074 71.5196L318.324 21.4416L317.353 21.204L316.382 20.9664L304.132 71.0444L305.103 71.282ZM317.353 21.204V22.204H335.777V21.204V20.204H317.353V21.204ZM335.777 21.204L334.804 21.4326L346.564 71.5106L347.537 71.282L348.511 71.0534L336.751 20.9754L335.777 21.204ZM347.537 71.282L348.518 71.4777L358.514 21.3997L357.533 21.204L356.552 21.0083L346.556 71.0863L347.537 71.282ZM357.533 21.204V22.204H375.565V21.204V20.204H357.533V21.204ZM383.185 27.084L382.491 27.8038L382.504 27.8164L382.518 27.8286L383.185 27.084ZM383.185 14.148L383.866 14.8808L383.867 14.8799L383.185 14.148ZM397.493 14.148L396.799 14.8678L396.812 14.8804L396.826 14.8926L397.493 14.148ZM397.493 27.084L398.174 27.8168L398.175 27.8159L397.493 27.084ZM398.767 35.316H399.767V34.316H398.767V35.316ZM398.767 90V91H399.767V90H398.767ZM382.009 90H381.009V91H382.009V90ZM382.009 35.316V34.316H381.009V35.316H382.009ZM390.437 29.632V28.632C387.703 28.632 385.536 27.8483 383.853 26.3394L383.185 27.084L382.518 27.8286C384.624 29.717 387.292 30.632 390.437 30.632V29.632ZM383.185 27.084L383.879 26.3642C382.246 24.7892 381.441 22.8933 381.441 20.616H380.441H379.441C379.441 23.4347 380.466 25.8508 382.491 27.8038L383.185 27.084ZM380.441 20.616H381.441C381.441 18.2661 382.251 16.3805 383.866 14.8808L383.185 14.148L382.505 13.4152C380.461 15.3128 379.441 17.7393 379.441 20.616H380.441ZM383.185 14.148L383.867 14.8799C385.551 13.3118 387.713 12.502 390.437 12.502V11.502V10.502C387.281 10.502 384.609 11.4562 382.504 13.4161L383.185 14.148ZM390.437 11.502V12.502C393.09 12.502 395.181 13.3076 396.799 14.8678L397.493 14.148L398.188 13.4282C396.147 11.4604 393.534 10.502 390.437 10.502V11.502ZM397.493 14.148L396.826 14.8926C398.502 16.3958 399.335 18.2781 399.335 20.616H400.335H401.335C401.335 17.7273 400.274 15.2975 398.161 13.4034L397.493 14.148ZM400.335 20.616H399.335C399.335 22.8814 398.507 24.7738 396.812 26.3521L397.493 27.084L398.175 27.8159C400.269 25.8662 401.335 23.4466 401.335 20.616H400.335ZM397.493 27.084L396.813 26.3512C395.197 27.8521 393.101 28.632 390.437 28.632V29.632V30.632C393.523 30.632 396.132 29.7132 398.174 27.8168L397.493 27.084ZM398.767 35.316H397.767V90H398.767H399.767V35.316H398.767ZM398.767 90V89H382.009V90V91H398.767V90ZM382.009 90H383.009V35.316H382.009H381.009V90H382.009ZM382.009 35.316V36.316H398.767V35.316V34.316H382.009V35.316ZM439.43 75.79H440.43V74.79H439.43V75.79ZM439.43 90V91H440.43V90H439.43ZM416.694 85.59L416.031 86.339L416.039 86.3462L416.694 85.59ZM411.598 49.232H412.598V48.232H411.598V49.232ZM404.934 49.232H403.934V50.232H404.934V49.232ZM404.934 35.316V34.316H403.934V35.316H404.934ZM411.598 35.316V36.316H412.598V35.316H411.598ZM411.598 21.988V20.988H410.598V21.988H411.598ZM428.356 21.988H429.356V20.988H428.356V21.988ZM428.356 35.316H427.356V36.316H428.356V35.316ZM439.332 35.316H440.332V34.316H439.332V35.316ZM439.332 49.232V50.232H440.332V49.232H439.332ZM428.356 49.232V48.232H427.356V49.232H428.356ZM429.532 74.712L428.856 75.4492V75.4492L429.532 74.712ZM439.43 75.79H438.43V90H439.43H440.43V75.79H439.43ZM439.43 90V89H430.904V90V91H439.43V90ZM430.904 90V89C424.983 89 420.508 87.5686 417.348 84.8338L416.694 85.59L416.039 86.3462C419.674 89.4914 424.673 91 430.904 91V90ZM416.694 85.59L417.356 84.841C414.26 82.1019 412.598 77.5711 412.598 70.988H411.598H410.598C410.598 77.8636 412.333 83.0674 416.031 86.339L416.694 85.59ZM411.598 70.988H412.598V49.232H411.598H410.598V70.988H411.598ZM411.598 49.232V48.232H404.934V49.232V50.232H411.598V49.232ZM404.934 49.232H405.934V35.316H404.934H403.934V49.232H404.934ZM404.934 35.316V36.316H411.598V35.316V34.316H404.934V35.316ZM411.598 35.316H412.598V21.988H411.598H410.598V35.316H411.598ZM411.598 21.988V22.988H428.356V21.988V20.988H411.598V21.988ZM428.356 21.988H427.356V35.316H428.356H429.356V21.988H428.356ZM428.356 35.316V36.316H439.332V35.316V34.316H428.356V35.316ZM439.332 35.316H438.332V49.232H439.332H440.332V35.316H439.332ZM439.332 49.232V48.232H428.356V49.232V50.232H439.332V49.232ZM428.356 49.232H427.356V71.184H428.356H429.356V49.232H428.356ZM428.356 71.184H427.356C427.356 72.9486 427.776 74.4596 428.856 75.4492L429.532 74.712L430.207 73.9748C429.719 73.5271 429.356 72.686 429.356 71.184H428.356ZM429.532 74.712L428.856 75.4492C429.918 76.4228 431.538 76.79 433.452 76.79V75.79V74.79C431.707 74.79 430.713 74.4385 430.207 73.9748L429.532 74.712ZM433.452 75.79V76.79H439.43V75.79V74.79H433.452V75.79ZM495.51 41L494.769 41.6715L494.775 41.6773L495.51 41ZM501.194 90V91H502.194V90H501.194ZM484.534 90H483.534V91H484.534V90ZM481.692 51.78L480.962 52.4632V52.4632L481.692 51.78ZM466.404 51.78L467.134 52.4632V52.4632L466.404 51.78ZM463.562 90V91H464.562V90H463.562ZM446.804 90H445.804V91H446.804V90ZM446.804 17.48V16.48H445.804V17.48H446.804ZM463.562 17.48H464.562V16.48H463.562V17.48ZM463.562 42.666H462.562V45.8284L464.38 43.2409L463.562 42.666ZM470.52 36.884L470.081 35.9856L470.52 36.884ZM480.418 34.728V35.728C486.443 35.728 491.192 37.724 494.769 41.6715L495.51 41L496.251 40.3285C492.25 35.9134 486.937 33.728 480.418 33.728V34.728ZM495.51 41L494.775 41.6773C498.348 45.5592 500.194 50.9743 500.194 58.052H501.194H502.194C502.194 50.6257 500.251 44.6728 496.246 40.3227L495.51 41ZM501.194 58.052H500.194V90H501.194H502.194V58.052H501.194ZM501.194 90V89H484.534V90V91H501.194V90ZM484.534 90H485.534V60.306H484.534H483.534V90H484.534ZM484.534 60.306H485.534C485.534 56.4768 484.54 53.3603 482.422 51.0968L481.692 51.78L480.962 52.4632C482.634 54.2503 483.534 56.8179 483.534 60.306H484.534ZM481.692 51.78L482.422 51.0968C480.309 48.8376 477.48 47.742 474.048 47.742V48.742V49.742C477.02 49.742 479.286 50.6717 480.962 52.4632L481.692 51.78ZM474.048 48.742V47.742C470.617 47.742 467.787 48.8376 465.674 51.0968L466.404 51.78L467.134 52.4632C468.81 50.6717 471.077 49.742 474.048 49.742V48.742ZM466.404 51.78L465.674 51.0968C463.556 53.3603 462.562 56.4768 462.562 60.306H463.562H464.562C464.562 56.8179 465.463 54.2503 467.134 52.4632L466.404 51.78ZM463.562 60.306H462.562V90H463.562H464.562V60.306H463.562ZM463.562 90V89H446.804V90V91H463.562V90ZM446.804 90H447.804V17.48H446.804H445.804V90H446.804ZM446.804 17.48V18.48H463.562V17.48V16.48H446.804V17.48ZM463.562 17.48H462.562V42.666H463.562H464.562V17.48H463.562ZM463.562 42.666L464.38 43.2409C465.972 40.9761 468.154 39.1537 470.959 37.7824L470.52 36.884L470.081 35.9856C467.006 37.4889 464.55 39.5212 462.744 42.0911L463.562 42.666ZM470.52 36.884L470.959 37.7824C473.747 36.4194 476.894 35.728 480.418 35.728V34.728V33.728C476.625 33.728 473.173 34.4739 470.081 35.9856L470.52 36.884ZM546.151 21.204H547.151V20.204H546.151V21.204ZM549.189 71.87L548.45 72.5438L549.189 71.87ZM567.123 71.87L567.851 72.5554L567.123 71.87ZM570.259 21.204V20.204H569.259V21.204H570.259ZM587.017 21.204H588.017V20.204H587.017V21.204ZM583.097 77.848L583.949 78.3721V78.3721L583.097 77.848ZM572.513 87.452L572.076 86.5523L572.071 86.5549L572.513 87.452ZM543.211 87.55L542.758 88.4417L542.766 88.4458L542.775 88.4498L543.211 87.55ZM533.117 77.946L532.25 78.445L532.254 78.4507L533.117 77.946ZM529.393 21.204V20.204H528.393V21.204H529.393ZM546.151 21.204H545.151V62.364H546.151H547.151V21.204H546.151ZM546.151 62.364H545.151C545.151 66.6364 546.203 70.0795 548.45 72.5438L549.189 71.87L549.928 71.1962C548.124 69.2178 547.151 66.3236 547.151 62.364H546.151ZM549.189 71.87L548.45 72.5438C550.718 75.0314 553.996 76.202 558.107 76.202V75.202V74.202C554.378 74.202 551.71 73.1512 549.928 71.1962L549.189 71.87ZM558.107 75.202V76.202C562.22 76.202 565.521 75.0309 567.851 72.5554L567.123 71.87L566.395 71.1846C564.543 73.1518 561.834 74.202 558.107 74.202V75.202ZM567.123 71.87L567.851 72.5554C570.17 70.0916 571.259 66.644 571.259 62.364H570.259H569.259C569.259 66.316 568.257 69.2057 566.395 71.1846L567.123 71.87ZM570.259 62.364H571.259V21.204H570.259H569.259V62.364H570.259ZM570.259 21.204V22.204H587.017V21.204V20.204H570.259V21.204ZM587.017 21.204H586.017V62.266H587.017H588.017V21.204H587.017ZM587.017 62.266H586.017C586.017 68.2651 584.741 73.2677 582.245 77.3239L583.097 77.848L583.949 78.3721C586.679 73.935 588.017 68.5496 588.017 62.266H587.017ZM583.097 77.848L582.245 77.3239C579.731 81.4101 576.346 84.4803 572.076 86.5523L572.513 87.452L572.95 88.3517C577.565 86.1117 581.237 82.7792 583.949 78.3721L583.097 77.848ZM572.513 87.452L572.071 86.5549C567.846 88.636 563.1 89.686 557.813 89.686V90.686V91.686C563.372 91.686 568.425 90.58 572.955 88.3491L572.513 87.452ZM557.813 90.686V89.686C552.521 89.686 547.806 88.6667 543.647 86.6502L543.211 87.55L542.775 88.4498C547.24 90.6146 552.259 91.686 557.813 91.686V90.686ZM543.211 87.55L543.664 86.6583C539.594 84.5922 536.369 81.528 533.98 77.4413L533.117 77.946L532.254 78.4507C534.83 82.8573 538.335 86.1958 542.758 88.4417L543.211 87.55ZM533.117 77.946L533.984 77.447C531.607 73.3186 530.393 68.2729 530.393 62.266H529.393H528.393C528.393 68.5418 529.662 73.9494 532.25 78.445L533.117 77.946ZM529.393 62.266H530.393V21.204H529.393H528.393V62.266H529.393ZM529.393 21.204V22.204H546.151V21.204V20.204H529.393V21.204ZM606.331 88.334L606.732 87.4182L606.331 88.334ZM597.511 81.67L596.711 82.27L596.717 82.2788L597.511 81.67ZM593.885 72.066V71.066H592.808L592.887 72.1399L593.885 72.066ZM610.447 72.066L611.441 71.9631L611.349 71.066H610.447V72.066ZM613.093 76.672L613.693 75.872L613.093 76.672ZM623.677 77.26L624.253 78.077L624.262 78.0707L623.677 77.26ZM622.991 70.596L622.558 71.4975L622.573 71.5047L622.588 71.5113L622.991 70.596ZM615.053 68.048L615.295 67.0779L615.287 67.076L615.28 67.0742L615.053 68.048ZM605.253 65.206L604.881 66.1345L604.891 66.1385L604.901 66.1423L605.253 65.206ZM598.491 60.404L597.73 61.0529L597.735 61.0586L597.739 61.0641L598.491 60.404ZM598.197 42.96L597.368 42.4005L597.365 42.4053L598.197 42.96ZM605.841 36.786L605.436 35.8714L605.43 35.8744L605.841 36.786ZM634.065 39.628L633.41 40.3837L633.416 40.389L634.065 39.628ZM640.925 53.152V54.152H642.035L641.919 53.0479L640.925 53.152ZM625.441 53.152L624.45 53.2886L624.569 54.152H625.441V53.152ZM622.893 48.644L622.263 49.4212L622.272 49.4284L622.281 49.4353L622.893 48.644ZM612.897 48.154L613.463 48.978L613.48 48.9664L613.497 48.954L612.897 48.154ZM613.779 54.72L613.346 55.6215L613.353 55.6248L613.36 55.628L613.779 54.72ZM621.619 57.072L621.868 56.1037L621.852 56.0995L621.836 56.0958L621.619 57.072ZM631.517 60.208L631.137 61.1332L631.147 61.1374L631.158 61.1413L631.517 60.208ZM638.181 65.108L637.411 65.746L637.42 65.758L637.431 65.7696L638.181 65.108ZM641.219 74.124H642.219V74.1154L642.218 74.1068L641.219 74.124ZM638.475 82.748L637.662 82.1648L637.659 82.1688L638.475 82.748ZM630.733 88.628L630.343 87.707L630.336 87.7098L630.733 88.628ZM619.071 90.784V89.784C614.416 89.784 610.31 88.9872 606.732 87.4182L606.331 88.334L605.929 89.2498C609.8 90.9474 614.187 91.784 619.071 91.784V90.784ZM606.331 88.334L606.732 87.4182C603.139 85.8424 600.343 83.7181 598.304 81.0612L597.511 81.67L596.717 82.2788C598.99 85.2405 602.074 87.5589 605.929 89.2498L606.331 88.334ZM597.511 81.67L598.311 81.07C596.267 78.3457 595.129 75.3263 594.882 71.9921L593.885 72.066L592.887 72.1399C593.163 75.8616 594.442 79.245 596.711 82.27L597.511 81.67ZM593.885 72.066V73.066H610.447V72.066V71.066H593.885V72.066ZM610.447 72.066L609.452 72.1689C609.677 74.3498 610.709 76.1343 612.493 77.472L613.093 76.672L613.693 75.872C612.34 74.8577 611.608 73.5716 611.441 71.9631L610.447 72.066ZM613.093 76.672L612.493 77.472C614.261 78.7986 616.409 79.436 618.875 79.436V78.436V77.436C616.767 77.436 615.06 76.8974 613.693 75.872L613.093 76.672ZM618.875 78.436V79.436C621.068 79.436 622.905 79.0285 624.253 78.077L623.677 77.26L623.1 76.443C622.227 77.0595 620.863 77.436 618.875 77.436V78.436ZM623.677 77.26L624.262 78.0707C625.665 77.0574 626.441 75.6927 626.441 74.026H625.441H624.441C624.441 74.9726 624.04 75.764 623.091 76.4493L623.677 77.26ZM625.441 74.026H626.441C626.441 73.0588 626.185 72.172 625.642 71.4113C625.104 70.6588 624.331 70.0931 623.393 69.6807L622.991 70.596L622.588 71.5113C623.284 71.8175 623.735 72.1829 624.014 72.5737C624.288 72.9563 624.441 73.4252 624.441 74.026H625.441ZM622.991 70.596L623.423 69.6945C621.694 68.8642 618.965 67.9953 615.295 67.0779L615.053 68.048L614.81 69.0181C618.458 69.93 621.021 70.7598 622.558 71.4975L622.991 70.596ZM615.053 68.048L615.28 67.0742C611.385 66.1654 608.163 65.2295 605.604 64.2697L605.253 65.206L604.901 66.1423C607.569 67.1425 610.88 68.1012 614.825 69.0218L615.053 68.048ZM605.253 65.206L605.624 64.2775C603.16 63.2917 601.035 61.7842 599.242 59.7439L598.491 60.404L597.739 61.0641C599.736 63.3358 602.119 65.0296 604.881 66.1345L605.253 65.206ZM598.491 60.404L599.251 59.7551C597.55 57.76 596.649 55.0393 596.649 51.486H595.649H594.649C594.649 55.3807 595.642 58.6053 597.73 61.0529L598.491 60.404ZM595.649 51.486H596.649C596.649 48.5424 597.442 45.8943 599.029 43.5147L598.197 42.96L597.365 42.4053C595.554 45.1217 594.649 48.1576 594.649 51.486H595.649ZM598.197 42.96L599.025 43.5195C600.67 41.0832 603.062 39.1363 606.252 37.6976L605.841 36.786L605.43 35.8744C601.956 37.441 599.251 39.6101 597.368 42.4005L598.197 42.96ZM605.841 36.786L606.245 37.7005C609.488 36.2664 613.362 35.532 617.895 35.532V34.532V33.532C613.15 33.532 608.988 34.3003 605.436 35.8715L605.841 36.786ZM617.895 34.532V35.532C624.593 35.532 629.723 37.1888 633.41 40.3837L634.065 39.628L634.72 38.8723C630.566 35.2725 624.917 33.532 617.895 33.532V34.532ZM634.065 39.628L633.416 40.389C637.19 43.606 639.366 47.8706 639.93 53.2561L640.925 53.152L641.919 53.0479C641.307 47.196 638.91 42.4446 634.713 38.867L634.065 39.628ZM640.925 53.152V52.152H625.441V53.152V54.152H640.925V53.152ZM625.441 53.152L626.431 53.0154C626.136 50.8765 625.16 49.1327 623.504 47.8527L622.893 48.644L622.281 49.4353C623.499 50.3766 624.222 51.6382 624.45 53.2886L625.441 53.152ZM622.893 48.644L623.522 47.8668C621.925 46.5741 619.852 45.978 617.405 45.978V46.978V47.978C619.531 47.978 621.116 48.4926 622.263 49.4212L622.893 48.644ZM617.405 46.978V45.978C615.331 45.978 613.582 46.3897 612.297 47.354L612.897 48.154L613.497 48.954C614.302 48.3503 615.558 47.978 617.405 47.978V46.978ZM612.897 48.154L612.33 47.33C611.004 48.2418 610.329 49.5679 610.329 51.192H611.329H612.329C612.329 50.2028 612.699 49.5036 613.463 48.978L612.897 48.154ZM611.329 51.192H610.329C610.329 52.1596 610.584 53.049 611.12 53.8204C611.65 54.5835 612.414 55.1742 613.346 55.6215L613.779 54.72L614.211 53.8185C613.51 53.4818 613.049 53.0925 612.762 52.6796C612.482 52.275 612.329 51.7924 612.329 51.192H611.329ZM613.779 54.72L613.36 55.628C615.158 56.458 617.856 57.2602 621.402 58.0482L621.619 57.072L621.836 56.0958C618.325 55.3158 615.797 54.55 614.198 53.812L613.779 54.72ZM621.619 57.072L621.369 58.0403C625.395 59.0794 628.647 60.1116 631.137 61.1332L631.517 60.208L631.896 59.2828C629.29 58.2138 625.943 57.1553 621.868 56.1037L621.619 57.072ZM631.517 60.208L631.158 61.1413C633.532 62.0545 635.615 63.5795 637.411 65.746L638.181 65.108L638.951 64.47C636.956 62.0632 634.597 60.3215 631.876 59.2747L631.517 60.208ZM638.181 65.108L637.431 65.7696C639.194 67.7676 640.156 70.5216 640.219 74.1412L641.219 74.124L642.218 74.1068C642.15 70.1477 641.088 66.8911 638.93 64.4464L638.181 65.108ZM641.219 74.124H640.219C640.219 77.1207 639.367 79.7905 637.662 82.1648L638.475 82.748L639.287 83.3312C641.241 80.6095 642.219 77.53 642.219 74.124H641.219ZM638.475 82.748L637.659 82.1688C636.024 84.4711 633.606 86.3266 630.343 87.707L630.733 88.628L631.122 89.549C634.654 88.0547 637.398 85.9902 639.29 83.3272L638.475 82.748ZM630.733 88.628L630.336 87.7098C627.154 89.0825 623.407 89.784 619.071 89.784V90.784V91.784C623.62 91.784 627.647 91.0482 631.129 89.5462L630.733 88.628ZM667.543 74.516L668.476 74.8767L669.002 73.516H667.543V74.516ZM656.665 102.642V103.642H657.35L657.598 103.003L656.665 102.642ZM645.983 102.642L645.003 102.444L644.761 103.642H645.983V102.642ZM651.667 74.516V73.516H650.849L650.687 74.3179L651.667 74.516ZM667.543 74.516L666.61 74.1553L655.732 102.281L656.665 102.642L657.598 103.003L668.476 74.8767L667.543 74.516ZM656.665 102.642V101.642H645.983V102.642V103.642H656.665V102.642ZM645.983 102.642L646.963 102.84L652.647 74.7141L651.667 74.516L650.687 74.3179L645.003 102.444L645.983 102.642ZM651.667 74.516V75.516H667.543V74.516V73.516H651.667V74.516ZM17.444 200.236L17.0648 201.161L17.444 200.236ZM7.84 192.984L7.03405 193.576L7.04196 193.587L7.84 192.984ZM4.116 181.42V180.42H3.08659L3.11642 181.449L4.116 181.42ZM21.952 181.42L22.9468 181.318L22.8547 180.42H21.952V181.42ZM24.598 187.3L23.9237 188.038L23.9327 188.047L23.9418 188.055L24.598 187.3ZM36.358 187.594L36.9694 188.385L36.9805 188.377L36.9912 188.368L36.358 187.594ZM36.75 178.578L36.0429 179.285L36.053 179.295L36.0634 179.305L36.75 178.578ZM32.536 175.834L32.1333 176.749L32.1398 176.752L32.1464 176.755L32.536 175.834ZM25.48 173.384L25.1849 174.34L25.1945 174.342L25.48 173.384ZM14.602 169.268L14.1632 170.167L14.602 169.268ZM7.35 163.192L8.14766 162.589L7.35 163.192ZM11.27 137.712L11.8824 138.503L11.8893 138.497L11.27 137.712ZM47.726 137.712L47.1067 138.497L47.1136 138.503L47.726 137.712ZM55.174 152.804V153.804H56.2258L56.1727 152.754L55.174 152.804ZM37.044 152.804L36.0457 152.863L36.1011 153.804H37.044V152.804ZM34.594 147.61L33.9378 148.365L33.9474 148.373L33.9571 148.381L34.594 147.61ZM23.912 147.316L24.5561 148.081L24.5676 148.071L24.5788 148.061L23.912 147.316ZM25.186 157.116L25.6965 156.256L25.186 157.116ZM34.986 161.134L35.3064 160.187L35.2938 160.183L34.986 161.134ZM45.766 165.446L45.3188 166.34L45.3272 166.345L45.766 165.446ZM53.018 171.424L52.2276 172.037L53.018 171.424ZM53.018 192.2L52.1729 191.665L52.169 191.672L52.1651 191.678L53.018 192.2ZM44.394 199.844L43.9468 198.95L44.394 199.844ZM30.968 202.686V201.686C26.0459 201.686 21.6698 200.887 17.8232 199.311L17.444 200.236L17.0648 201.161C21.1889 202.852 25.8288 203.686 30.968 203.686V202.686ZM17.444 200.236L17.8232 199.311C13.9912 197.74 10.9393 195.429 8.63804 192.381L7.84 192.984L7.04196 193.587C9.57539 196.942 12.9261 199.465 17.0648 201.161L17.444 200.236ZM7.84 192.984L8.64588 192.392C6.42995 189.376 5.24119 185.724 5.11558 181.391L4.116 181.42L3.11642 181.449C3.25215 186.132 4.54605 190.19 7.03412 193.576L7.84 192.984ZM4.116 181.42V182.42H21.952V181.42V180.42H4.116V181.42ZM21.952 181.42L20.9572 181.522C21.2369 184.249 22.1963 186.461 23.9237 188.038L24.598 187.3L25.2723 186.562C23.9943 185.395 23.1898 183.687 22.9468 181.318L21.952 181.42ZM24.598 187.3L23.9418 188.055C25.6634 189.552 27.8734 190.26 30.478 190.26V189.26V188.26C28.2479 188.26 26.5379 187.662 25.2542 186.545L24.598 187.3ZM30.478 189.26V190.26C33.1018 190.26 35.3027 189.673 36.9694 188.385L36.358 187.594L35.7466 186.803C34.5387 187.736 32.8196 188.26 30.478 188.26V189.26ZM36.358 187.594L36.9912 188.368C38.6836 186.983 39.514 185.086 39.514 182.792H38.514H37.514C37.514 184.548 36.907 185.853 35.7248 186.82L36.358 187.594ZM38.514 182.792H39.514C39.514 180.834 38.8236 179.161 37.4366 177.851L36.75 178.578L36.0634 179.305C37.0284 180.216 37.514 181.353 37.514 182.792H38.514ZM36.75 178.578L37.4571 177.871C36.241 176.655 34.7226 175.673 32.9256 174.913L32.536 175.834L32.1464 176.755C33.7468 177.432 35.0377 178.28 36.0429 179.285L36.75 178.578ZM32.536 175.834L32.9387 174.919C31.2486 174.175 28.85 173.344 25.7655 172.426L25.48 173.384L25.1945 174.342C28.2513 175.253 30.5568 176.056 32.1333 176.749L32.536 175.834ZM25.48 173.384L25.7751 172.429C21.3604 171.065 17.7873 169.711 15.0408 168.369L14.602 169.268L14.1632 170.167C17.0353 171.569 20.7143 172.959 25.1849 174.339L25.48 173.384ZM14.602 169.268L15.0408 168.369C12.383 167.071 10.0854 165.152 8.14766 162.589L7.35 163.192L6.55234 163.795C8.66523 166.59 11.2023 168.721 14.1632 170.167L14.602 169.268ZM7.35 163.192L8.14766 162.589C6.28678 160.128 5.312 156.863 5.312 152.706H4.312H3.312C3.312 157.173 4.36255 160.899 6.55234 163.795L7.35 163.192ZM4.312 152.706H5.312C5.312 146.58 7.51277 141.887 11.8824 138.503L11.27 137.712L10.6576 136.921C5.74989 140.723 3.312 146.026 3.312 152.706H4.312ZM11.27 137.712L11.8893 138.497C16.3098 135.011 22.117 133.224 29.4 133.224V132.224V131.224C21.787 131.224 15.5075 133.096 10.6507 136.927L11.27 137.712ZM29.4 132.224V133.224C36.8183 133.224 42.6891 135.013 47.1067 138.497L47.726 137.712L48.3453 136.927C43.4856 133.094 37.139 131.224 29.4 131.224V132.224ZM47.726 137.712L47.1136 138.503C51.4961 141.897 53.8616 146.644 54.1753 152.854L55.174 152.804L56.1727 152.754C55.8331 146.028 53.2332 140.713 48.3384 136.921L47.726 137.712ZM55.174 152.804V151.804H37.044V152.804V153.804H55.174V152.804ZM37.044 152.804L38.0423 152.745C37.8978 150.29 36.9789 148.283 35.2309 146.839L34.594 147.61L33.9571 148.381C35.2144 149.42 35.9288 150.876 36.0457 152.863L37.044 152.804ZM34.594 147.61L35.2502 146.855C33.5336 145.363 31.3591 144.65 28.812 144.65V145.65V146.65C30.9689 146.65 32.6491 147.244 33.9378 148.365L34.594 147.61ZM28.812 145.65V144.65C26.5963 144.65 24.7075 145.262 23.2452 146.571L23.912 147.316L24.5788 148.061C25.5991 147.148 26.977 146.65 28.812 146.65V145.65ZM23.912 147.316L23.2679 146.551C21.7464 147.832 21.05 149.681 21.05 151.922H22.05H23.05C23.05 150.112 23.5949 148.89 24.5561 148.081L23.912 147.316ZM22.05 151.922H21.05C21.05 154.535 22.316 156.575 24.6755 157.976L25.186 157.116L25.6965 156.256C23.8747 155.174 23.05 153.752 23.05 151.922H22.05ZM25.186 157.116L24.6755 157.976C26.8643 159.275 30.2168 160.642 34.6782 162.085L34.986 161.134L35.2938 160.183C30.8698 158.751 27.689 157.439 25.6965 156.256L25.186 157.116ZM34.986 161.134L34.6656 162.081C39.085 163.576 42.6312 164.997 45.3188 166.34L45.766 165.446L46.2132 164.552C43.4128 163.151 39.7724 161.697 35.3064 160.187L34.986 161.134ZM45.766 165.446L45.3272 166.345C47.9911 167.646 50.2905 169.537 52.2276 172.037L53.018 171.424L53.8084 170.811C51.6949 168.084 49.1596 165.99 46.2048 164.547L45.766 165.446ZM53.018 171.424L52.2276 172.037C54.0866 174.435 55.056 177.568 55.056 181.518H56.056H57.056C57.056 177.236 56 173.639 53.8084 170.811L53.018 171.424ZM56.056 181.518H55.056C55.056 185.256 54.0934 188.63 52.1729 191.665L53.018 192.2L53.8631 192.735C55.9933 189.368 57.056 185.62 57.056 181.518H56.056ZM53.018 192.2L52.1651 191.678C50.315 194.7 47.5909 197.128 43.9468 198.95L44.394 199.844L44.8412 200.738C48.7758 198.771 51.801 196.103 53.8709 192.722L53.018 192.2ZM44.394 199.844L43.9468 198.95C40.3234 200.761 36.0075 201.686 30.968 201.686V202.686V203.686C36.2512 203.686 40.886 202.716 44.8412 200.738L44.394 199.844ZM113.115 153L112.374 153.672L112.379 153.677L113.115 153ZM118.799 202V203H119.799V202H118.799ZM102.139 202H101.139V203H102.139V202ZM99.297 163.78L98.5667 164.463L99.297 163.78ZM84.009 163.78L84.7392 164.463L84.009 163.78ZM81.167 202V203H82.167V202H81.167ZM64.409 202H63.409V203H64.409V202ZM64.409 129.48V128.48H63.409V129.48H64.409ZM81.167 129.48H82.167V128.48H81.167V129.48ZM81.167 154.666H80.167V157.828L81.9852 155.241L81.167 154.666ZM88.125 148.884L87.6858 147.986L88.125 148.884ZM98.023 146.728V147.728C104.048 147.728 108.797 149.724 112.374 153.672L113.115 153L113.856 152.328C109.855 147.913 104.542 145.728 98.023 145.728V146.728ZM113.115 153L112.379 153.677C115.953 157.559 117.799 162.974 117.799 170.052H118.799H119.799C119.799 162.626 117.856 156.673 113.851 152.323L113.115 153ZM118.799 170.052H117.799V202H118.799H119.799V170.052H118.799ZM118.799 202V201H102.139V202V203H118.799V202ZM102.139 202H103.139V172.306H102.139H101.139V202H102.139ZM102.139 172.306H103.139C103.139 168.477 102.145 165.36 100.027 163.097L99.297 163.78L98.5667 164.463C100.239 166.25 101.139 168.818 101.139 172.306H102.139ZM99.297 163.78L100.027 163.097C97.9138 160.838 95.0843 159.742 91.653 159.742V160.742V161.742C94.6243 161.742 96.8909 162.672 98.5667 164.463L99.297 163.78ZM91.653 160.742V159.742C88.2216 159.742 85.3922 160.838 83.2787 163.097L84.009 163.78L84.7392 164.463C86.4151 162.672 88.6817 161.742 91.653 161.742V160.742ZM84.009 163.78L83.2787 163.097C81.1612 165.36 80.167 168.477 80.167 172.306H81.167H82.167C82.167 168.818 83.0674 166.25 84.7392 164.463L84.009 163.78ZM81.167 172.306H80.167V202H81.167H82.167V172.306H81.167ZM81.167 202V201H64.409V202V203H81.167V202ZM64.409 202H65.409V129.48H64.409H63.409V202H64.409ZM64.409 129.48V130.48H81.167V129.48V128.48H64.409V129.48ZM81.167 129.48H80.167V154.666H81.167H82.167V129.48H81.167ZM81.167 154.666L81.9852 155.241C83.5767 152.976 85.7591 151.154 88.5642 149.782L88.125 148.884L87.6858 147.986C84.6108 149.489 82.1546 151.521 80.3488 154.091L81.167 154.666ZM88.125 148.884L88.5642 149.782C91.352 148.419 94.4984 147.728 98.023 147.728V146.728V145.728C94.2302 145.728 90.7779 146.474 87.6858 147.986L88.125 148.884ZM129.66 139.084L128.966 139.804L128.979 139.816L128.993 139.829L129.66 139.084ZM129.66 126.148L130.341 126.881L130.342 126.88L129.66 126.148ZM143.968 126.148L143.274 126.868L143.287 126.88L143.301 126.893L143.968 126.148ZM143.968 139.084L144.649 139.817L144.65 139.816L143.968 139.084ZM145.242 147.316H146.242V146.316H145.242V147.316ZM145.242 202V203H146.242V202H145.242ZM128.484 202H127.484V203H128.484V202ZM128.484 147.316V146.316H127.484V147.316H128.484ZM136.912 141.632V140.632C134.178 140.632 132.011 139.848 130.328 138.339L129.66 139.084L128.993 139.829C131.099 141.717 133.767 142.632 136.912 142.632V141.632ZM129.66 139.084L130.354 138.364C128.721 136.789 127.916 134.893 127.916 132.616H126.916H125.916C125.916 135.435 126.941 137.851 128.966 139.804L129.66 139.084ZM126.916 132.616H127.916C127.916 130.266 128.726 128.38 130.341 126.881L129.66 126.148L128.98 125.415C126.936 127.313 125.916 129.739 125.916 132.616H126.916ZM129.66 126.148L130.342 126.88C132.026 125.312 134.188 124.502 136.912 124.502V123.502V122.502C133.756 122.502 131.084 123.456 128.979 125.416L129.66 126.148ZM136.912 123.502V124.502C139.565 124.502 141.656 125.308 143.274 126.868L143.968 126.148L144.662 125.428C142.622 123.46 140.009 122.502 136.912 122.502V123.502ZM143.968 126.148L143.301 126.893C144.977 128.396 145.81 130.278 145.81 132.616H146.81H147.81C147.81 129.727 146.748 127.298 144.636 125.403L143.968 126.148ZM146.81 132.616H145.81C145.81 134.881 144.982 136.774 143.287 138.352L143.968 139.084L144.65 139.816C146.744 137.866 147.81 135.447 147.81 132.616H146.81ZM143.968 139.084L143.288 138.351C141.671 139.852 139.575 140.632 136.912 140.632V141.632V142.632C139.998 142.632 142.606 141.713 144.649 139.817L143.968 139.084ZM145.242 147.316H144.242V202H145.242H146.242V147.316H145.242ZM145.242 202V201H128.484V202V203H145.242V202ZM128.484 202H129.484V147.316H128.484H127.484V202H128.484ZM128.484 147.316V148.316H145.242V147.316V146.316H128.484V147.316ZM204.034 153L203.293 153.672L203.299 153.678L203.305 153.684L204.034 153ZM209.816 202V203H210.816V202H209.816ZM193.156 202H192.156V203H193.156V202ZM190.314 163.78L189.584 164.463L190.314 163.78ZM175.026 163.78L175.757 164.463L175.026 163.78ZM172.184 202V203H173.184V202H172.184ZM155.426 202H154.426V203H155.426V202ZM155.426 147.316V146.316H154.426V147.316H155.426ZM172.184 147.316H173.184V146.316H172.184V147.316ZM172.184 154.568H171.184V157.73L173.003 155.143L172.184 154.568ZM179.044 148.884L179.475 149.786L179.483 149.783L179.492 149.778L179.044 148.884ZM188.746 146.728V147.728C194.909 147.728 199.72 149.729 203.293 153.672L204.034 153L204.775 152.328C200.77 147.909 195.389 145.728 188.746 145.728V146.728ZM204.034 153L203.305 153.684C206.94 157.566 208.816 162.979 208.816 170.052H209.816H210.816C210.816 162.621 208.838 156.666 204.764 152.316L204.034 153ZM209.816 170.052H208.816V202H209.816H210.816V170.052H209.816ZM209.816 202V201H193.156V202V203H209.816V202ZM193.156 202H194.156V172.306H193.156H192.156V202H193.156ZM193.156 172.306H194.156C194.156 168.477 193.162 165.36 191.045 163.097L190.314 163.78L189.584 164.463C191.256 166.25 192.156 168.818 192.156 172.306H193.156ZM190.314 163.78L191.045 163.097C188.931 160.838 186.102 159.742 182.67 159.742V160.742V161.742C185.642 161.742 187.908 162.672 189.584 164.463L190.314 163.78ZM182.67 160.742V159.742C179.239 159.742 176.41 160.838 174.296 163.097L175.026 163.78L175.757 164.463C177.433 162.672 179.699 161.742 182.67 161.742V160.742ZM175.026 163.78L174.296 163.097C172.179 165.36 171.184 168.477 171.184 172.306H172.184H173.184C173.184 168.818 174.085 166.25 175.757 164.463L175.026 163.78ZM172.184 172.306H171.184V202H172.184H173.184V172.306H172.184ZM172.184 202V201H155.426V202V203H172.184V202ZM155.426 202H156.426V147.316H155.426H154.426V202H155.426ZM155.426 147.316V148.316H172.184V147.316V146.316H155.426V147.316ZM172.184 147.316H171.184V154.568H172.184H173.184V147.316H172.184ZM172.184 154.568L173.003 155.143C174.595 152.877 176.743 151.09 179.475 149.786L179.044 148.884L178.614 147.982C175.596 149.422 173.171 151.424 171.366 153.993L172.184 154.568ZM179.044 148.884L179.492 149.778C182.212 148.418 185.29 147.728 188.746 147.728V146.728V145.728C185.016 145.728 181.626 146.475 178.597 147.99L179.044 148.884ZM270.756 178.676V179.676H271.647L271.749 178.791L270.756 178.676ZM232.83 178.676V177.676H231.75L231.833 178.753L232.83 178.676ZM236.064 186.516L235.369 187.235L235.382 187.248L235.395 187.259L236.064 186.516ZM251.94 183.87V182.87H251.301L251.032 183.45L251.94 183.87ZM269.776 183.87L270.745 184.117L271.062 182.87H269.776V183.87ZM264.778 193.572L264.012 192.928L264.004 192.939L264.778 193.572ZM255.86 200.334L256.273 201.244L255.86 200.334ZM229.498 199.354L229.018 200.231L229.498 199.354ZM219.698 189.554L220.572 189.07L219.698 189.554ZM219.6 159.762L218.725 159.277L218.719 159.288L219.6 159.762ZM229.4 149.962L229.879 150.839L229.4 149.962ZM257.918 149.864L257.443 150.744L257.918 149.864ZM267.522 159.37L266.647 159.856L266.653 159.866L267.522 159.37ZM253.9 169.366V170.366H254.9V169.366H253.9ZM250.96 162.506L251.615 161.75L250.96 162.506ZM236.456 162.408L235.815 161.64L235.809 161.645L235.803 161.651L236.456 162.408ZM232.928 169.366L231.939 169.216L231.764 170.366H232.928V169.366ZM271.05 173.776H270.05C270.05 175.302 269.954 176.897 269.762 178.561L270.756 178.676L271.749 178.791C271.949 177.057 272.05 175.386 272.05 173.776H271.05ZM270.756 178.676V177.676H232.83V178.676V179.676H270.756V178.676ZM232.83 178.676L231.833 178.753C232.107 182.321 233.252 185.191 235.369 187.235L236.064 186.516L236.758 185.797C235.086 184.182 234.075 181.826 233.827 178.599L232.83 178.676ZM236.064 186.516L235.395 187.259C237.551 189.2 240.179 190.162 243.218 190.162V189.162V188.162C240.638 188.162 238.496 187.36 236.733 185.773L236.064 186.516ZM243.218 189.162V190.162C245.449 190.162 247.41 189.69 249.053 188.694C250.7 187.695 251.959 186.208 252.847 184.29L251.94 183.87L251.032 183.45C250.287 185.06 249.276 186.219 248.015 186.984C246.75 187.752 245.167 188.162 243.218 188.162V189.162ZM251.94 183.87V184.87H269.776V183.87V182.87H251.94V183.87ZM269.776 183.87L268.807 183.623C267.93 187.069 266.334 190.167 264.012 192.928L264.778 193.572L265.543 194.216C268.056 191.227 269.792 187.858 270.745 184.117L269.776 183.87ZM264.778 193.572L264.004 192.939C261.755 195.687 258.908 197.85 255.446 199.424L255.86 200.334L256.273 201.244C259.998 199.552 263.096 197.206 265.552 194.205L264.778 193.572ZM255.86 200.334L255.446 199.424C251.998 200.991 248.124 201.784 243.806 201.784V202.784V203.784C248.373 203.784 252.535 202.944 256.273 201.244L255.86 200.334ZM243.806 202.784V201.784C238.595 201.784 233.994 200.673 229.977 198.477L229.498 199.354L229.018 200.231C233.364 202.608 238.302 203.784 243.806 203.784V202.784ZM229.498 199.354L229.977 198.477C225.966 196.283 222.834 193.154 220.572 189.07L219.698 189.554L218.823 190.038C221.265 194.448 224.667 197.852 229.018 200.231L229.498 199.354ZM219.698 189.554L220.572 189.07C218.316 184.995 217.17 180.202 217.17 174.658H216.17H215.17C215.17 180.482 216.376 185.62 218.823 190.038L219.698 189.554ZM216.17 174.658H217.17C217.17 169.11 218.285 164.313 220.48 160.236L219.6 159.762L218.719 159.288C216.341 163.704 215.17 168.838 215.17 174.658H216.17ZM219.6 159.762L220.474 160.246C222.736 156.162 225.868 153.033 229.879 150.839L229.4 149.962L228.92 149.085C224.569 151.464 221.167 154.868 218.725 159.277L219.6 159.762ZM229.4 149.962L229.879 150.839C233.894 148.644 238.527 147.532 243.806 147.532V146.532V145.532C238.239 145.532 233.268 146.707 228.92 149.085L229.4 149.962ZM243.806 146.532V147.532C248.954 147.532 253.491 148.611 257.443 150.744L257.918 149.864L258.393 148.984C254.112 146.674 249.241 145.532 243.806 145.532V146.532ZM257.918 149.864L257.443 150.744C261.39 152.874 264.453 155.905 266.647 159.856L267.522 159.37L268.396 158.884C266.017 154.603 262.678 151.297 258.393 148.984L257.918 149.864ZM267.522 159.37L266.653 159.866C268.906 163.809 270.05 168.434 270.05 173.776H271.05H272.05C272.05 168.142 270.841 163.163 268.39 158.874L267.522 159.37ZM253.9 169.366H254.9C254.9 166.237 253.819 163.661 251.615 161.75L250.96 162.506L250.305 163.262C252.02 164.748 252.9 166.746 252.9 169.366H253.9ZM250.96 162.506L251.615 161.75C249.448 159.873 246.756 158.958 243.61 158.958V159.958V160.958C246.343 160.958 248.551 161.742 250.305 163.262L250.96 162.506ZM243.61 159.958V158.958C240.592 158.958 237.974 159.841 235.815 161.64L236.456 162.408L237.096 163.176C238.858 161.708 241.009 160.958 243.61 160.958V159.958ZM236.456 162.408L235.803 161.651C233.691 163.471 232.424 166.027 231.939 169.216L232.928 169.366L233.916 169.516C234.346 166.694 235.431 164.611 237.109 163.165L236.456 162.408ZM232.928 169.366V170.366H253.9V169.366V168.366H232.928V169.366ZM391.406 133.204L392.374 133.456L392.7 132.204H391.406V133.204ZM373.472 202V203H374.245L374.44 202.252L373.472 202ZM353.186 202L352.214 202.236L352.399 203H353.186V202ZM342.21 156.724L343.182 156.488L341.24 156.48L342.21 156.724ZM330.842 202V203H331.622L331.812 202.244L330.842 202ZM310.556 202L309.587 202.246L309.778 203H310.556V202ZM293.112 133.204V132.204H291.827L292.143 133.45L293.112 133.204ZM311.046 133.204L312.027 133.01L311.868 132.204H311.046V133.204ZM320.944 183.282L319.963 183.476L321.915 183.52L320.944 183.282ZM333.194 133.204V132.204H332.409L332.223 132.966L333.194 133.204ZM351.618 133.204L352.591 132.975L352.41 132.204H351.618V133.204ZM363.378 183.282L362.404 183.511L364.359 183.478L363.378 183.282ZM373.374 133.204V132.204H372.554L372.393 133.008L373.374 133.204ZM391.406 133.204L390.438 132.952L372.504 201.748L373.472 202L374.44 202.252L392.374 133.456L391.406 133.204ZM373.472 202V201H353.186V202V203H373.472V202ZM353.186 202L354.158 201.764L343.182 156.488L342.21 156.724L341.238 156.96L352.214 202.236L353.186 202ZM342.21 156.724L341.24 156.48L329.872 201.756L330.842 202L331.812 202.244L343.18 156.968L342.21 156.724ZM330.842 202V201H310.556V202V203H330.842V202ZM310.556 202L311.525 201.754L294.081 132.958L293.112 133.204L292.143 133.45L309.587 202.246L310.556 202ZM293.112 133.204V134.204H311.046V133.204V132.204H293.112V133.204ZM311.046 133.204L310.065 133.398L319.963 183.476L320.944 183.282L321.925 183.088L312.027 133.01L311.046 133.204ZM320.944 183.282L321.915 183.52L334.165 133.442L333.194 133.204L332.223 132.966L319.973 183.044L320.944 183.282ZM333.194 133.204V134.204H351.618V133.204V132.204H333.194V133.204ZM351.618 133.204L350.644 133.433L362.404 183.511L363.378 183.282L364.351 183.053L352.591 132.975L351.618 133.204ZM363.378 183.282L364.359 183.478L374.355 133.4L373.374 133.204L372.393 133.008L362.397 183.086L363.378 183.282ZM373.374 133.204V134.204H391.406V133.204V132.204H373.374V133.204ZM399.026 139.084L398.332 139.804L398.345 139.816L398.359 139.829L399.026 139.084ZM399.026 126.148L399.707 126.881L399.708 126.88L399.026 126.148ZM413.334 126.148L412.64 126.868L412.653 126.88L412.667 126.893L413.334 126.148ZM413.334 139.084L414.015 139.817L414.016 139.816L413.334 139.084ZM414.608 147.316H415.608V146.316H414.608V147.316ZM414.608 202V203H415.608V202H414.608ZM397.85 202H396.85V203H397.85V202ZM397.85 147.316V146.316H396.85V147.316H397.85ZM406.278 141.632V140.632C403.544 140.632 401.377 139.848 399.694 138.339L399.026 139.084L398.359 139.829C400.465 141.717 403.133 142.632 406.278 142.632V141.632ZM399.026 139.084L399.72 138.364C398.087 136.789 397.282 134.893 397.282 132.616H396.282H395.282C395.282 135.435 396.307 137.851 398.332 139.804L399.026 139.084ZM396.282 132.616H397.282C397.282 130.266 398.092 128.38 399.707 126.881L399.026 126.148L398.346 125.415C396.302 127.313 395.282 129.739 395.282 132.616H396.282ZM399.026 126.148L399.708 126.88C401.392 125.312 403.554 124.502 406.278 124.502V123.502V122.502C403.122 122.502 400.45 123.456 398.345 125.416L399.026 126.148ZM406.278 123.502V124.502C408.931 124.502 411.022 125.308 412.64 126.868L413.334 126.148L414.028 125.428C411.988 123.46 409.375 122.502 406.278 122.502V123.502ZM413.334 126.148L412.667 126.893C414.343 128.396 415.176 130.278 415.176 132.616H416.176H417.176C417.176 129.727 416.114 127.298 414.002 125.403L413.334 126.148ZM416.176 132.616H415.176C415.176 134.881 414.348 136.774 412.653 138.352L413.334 139.084L414.016 139.816C416.11 137.866 417.176 135.447 417.176 132.616H416.176ZM413.334 139.084L412.654 138.351C411.037 139.852 408.941 140.632 406.278 140.632V141.632V142.632C409.364 142.632 411.972 141.713 414.015 139.817L413.334 139.084ZM414.608 147.316H413.608V202H414.608H415.608V147.316H414.608ZM414.608 202V201H397.85V202V203H414.608V202ZM397.85 202H398.85V147.316H397.85H396.85V202H397.85ZM397.85 147.316V148.316H414.608V147.316V146.316H397.85V147.316ZM455.271 187.79H456.271V186.79H455.271V187.79ZM455.271 202V203H456.271V202H455.271ZM432.534 197.59L431.872 198.339L431.88 198.346L432.534 197.59ZM427.439 161.232H428.439V160.232H427.439V161.232ZM420.775 161.232H419.775V162.232H420.775V161.232ZM420.775 147.316V146.316H419.775V147.316H420.775ZM427.439 147.316V148.316H428.439V147.316H427.439ZM427.439 133.988V132.988H426.439V133.988H427.439ZM444.197 133.988H445.197V132.988H444.197V133.988ZM444.197 147.316H443.197V148.316H444.197V147.316ZM455.172 147.316H456.172V146.316H455.172V147.316ZM455.172 161.232V162.232H456.172V161.232H455.172ZM444.197 161.232V160.232H443.197V161.232H444.197ZM445.372 186.712L444.697 187.449L445.372 186.712ZM455.271 187.79H454.271V202H455.271H456.271V187.79H455.271ZM455.271 202V201H446.745V202V203H455.271V202ZM446.745 202V201C440.824 201 436.349 199.569 433.189 196.834L432.534 197.59L431.88 198.346C435.515 201.491 440.513 203 446.745 203V202ZM432.534 197.59L433.197 196.841C430.101 194.102 428.439 189.571 428.439 182.988H427.439H426.439C426.439 189.864 428.174 195.067 431.872 198.339L432.534 197.59ZM427.439 182.988H428.439V161.232H427.439H426.439V182.988H427.439ZM427.439 161.232V160.232H420.775V161.232V162.232H427.439V161.232ZM420.775 161.232H421.775V147.316H420.775H419.775V161.232H420.775ZM420.775 147.316V148.316H427.439V147.316V146.316H420.775V147.316ZM427.439 147.316H428.439V133.988H427.439H426.439V147.316H427.439ZM427.439 133.988V134.988H444.197V133.988V132.988H427.439V133.988ZM444.197 133.988H443.197V147.316H444.197H445.197V133.988H444.197ZM444.197 147.316V148.316H455.172V147.316V146.316H444.197V147.316ZM455.172 147.316H454.172V161.232H455.172H456.172V147.316H455.172ZM455.172 161.232V160.232H444.197V161.232V162.232H455.172V161.232ZM444.197 161.232H443.197V183.184H444.197H445.197V161.232H444.197ZM444.197 183.184H443.197C443.197 184.949 443.617 186.46 444.697 187.449L445.372 186.712L446.048 185.975C445.56 185.527 445.197 184.686 445.197 183.184H444.197ZM445.372 186.712L444.697 187.449C445.759 188.423 447.379 188.79 449.292 188.79V187.79V186.79C447.547 186.79 446.554 186.439 446.048 185.975L445.372 186.712ZM449.292 187.79V188.79H455.271V187.79V186.79H449.292V187.79ZM511.351 153L510.61 153.672L510.615 153.677L511.351 153ZM517.035 202V203H518.035V202H517.035ZM500.375 202H499.375V203H500.375V202ZM497.533 163.78L496.803 164.463L497.533 163.78ZM482.245 163.78L482.975 164.463L482.245 163.78ZM479.403 202V203H480.403V202H479.403ZM462.645 202H461.645V203H462.645V202ZM462.645 129.48V128.48H461.645V129.48H462.645ZM479.403 129.48H480.403V128.48H479.403V129.48ZM479.403 154.666H478.403V157.828L480.221 155.241L479.403 154.666ZM486.361 148.884L485.922 147.986L486.361 148.884ZM496.259 146.728V147.728C502.284 147.728 507.033 149.724 510.61 153.672L511.351 153L512.092 152.328C508.091 147.913 502.778 145.728 496.259 145.728V146.728ZM511.351 153L510.615 153.677C514.189 157.559 516.035 162.974 516.035 170.052H517.035H518.035C518.035 162.626 516.092 156.673 512.087 152.323L511.351 153ZM517.035 170.052H516.035V202H517.035H518.035V170.052H517.035ZM517.035 202V201H500.375V202V203H517.035V202ZM500.375 202H501.375V172.306H500.375H499.375V202H500.375ZM500.375 172.306H501.375C501.375 168.477 500.381 165.36 498.263 163.097L497.533 163.78L496.803 164.463C498.475 166.25 499.375 168.818 499.375 172.306H500.375ZM497.533 163.78L498.263 163.097C496.15 160.838 493.32 159.742 489.889 159.742V160.742V161.742C492.86 161.742 495.127 162.672 496.803 164.463L497.533 163.78ZM489.889 160.742V159.742C486.458 159.742 483.628 160.838 481.515 163.097L482.245 163.78L482.975 164.463C484.651 162.672 486.918 161.742 489.889 161.742V160.742ZM482.245 163.78L481.515 163.097C479.397 165.36 478.403 168.477 478.403 172.306H479.403H480.403C480.403 168.818 481.303 166.25 482.975 164.463L482.245 163.78ZM479.403 172.306H478.403V202H479.403H480.403V172.306H479.403ZM479.403 202V201H462.645V202V203H479.403V202ZM462.645 202H463.645V129.48H462.645H461.645V202H462.645ZM462.645 129.48V130.48H479.403V129.48V128.48H462.645V129.48ZM479.403 129.48H478.403V154.666H479.403H480.403V129.48H479.403ZM479.403 154.666L480.221 155.241C481.813 152.976 483.995 151.154 486.8 149.782L486.361 148.884L485.922 147.986C482.847 149.489 480.391 151.521 478.585 154.091L479.403 154.666ZM486.361 148.884L486.8 149.782C489.588 148.419 492.734 147.728 496.259 147.728V146.728V145.728C492.466 145.728 489.014 146.474 485.922 147.986L486.361 148.884ZM561.992 133.204H562.992V132.204H561.992V133.204ZM565.03 183.87L564.291 184.544L565.03 183.87ZM582.964 183.87L583.692 184.555L582.964 183.87ZM586.1 133.204V132.204H585.1V133.204H586.1ZM602.858 133.204H603.858V132.204H602.858V133.204ZM598.938 189.848L599.789 190.372L598.938 189.848ZM588.354 199.452L587.917 198.552L587.912 198.555L588.354 199.452ZM559.052 199.55L558.599 200.442L558.607 200.446L558.615 200.45L559.052 199.55ZM548.958 189.946L548.091 190.445L548.094 190.451L548.958 189.946ZM545.234 133.204V132.204H544.234V133.204H545.234ZM561.992 133.204H560.992V174.364H561.992H562.992V133.204H561.992ZM561.992 174.364H560.992C560.992 178.636 562.044 182.079 564.291 184.544L565.03 183.87L565.769 183.196C563.965 181.218 562.992 178.324 562.992 174.364H561.992ZM565.03 183.87L564.291 184.544C566.559 187.031 569.837 188.202 573.948 188.202V187.202V186.202C570.219 186.202 567.551 185.151 565.769 183.196L565.03 183.87ZM573.948 187.202V188.202C578.06 188.202 581.362 187.031 583.692 184.555L582.964 183.87L582.236 183.185C580.384 185.152 577.675 186.202 573.948 186.202V187.202ZM582.964 183.87L583.692 184.555C586.011 182.092 587.1 178.644 587.1 174.364H586.1H585.1C585.1 178.316 584.098 181.206 582.236 183.185L582.964 183.87ZM586.1 174.364H587.1V133.204H586.1H585.1V174.364H586.1ZM586.1 133.204V134.204H602.858V133.204V132.204H586.1V133.204ZM602.858 133.204H601.858V174.266H602.858H603.858V133.204H602.858ZM602.858 174.266H601.858C601.858 180.265 600.582 185.268 598.086 189.324L598.938 189.848L599.789 190.372C602.52 185.935 603.858 180.55 603.858 174.266H602.858ZM598.938 189.848L598.086 189.324C595.571 193.41 592.187 196.48 587.917 198.552L588.354 199.452L588.79 200.352C593.406 198.112 597.077 194.779 599.789 190.372L598.938 189.848ZM588.354 199.452L587.912 198.555C583.687 200.636 578.94 201.686 573.654 201.686V202.686V203.686C579.212 203.686 584.266 202.58 588.796 200.349L588.354 199.452ZM573.654 202.686V201.686C568.362 201.686 563.647 200.667 559.488 198.65L559.052 199.55L558.615 200.45C563.08 202.615 568.1 203.686 573.654 203.686V202.686ZM559.052 199.55L559.504 198.658C555.435 196.592 552.21 193.528 549.821 189.441L548.958 189.946L548.094 190.451C550.671 194.857 554.175 198.196 558.599 200.442L559.052 199.55ZM548.958 189.946L549.824 189.447C547.447 185.319 546.234 180.273 546.234 174.266H545.234H544.234C544.234 180.542 545.503 185.949 548.091 190.445L548.958 189.946ZM545.234 174.266H546.234V133.204H545.234H544.234V174.266H545.234ZM545.234 133.204V134.204H561.992V133.204V132.204H545.234V133.204ZM622.171 200.334L622.573 199.418L622.171 200.334ZM613.351 193.67L612.551 194.27L612.558 194.279L613.351 193.67ZM609.725 184.066V183.066H608.649L608.728 184.14L609.725 184.066ZM626.287 184.066L627.282 183.963L627.189 183.066H626.287V184.066ZM628.933 188.672L629.533 187.872L628.933 188.672ZM639.517 189.26L640.094 190.077L640.103 190.071L639.517 189.26ZM638.831 182.596L638.399 183.498L638.414 183.505L638.429 183.511L638.831 182.596ZM630.893 180.048L631.136 179.078L631.128 179.076L631.121 179.074L630.893 180.048ZM621.093 177.206L620.722 178.134L620.732 178.139L620.742 178.142L621.093 177.206ZM614.331 172.404L613.57 173.053L613.575 173.059L613.58 173.064L614.331 172.404ZM614.037 154.96L613.208 154.401L613.205 154.405L614.037 154.96ZM621.681 148.786L621.277 147.871L621.27 147.874L621.681 148.786ZM649.905 151.628L649.25 152.384L649.257 152.389L649.905 151.628ZM656.765 165.152V166.152H657.875L657.76 165.048L656.765 165.152ZM641.281 165.152L640.291 165.289L640.41 166.152H641.281V165.152ZM638.733 160.644L638.104 161.421L638.113 161.428L638.122 161.435L638.733 160.644ZM628.737 160.154L629.304 160.978L629.321 160.966L629.337 160.954L628.737 160.154ZM629.619 166.72L629.187 167.622L629.193 167.625L629.2 167.628L629.619 166.72ZM637.459 169.072L637.709 168.104L637.693 168.099L637.676 168.096L637.459 169.072ZM647.357 172.208L646.978 173.133L646.988 173.137L646.998 173.141L647.357 172.208ZM654.021 177.108L653.251 177.746L653.261 177.758L653.272 177.77L654.021 177.108ZM657.059 186.124H658.059V186.115L658.059 186.107L657.059 186.124ZM654.315 194.748L653.503 194.165L653.5 194.169L654.315 194.748ZM646.573 200.628L646.184 199.707L646.177 199.71L646.573 200.628ZM634.911 202.784V201.784C630.257 201.784 626.15 200.987 622.573 199.418L622.171 200.334L621.77 201.25C625.64 202.947 630.027 203.784 634.911 203.784V202.784ZM622.171 200.334L622.573 199.418C618.98 197.842 616.184 195.718 614.145 193.061L613.351 193.67L612.558 194.279C614.831 197.241 617.914 199.559 621.77 201.25L622.171 200.334ZM613.351 193.67L614.151 193.07C612.108 190.346 610.97 187.326 610.723 183.992L609.725 184.066L608.728 184.14C609.004 187.862 610.283 191.245 612.551 194.27L613.351 193.67ZM609.725 184.066V185.066H626.287V184.066V183.066H609.725V184.066ZM626.287 184.066L625.293 184.169C625.518 186.35 626.55 188.134 628.333 189.472L628.933 188.672L629.533 187.872C628.181 186.858 627.448 185.572 627.282 183.963L626.287 184.066ZM628.933 188.672L628.333 189.472C630.102 190.799 632.25 191.436 634.715 191.436V190.436V189.436C632.608 189.436 630.901 188.897 629.533 187.872L628.933 188.672ZM634.715 190.436V191.436C636.909 191.436 638.746 191.028 640.094 190.077L639.517 189.26L638.941 188.443C638.067 189.06 636.703 189.436 634.715 189.436V190.436ZM639.517 189.26L640.103 190.071C641.506 189.057 642.281 187.693 642.281 186.026H641.281H640.281C640.281 186.973 639.881 187.764 638.932 188.449L639.517 189.26ZM641.281 186.026H642.281C642.281 185.059 642.026 184.172 641.483 183.411C640.945 182.659 640.172 182.093 639.234 181.681L638.831 182.596L638.429 183.511C639.125 183.818 639.576 184.183 639.855 184.574C640.128 184.956 640.281 185.425 640.281 186.026H641.281ZM638.831 182.596L639.264 181.694C637.534 180.864 634.806 179.995 631.136 179.078L630.893 180.048L630.651 181.018C634.298 181.93 636.862 182.76 638.399 183.498L638.831 182.596ZM630.893 180.048L631.121 179.074C627.226 178.165 624.004 177.229 621.444 176.27L621.093 177.206L620.742 178.142C623.409 179.143 626.721 180.101 630.666 181.022L630.893 180.048ZM621.093 177.206L621.465 176.278C619 175.292 616.876 173.784 615.083 171.744L614.331 172.404L613.58 173.064C615.576 175.336 617.96 177.03 620.722 178.134L621.093 177.206ZM614.331 172.404L615.092 171.755C613.391 169.76 612.489 167.039 612.489 163.486H611.489H610.489C610.489 167.381 611.483 170.605 613.57 173.053L614.331 172.404ZM611.489 163.486H612.489C612.489 160.542 613.283 157.894 614.869 155.515L614.037 154.96L613.205 154.405C611.394 157.122 610.489 160.158 610.489 163.486H611.489ZM614.037 154.96L614.866 155.519C616.511 153.083 618.902 151.136 622.092 149.698L621.681 148.786L621.27 147.874C617.796 149.441 615.092 151.61 613.208 154.401L614.037 154.96ZM621.681 148.786L622.086 149.701C625.328 148.266 629.202 147.532 633.735 147.532V146.532V145.532C628.991 145.532 624.829 146.3 621.277 147.871L621.681 148.786ZM633.735 146.532V147.532C640.433 147.532 645.564 149.189 649.25 152.384L649.905 151.628L650.56 150.872C646.407 147.273 640.757 145.532 633.735 145.532V146.532ZM649.905 151.628L649.257 152.389C653.03 155.606 655.207 159.871 655.771 165.256L656.765 165.152L657.76 165.048C657.148 159.196 654.751 154.445 650.554 150.867L649.905 151.628ZM656.765 165.152V164.152H641.281V165.152V166.152H656.765V165.152ZM641.281 165.152L642.272 165.015C641.977 162.876 641.001 161.133 639.345 159.853L638.733 160.644L638.122 161.435C639.34 162.377 640.063 163.638 640.291 165.289L641.281 165.152ZM638.733 160.644L639.363 159.867C637.766 158.574 635.693 157.978 633.245 157.978V158.978V159.978C635.371 159.978 636.957 160.493 638.104 161.421L638.733 160.644ZM633.245 158.978V157.978C631.172 157.978 629.423 158.39 628.137 159.354L628.737 160.154L629.337 160.954C630.142 160.35 631.399 159.978 633.245 159.978V158.978ZM628.737 160.154L628.171 159.33C626.845 160.242 626.169 161.568 626.169 163.192H627.169H628.169C628.169 162.203 628.539 161.504 629.304 160.978L628.737 160.154ZM627.169 163.192H626.169C626.169 164.16 626.425 165.049 626.961 165.82C627.49 166.584 628.255 167.174 629.187 167.622L629.619 166.72L630.052 165.818C629.351 165.482 628.89 165.092 628.603 164.68C628.322 164.275 628.169 163.792 628.169 163.192H627.169ZM629.619 166.72L629.2 167.628C630.999 168.458 633.697 169.26 637.242 170.048L637.459 169.072L637.676 168.096C634.166 167.316 631.637 166.55 630.038 165.812L629.619 166.72ZM637.459 169.072L637.209 170.04C641.236 171.079 644.488 172.112 646.978 173.133L647.357 172.208L647.737 171.283C645.131 170.214 641.784 169.155 637.709 168.104L637.459 169.072ZM647.357 172.208L646.998 173.141C649.372 174.054 651.456 175.579 653.251 177.746L654.021 177.108L654.791 176.47C652.797 174.063 650.438 172.322 647.716 171.275L647.357 172.208ZM654.021 177.108L653.272 177.77C655.034 179.768 655.997 182.522 656.06 186.141L657.059 186.124L658.059 186.107C657.991 182.148 656.928 178.891 654.771 176.446L654.021 177.108ZM657.059 186.124H656.059C656.059 189.121 655.208 191.79 653.503 194.165L654.315 194.748L655.128 195.331C657.082 192.61 658.059 189.53 658.059 186.124H657.059ZM654.315 194.748L653.5 194.169C651.864 196.471 649.446 198.327 646.184 199.707L646.573 200.628L646.963 201.549C650.495 200.055 653.238 197.99 655.131 195.327L654.315 194.748ZM646.573 200.628L646.177 199.71C642.995 201.083 639.248 201.784 634.911 201.784V202.784V203.784C639.46 203.784 643.488 203.048 646.969 201.546L646.573 200.628Z" fill="black" mask="url(#path-1-outside-1_267_2)"/>
</svg>
