<svg width="822" height="224" viewBox="0 0 822 224" fill="none" xmlns="http://www.w3.org/2000/svg">
<path d="M51.744 42.96C50.5027 40.6733 48.706 38.942 46.354 37.766C44.0673 36.5247 41.356 35.904 38.22 35.904C32.7973 35.904 28.4527 37.7007 25.186 41.294C21.9193 44.822 20.286 49.5587 20.286 55.504C20.286 61.8413 21.9847 66.8067 25.382 70.4C28.8447 73.928 33.5813 75.692 39.592 75.692C43.708 75.692 47.1707 74.6467 49.98 72.556C52.8547 70.4653 54.9453 67.46 56.252 63.54H34.986V51.192H71.442V66.774C70.2007 70.9553 68.0773 74.8427 65.072 78.436C62.132 82.0293 58.3753 84.9367 53.802 87.158C49.2287 89.3793 44.0673 90.49 38.318 90.49C31.5233 90.49 25.4473 89.02 20.09 86.08C14.798 83.0747 10.6493 78.926 7.644 73.634C4.704 68.342 3.234 62.2987 3.234 55.504C3.234 48.7093 4.704 42.666 7.644 37.374C10.6493 32.0167 14.798 27.868 20.09 24.928C25.382 21.9227 31.4253 20.42 38.22 20.42C46.452 20.42 53.3773 22.4127 58.996 26.398C64.68 30.3833 68.4367 35.904 70.266 42.96H51.744ZM95.5224 44.43C97.4824 41.4247 99.9324 39.0727 102.872 37.374C105.812 35.61 109.079 34.728 112.672 34.728V52.466H108.066C103.885 52.466 100.749 53.3807 98.6584 55.21C96.5678 56.974 95.5224 60.11 95.5224 64.618V90H78.7644V35.316H95.5224V44.43ZM143.614 90.784C138.257 90.784 133.422 89.6407 129.11 87.354C124.864 85.0673 121.499 81.8007 119.016 77.554C116.599 73.3073 115.39 68.342 115.39 62.658C115.39 57.0393 116.632 52.1067 119.114 47.86C121.597 43.548 124.994 40.2487 129.306 37.962C133.618 35.6753 138.453 34.532 143.81 34.532C149.168 34.532 154.002 35.6753 158.314 37.962C162.626 40.2487 166.024 43.548 168.506 47.86C170.989 52.1067 172.23 57.0393 172.23 62.658C172.23 68.2767 170.956 73.242 168.408 77.554C165.926 81.8007 162.496 85.0673 158.118 87.354C153.806 89.6407 148.972 90.784 143.614 90.784ZM143.614 76.28C146.816 76.28 149.527 75.104 151.748 72.752C154.035 70.4 155.178 67.0353 155.178 62.658C155.178 58.2807 154.068 54.916 151.846 52.564C149.69 50.212 147.012 49.036 143.81 49.036C140.544 49.036 137.832 50.212 135.676 52.564C133.52 54.8507 132.442 58.2153 132.442 62.658C132.442 67.0353 133.488 70.4 135.578 72.752C137.734 75.104 140.413 76.28 143.614 76.28ZM257.659 35.316L242.861 90H224.339L215.715 54.524L206.797 90H188.373L173.477 35.316H190.235L197.977 74.418L207.189 35.316H224.927L234.237 74.222L241.881 35.316H257.659ZM375.565 21.204L357.631 90H337.345L326.369 44.724L315.001 90H294.715L277.271 21.204H295.205L305.103 71.282L317.353 21.204H335.777L347.537 71.282L357.533 21.204H375.565ZM390.437 29.632C387.497 29.632 385.08 28.7827 383.185 27.084C381.356 25.32 380.441 23.164 380.441 20.616C380.441 18.0027 381.356 15.8467 383.185 14.148C385.08 12.384 387.497 11.502 390.437 11.502C393.312 11.502 395.664 12.384 397.493 14.148C399.388 15.8467 400.335 18.0027 400.335 20.616C400.335 23.164 399.388 25.32 397.493 27.084C395.664 28.7827 393.312 29.632 390.437 29.632ZM398.767 35.316V90H382.009V35.316H398.767ZM439.43 75.79V90H430.904C424.828 90 420.091 88.53 416.694 85.59C413.296 82.5847 411.598 77.7173 411.598 70.988V49.232H404.934V35.316H411.598V21.988H428.356V35.316H439.332V49.232H428.356V71.184C428.356 72.8173 428.748 73.9933 429.532 74.712C430.316 75.4307 431.622 75.79 433.452 75.79H439.43ZM480.418 34.728C486.69 34.728 491.721 36.8187 495.51 41C499.3 45.116 501.194 50.8 501.194 58.052V90H484.534V60.306C484.534 56.6473 483.587 53.8053 481.692 51.78C479.798 49.7547 477.25 48.742 474.048 48.742C470.847 48.742 468.299 49.7547 466.404 51.78C464.51 53.8053 463.562 56.6473 463.562 60.306V90H446.804V17.48H463.562V42.666C465.261 40.2487 467.58 38.3213 470.52 36.884C473.46 35.4467 476.76 34.728 480.418 34.728ZM546.151 21.204V62.364C546.151 66.48 547.164 69.6487 549.189 71.87C551.214 74.0913 554.187 75.202 558.107 75.202C562.027 75.202 565.032 74.0913 567.123 71.87C569.214 69.6487 570.259 66.48 570.259 62.364V21.204H587.017V62.266C587.017 68.4073 585.71 73.6013 583.097 77.848C580.484 82.0947 576.956 85.296 572.513 87.452C568.136 89.608 563.236 90.686 557.813 90.686C552.39 90.686 547.523 89.6407 543.211 87.55C538.964 85.394 535.6 82.1927 533.117 77.946C530.634 73.634 529.393 68.4073 529.393 62.266V21.204H546.151ZM619.071 90.784C614.301 90.784 610.055 89.9673 606.331 88.334C602.607 86.7007 599.667 84.4793 597.511 81.67C595.355 78.7953 594.146 75.594 593.885 72.066H610.447C610.643 73.9607 611.525 75.496 613.093 76.672C614.661 77.848 616.588 78.436 618.875 78.436C620.965 78.436 622.566 78.044 623.677 77.26C624.853 76.4107 625.441 75.3327 625.441 74.026C625.441 72.458 624.624 71.3147 622.991 70.596C621.357 69.812 618.711 68.9627 615.053 68.048C611.133 67.1333 607.866 66.186 605.253 65.206C602.639 64.1607 600.385 62.56 598.491 60.404C596.596 58.1827 595.649 55.21 595.649 51.486C595.649 48.35 596.498 45.508 598.197 42.96C599.961 40.3467 602.509 38.2887 605.841 36.786C609.238 35.2833 613.256 34.532 617.895 34.532C624.755 34.532 630.145 36.2307 634.065 39.628C638.05 43.0253 640.337 47.5333 640.925 53.152H625.441C625.179 51.2573 624.33 49.7547 622.893 48.644C621.521 47.5333 619.691 46.978 617.405 46.978C615.445 46.978 613.942 47.37 612.897 48.154C611.851 48.8727 611.329 49.8853 611.329 51.192C611.329 52.76 612.145 53.936 613.779 54.72C615.477 55.504 618.091 56.288 621.619 57.072C625.669 58.1173 628.969 59.1627 631.517 60.208C634.065 61.188 636.286 62.8213 638.181 65.108C640.141 67.3293 641.153 70.3347 641.219 74.124C641.219 77.3253 640.304 80.2 638.475 82.748C636.711 85.2307 634.13 87.1907 630.733 88.628C627.401 90.0653 623.513 90.784 619.071 90.784ZM667.543 74.516L656.665 102.642H645.983L651.667 74.516H667.543ZM30.968 202.686C25.9373 202.686 21.4293 201.869 17.444 200.236C13.4587 198.603 10.2573 196.185 7.84 192.984C5.488 189.783 4.24667 185.928 4.116 181.42H21.952C22.2133 183.968 23.0953 185.928 24.598 187.3C26.1007 188.607 28.0607 189.26 30.478 189.26C32.9607 189.26 34.9207 188.705 36.358 187.594C37.7953 186.418 38.514 184.817 38.514 182.792C38.514 181.093 37.926 179.689 36.75 178.578C35.6393 177.467 34.2347 176.553 32.536 175.834C30.9027 175.115 28.5507 174.299 25.48 173.384C21.0373 172.012 17.4113 170.64 14.602 169.268C11.7927 167.896 9.37533 165.871 7.35 163.192C5.32467 160.513 4.312 157.018 4.312 152.706C4.312 146.303 6.63133 141.305 11.27 137.712C15.9087 134.053 21.952 132.224 29.4 132.224C36.9787 132.224 43.0873 134.053 47.726 137.712C52.3647 141.305 54.8473 146.336 55.174 152.804H37.044C36.9133 150.583 36.0967 148.851 34.594 147.61C33.0913 146.303 31.164 145.65 28.812 145.65C26.7867 145.65 25.1533 146.205 23.912 147.316C22.6707 148.361 22.05 149.897 22.05 151.922C22.05 154.143 23.0953 155.875 25.186 157.116C27.2767 158.357 30.5433 159.697 34.986 161.134C39.4287 162.637 43.022 164.074 45.766 165.446C48.5753 166.818 50.9927 168.811 53.018 171.424C55.0433 174.037 56.056 177.402 56.056 181.518C56.056 185.438 55.0433 188.999 53.018 192.2C51.058 195.401 48.1833 197.949 44.394 199.844C40.6047 201.739 36.1293 202.686 30.968 202.686ZM98.023 146.728C104.295 146.728 109.326 148.819 113.115 153C116.904 157.116 118.799 162.8 118.799 170.052V202H102.139V172.306C102.139 168.647 101.192 165.805 99.297 163.78C97.4023 161.755 94.8543 160.742 91.653 160.742C88.4516 160.742 85.9036 161.755 84.009 163.78C82.1143 165.805 81.167 168.647 81.167 172.306V202H64.409V129.48H81.167V154.666C82.8656 152.249 85.185 150.321 88.125 148.884C91.065 147.447 94.3643 146.728 98.023 146.728ZM136.912 141.632C133.972 141.632 131.555 140.783 129.66 139.084C127.831 137.32 126.916 135.164 126.916 132.616C126.916 130.003 127.831 127.847 129.66 126.148C131.555 124.384 133.972 123.502 136.912 123.502C139.787 123.502 142.139 124.384 143.968 126.148C145.863 127.847 146.81 130.003 146.81 132.616C146.81 135.164 145.863 137.32 143.968 139.084C142.139 140.783 139.787 141.632 136.912 141.632ZM145.242 147.316V202H128.484V147.316H145.242ZM188.746 146.728C195.149 146.728 200.245 148.819 204.034 153C207.889 157.116 209.816 162.8 209.816 170.052V202H193.156V172.306C193.156 168.647 192.209 165.805 190.314 163.78C188.42 161.755 185.872 160.742 182.67 160.742C179.469 160.742 176.921 161.755 175.026 163.78C173.132 165.805 172.184 168.647 172.184 172.306V202H155.426V147.316H172.184V154.568C173.883 152.151 176.17 150.256 179.044 148.884C181.919 147.447 185.153 146.728 188.746 146.728ZM271.05 173.776C271.05 175.344 270.952 176.977 270.756 178.676H232.83C233.091 182.073 234.169 184.687 236.064 186.516C238.024 188.28 240.408 189.162 243.218 189.162C247.399 189.162 250.306 187.398 251.94 183.87H269.776C268.861 187.463 267.195 190.697 264.778 193.572C262.426 196.447 259.453 198.701 255.86 200.334C252.266 201.967 248.248 202.784 243.806 202.784C238.448 202.784 233.679 201.641 229.498 199.354C225.316 197.067 222.05 193.801 219.698 189.554C217.346 185.307 216.17 180.342 216.17 174.658C216.17 168.974 217.313 164.009 219.6 159.762C221.952 155.515 225.218 152.249 229.4 149.962C233.581 147.675 238.383 146.532 243.806 146.532C249.098 146.532 253.802 147.643 257.918 149.864C262.034 152.085 265.235 155.254 267.522 159.37C269.874 163.486 271.05 168.288 271.05 173.776ZM253.9 169.366C253.9 166.491 252.92 164.205 250.96 162.506C249 160.807 246.55 159.958 243.61 159.958C240.8 159.958 238.416 160.775 236.456 162.408C234.561 164.041 233.385 166.361 232.928 169.366H253.9ZM391.406 133.204L373.472 202H353.186L342.21 156.724L330.842 202H310.556L293.112 133.204H311.046L320.944 183.282L333.194 133.204H351.618L363.378 183.282L373.374 133.204H391.406ZM406.278 141.632C403.338 141.632 400.921 140.783 399.026 139.084C397.197 137.32 396.282 135.164 396.282 132.616C396.282 130.003 397.197 127.847 399.026 126.148C400.921 124.384 403.338 123.502 406.278 123.502C409.153 123.502 411.505 124.384 413.334 126.148C415.229 127.847 416.176 130.003 416.176 132.616C416.176 135.164 415.229 137.32 413.334 139.084C411.505 140.783 409.153 141.632 406.278 141.632ZM414.608 147.316V202H397.85V147.316H414.608ZM455.27 187.79V202H446.744C440.668 202 435.932 200.53 432.534 197.59C429.137 194.585 427.438 189.717 427.438 182.988V161.232H420.774V147.316H427.438V133.988H444.196V147.316H455.172V161.232H444.196V183.184C444.196 184.817 444.588 185.993 445.372 186.712C446.156 187.431 447.463 187.79 449.292 187.79H455.27ZM496.259 146.728C502.531 146.728 507.562 148.819 511.351 153C515.14 157.116 517.035 162.8 517.035 170.052V202H500.375V172.306C500.375 168.647 499.428 165.805 497.533 163.78C495.638 161.755 493.09 160.742 489.889 160.742C486.688 160.742 484.14 161.755 482.245 163.78C480.35 165.805 479.403 168.647 479.403 172.306V202H462.645V129.48H479.403V154.666C481.102 152.249 483.421 150.321 486.361 148.884C489.301 147.447 492.6 146.728 496.259 146.728ZM561.992 133.204V174.364C561.992 178.48 563.004 181.649 565.03 183.87C567.055 186.091 570.028 187.202 573.948 187.202C577.868 187.202 580.873 186.091 582.964 183.87C585.054 181.649 586.1 178.48 586.1 174.364V133.204H602.858V174.266C602.858 180.407 601.551 185.601 598.938 189.848C596.324 194.095 592.796 197.296 588.354 199.452C583.976 201.608 579.076 202.686 573.654 202.686C568.231 202.686 563.364 201.641 559.052 199.55C554.805 197.394 551.44 194.193 548.958 189.946C546.475 185.634 545.234 180.407 545.234 174.266V133.204H561.992ZM634.911 202.784C630.142 202.784 625.895 201.967 622.171 200.334C618.447 198.701 615.507 196.479 613.351 193.67C611.195 190.795 609.987 187.594 609.725 184.066H626.287C626.483 185.961 627.365 187.496 628.933 188.672C630.501 189.848 632.429 190.436 634.715 190.436C636.806 190.436 638.407 190.044 639.517 189.26C640.693 188.411 641.281 187.333 641.281 186.026C641.281 184.458 640.465 183.315 638.831 182.596C637.198 181.812 634.552 180.963 630.893 180.048C626.973 179.133 623.707 178.186 621.093 177.206C618.48 176.161 616.226 174.56 614.331 172.404C612.437 170.183 611.489 167.21 611.489 163.486C611.489 160.35 612.339 157.508 614.037 154.96C615.801 152.347 618.349 150.289 621.681 148.786C625.079 147.283 629.097 146.532 633.735 146.532C640.595 146.532 645.985 148.231 649.905 151.628C653.891 155.025 656.177 159.533 656.765 165.152H641.281C641.02 163.257 640.171 161.755 638.733 160.644C637.361 159.533 635.532 158.978 633.245 158.978C631.285 158.978 629.783 159.37 628.737 160.154C627.692 160.873 627.169 161.885 627.169 163.192C627.169 164.76 627.986 165.936 629.619 166.72C631.318 167.504 633.931 168.288 637.459 169.072C641.51 170.117 644.809 171.163 647.357 172.208C649.905 173.188 652.127 174.821 654.021 177.108C655.981 179.329 656.994 182.335 657.059 186.124C657.059 189.325 656.145 192.2 654.315 194.748C652.551 197.231 649.971 199.191 646.573 200.628C643.241 202.065 639.354 202.784 634.911 202.784Z" fill="#D9D9D9"/>
</svg>
