<svg width="822" height="336" viewBox="0 0 822 336" fill="none" xmlns="http://www.w3.org/2000/svg">
<path d="M22.834 77.064H44.786V90H6.076V21.204H22.834V77.064ZM59.2471 29.632C56.3071 29.632 53.8898 28.7827 51.9951 27.084C50.1658 25.32 49.2511 23.164 49.2511 20.616C49.2511 18.0027 50.1658 15.8467 51.9951 14.148C53.8898 12.384 56.3071 11.502 59.2471 11.502C62.1218 11.502 64.4738 12.384 66.3031 14.148C68.1978 15.8467 69.1451 18.0027 69.1451 20.616C69.1451 23.164 68.1978 25.32 66.3031 27.084C64.4738 28.7827 62.1218 29.632 59.2471 29.632ZM67.5771 35.316V90H50.8191V35.316H67.5771ZM105.201 49.232H96.1855V90H79.4275V49.232H73.3515V35.316H79.4275V33.748C79.4275 27.0187 81.3548 21.9227 85.2095 18.46C89.0641 14.932 94.7155 13.168 102.163 13.168C103.405 13.168 104.319 13.2007 104.907 13.266V27.476C101.706 27.28 99.4521 27.7373 98.1455 28.848C96.8388 29.9587 96.1855 31.9513 96.1855 34.826V35.316H105.201V49.232ZM162.664 61.776C162.664 63.344 162.566 64.9773 162.37 66.676H124.444C124.705 70.0733 125.783 72.6867 127.678 74.516C129.638 76.28 132.023 77.162 134.832 77.162C139.013 77.162 141.921 75.398 143.554 71.87H161.39C160.475 75.4633 158.809 78.6973 156.392 81.572C154.04 84.4467 151.067 86.7007 147.474 88.334C143.881 89.9673 139.863 90.784 135.42 90.784C130.063 90.784 125.293 89.6407 121.112 87.354C116.931 85.0673 113.664 81.8007 111.312 77.554C108.96 73.3073 107.784 68.342 107.784 62.658C107.784 56.974 108.927 52.0087 111.214 47.762C113.566 43.5153 116.833 40.2487 121.014 37.962C125.195 35.6753 129.997 34.532 135.42 34.532C140.712 34.532 145.416 35.6427 149.532 37.864C153.648 40.0853 156.849 43.254 159.136 47.37C161.488 51.486 162.664 56.288 162.664 61.776ZM145.514 57.366C145.514 54.4913 144.534 52.2047 142.574 50.506C140.614 48.8073 138.164 47.958 135.224 47.958C132.415 47.958 130.03 48.7747 128.07 50.408C126.175 52.0413 124.999 54.3607 124.542 57.366H145.514ZM185.02 62.56C185.02 56.9413 186.066 52.0087 188.156 47.762C190.312 43.5153 193.22 40.2487 196.878 37.962C200.537 35.6753 204.62 34.532 209.128 34.532C212.983 34.532 216.348 35.316 219.222 36.884C222.162 38.452 224.416 40.51 225.984 43.058V35.316H242.742V90H225.984V82.258C224.351 84.806 222.064 86.864 219.124 88.432C216.25 90 212.885 90.784 209.03 90.784C204.588 90.784 200.537 89.6407 196.878 87.354C193.22 85.002 190.312 81.7027 188.156 77.456C186.066 73.144 185.02 68.1787 185.02 62.56ZM225.984 62.658C225.984 58.4767 224.808 55.1773 222.456 52.76C220.17 50.3427 217.36 49.134 214.028 49.134C210.696 49.134 207.854 50.3427 205.502 52.76C203.216 55.112 202.072 58.3787 202.072 62.56C202.072 66.7413 203.216 70.0733 205.502 72.556C207.854 74.9733 210.696 76.182 214.028 76.182C217.36 76.182 220.17 74.9733 222.456 72.556C224.808 70.1387 225.984 66.8393 225.984 62.658ZM283.384 75.79V90H274.858C268.782 90 264.045 88.53 260.648 85.59C257.251 82.5847 255.552 77.7173 255.552 70.988V49.232H248.888V35.316H255.552V21.988H272.31V35.316H283.286V49.232H272.31V71.184C272.31 72.8173 272.702 73.9933 273.486 74.712C274.27 75.4307 275.577 75.79 277.406 75.79H283.384ZM326.324 21.204V90H309.566V21.204H326.324ZM382.176 42.96C380.935 40.6733 379.138 38.942 376.786 37.766C374.5 36.5247 371.788 35.904 368.652 35.904C363.23 35.904 358.885 37.7007 355.618 41.294C352.352 44.822 350.718 49.5587 350.718 55.504C350.718 61.8413 352.417 66.8067 355.814 70.4C359.277 73.928 364.014 75.692 370.024 75.692C374.14 75.692 377.603 74.6467 380.412 72.556C383.287 70.4653 385.378 67.46 386.684 63.54H365.418V51.192H401.874V66.774C400.633 70.9553 398.51 74.8427 395.504 78.436C392.564 82.0293 388.808 84.9367 384.234 87.158C379.661 89.3793 374.5 90.49 368.75 90.49C361.956 90.49 355.88 89.02 350.522 86.08C345.23 83.0747 341.082 78.926 338.076 73.634C335.136 68.342 333.666 62.2987 333.666 55.504C333.666 48.7093 335.136 42.666 338.076 37.374C341.082 32.0167 345.23 27.868 350.522 24.928C355.814 21.9227 361.858 20.42 368.652 20.42C376.884 20.42 383.81 22.4127 389.428 26.398C395.112 30.3833 398.869 35.904 400.698 42.96H382.176ZM470.741 90H453.983L425.955 47.566V90H409.197V21.204H425.955L453.983 63.834V21.204H470.741V90ZM497.686 34.63V48.546H520.128V61.482H497.686V76.574H523.068V90H480.928V21.204H523.068V34.63H497.686ZM571.874 90L548.746 59.62V90H531.988V21.204H548.746V51.388L571.678 21.204H591.376L564.72 54.916L592.356 90H571.874ZM83.986 133.204V202H67.228V160.742L51.842 202H38.318L22.834 160.644V202H6.076V133.204H25.872L45.178 180.832L64.288 133.204H83.986ZM145.625 173.776C145.625 175.344 145.527 176.977 145.331 178.676H107.405C107.666 182.073 108.744 184.687 110.639 186.516C112.599 188.28 114.984 189.162 117.793 189.162C121.974 189.162 124.882 187.398 126.515 183.87H144.351C143.436 187.463 141.77 190.697 139.353 193.572C137.001 196.447 134.028 198.701 130.435 200.334C126.842 201.967 122.824 202.784 118.381 202.784C113.024 202.784 108.254 201.641 104.073 199.354C99.8916 197.067 96.6249 193.801 94.2729 189.554C91.9209 185.307 90.7449 180.342 90.7449 174.658C90.7449 168.974 91.8883 164.009 94.1749 159.762C96.5269 155.515 99.7936 152.249 103.975 149.962C108.156 147.675 112.958 146.532 118.381 146.532C123.673 146.532 128.377 147.643 132.493 149.864C136.609 152.085 139.81 155.254 142.097 159.37C144.449 163.486 145.625 168.288 145.625 173.776ZM128.475 169.366C128.475 166.491 127.495 164.205 125.535 162.506C123.575 160.807 121.125 159.958 118.185 159.958C115.376 159.958 112.991 160.775 111.031 162.408C109.136 164.041 107.96 166.361 107.503 169.366H128.475ZM149.174 174.56C149.174 168.941 150.219 164.009 152.31 159.762C154.466 155.515 157.373 152.249 161.032 149.962C164.69 147.675 168.774 146.532 173.282 146.532C177.136 146.532 180.501 147.316 183.376 148.884C186.316 150.452 188.57 152.51 190.138 155.058V147.316H206.896V202H190.138V194.258C188.504 196.806 186.218 198.864 183.278 200.432C180.403 202 177.038 202.784 173.184 202.784C168.741 202.784 164.69 201.641 161.032 199.354C157.373 197.002 154.466 193.703 152.31 189.456C150.219 185.144 149.174 180.179 149.174 174.56ZM190.138 174.658C190.138 170.477 188.962 167.177 186.61 164.76C184.323 162.343 181.514 161.134 178.182 161.134C174.85 161.134 172.008 162.343 169.656 164.76C167.369 167.112 166.226 170.379 166.226 174.56C166.226 178.741 167.369 182.073 169.656 184.556C172.008 186.973 174.85 188.182 178.182 188.182C181.514 188.182 184.323 186.973 186.61 184.556C188.962 182.139 190.138 178.839 190.138 174.658ZM250.379 146.728C256.782 146.728 261.878 148.819 265.667 153C269.522 157.116 271.449 162.8 271.449 170.052V202H254.789V172.306C254.789 168.647 253.842 165.805 251.947 163.78C250.053 161.755 247.505 160.742 244.303 160.742C241.102 160.742 238.554 161.755 236.659 163.78C234.765 165.805 233.817 168.647 233.817 172.306V202H217.059V147.316H233.817V154.568C235.516 152.151 237.803 150.256 240.677 148.884C243.552 147.447 246.786 146.728 250.379 146.728ZM303.38 202.784C298.611 202.784 294.364 201.967 290.64 200.334C286.916 198.701 283.976 196.479 281.82 193.67C279.664 190.795 278.456 187.594 278.194 184.066H294.756C294.952 185.961 295.834 187.496 297.402 188.672C298.97 189.848 300.898 190.436 303.184 190.436C305.275 190.436 306.876 190.044 307.986 189.26C309.162 188.411 309.75 187.333 309.75 186.026C309.75 184.458 308.934 183.315 307.3 182.596C305.667 181.812 303.021 180.963 299.362 180.048C295.442 179.133 292.176 178.186 289.562 177.206C286.949 176.161 284.695 174.56 282.8 172.404C280.906 170.183 279.958 167.21 279.958 163.486C279.958 160.35 280.808 157.508 282.506 154.96C284.27 152.347 286.818 150.289 290.15 148.786C293.548 147.283 297.566 146.532 302.204 146.532C309.064 146.532 314.454 148.231 318.374 151.628C322.36 155.025 324.646 159.533 325.234 165.152H309.75C309.489 163.257 308.64 161.755 307.202 160.644C305.83 159.533 304.001 158.978 301.714 158.978C299.754 158.978 298.252 159.37 297.206 160.154C296.161 160.873 295.638 161.885 295.638 163.192C295.638 164.76 296.455 165.936 298.088 166.72C299.787 167.504 302.4 168.288 305.928 169.072C309.979 170.117 313.278 171.163 315.826 172.208C318.374 173.188 320.596 174.821 322.49 177.108C324.45 179.329 325.463 182.335 325.528 186.124C325.528 189.325 324.614 192.2 322.784 194.748C321.02 197.231 318.44 199.191 315.042 200.628C311.71 202.065 307.823 202.784 303.38 202.784ZM430.538 133.204V202H413.78V160.742L398.394 202H384.87L369.386 160.644V202H352.628V133.204H372.424L391.73 180.832L410.84 133.204H430.538ZM465.521 202.784C460.164 202.784 455.329 201.641 451.017 199.354C446.771 197.067 443.406 193.801 440.923 189.554C438.506 185.307 437.297 180.342 437.297 174.658C437.297 169.039 438.539 164.107 441.021 159.86C443.504 155.548 446.901 152.249 451.213 149.962C455.525 147.675 460.36 146.532 465.717 146.532C471.075 146.532 475.909 147.675 480.221 149.962C484.533 152.249 487.931 155.548 490.413 159.86C492.896 164.107 494.137 169.039 494.137 174.658C494.137 180.277 492.863 185.242 490.315 189.554C487.833 193.801 484.403 197.067 480.025 199.354C475.713 201.641 470.879 202.784 465.521 202.784ZM465.521 188.28C468.723 188.28 471.434 187.104 473.655 184.752C475.942 182.4 477.085 179.035 477.085 174.658C477.085 170.281 475.975 166.916 473.753 164.564C471.597 162.212 468.919 161.036 465.717 161.036C462.451 161.036 459.739 162.212 457.583 164.564C455.427 166.851 454.349 170.215 454.349 174.658C454.349 179.035 455.395 182.4 457.485 184.752C459.641 187.104 462.32 188.28 465.521 188.28ZM517.826 156.43C519.786 153.425 522.236 151.073 525.176 149.374C528.116 147.61 531.383 146.728 534.976 146.728V164.466H530.37C526.189 164.466 523.053 165.381 520.962 167.21C518.871 168.974 517.826 172.11 517.826 176.618V202H501.068V147.316H517.826V156.43ZM592.574 173.776C592.574 175.344 592.476 176.977 592.28 178.676H554.354C554.615 182.073 555.693 184.687 557.588 186.516C559.548 188.28 561.932 189.162 564.742 189.162C568.923 189.162 571.83 187.398 573.464 183.87H591.3C590.385 187.463 588.719 190.697 586.302 193.572C583.95 196.447 580.977 198.701 577.384 200.334C573.79 201.967 569.772 202.784 565.33 202.784C559.972 202.784 555.203 201.641 551.022 199.354C546.84 197.067 543.574 193.801 541.222 189.554C538.87 185.307 537.694 180.342 537.694 174.658C537.694 168.974 538.837 164.009 541.124 159.762C543.476 155.515 546.742 152.249 550.924 149.962C555.105 147.675 559.907 146.532 565.33 146.532C570.622 146.532 575.326 147.643 579.442 149.864C583.558 152.085 586.759 155.254 589.046 159.37C591.398 163.486 592.574 168.288 592.574 173.776ZM575.424 169.366C575.424 166.491 574.444 164.205 572.484 162.506C570.524 160.807 568.074 159.958 565.134 159.958C562.324 159.958 559.94 160.775 557.98 162.408C556.085 164.041 554.909 166.361 554.452 169.366H575.424ZM55.566 245.204V258.63H37.338V314H20.58V258.63H2.352V245.204H55.566ZM95.6304 258.728C101.902 258.728 106.933 260.819 110.722 265C114.512 269.116 116.406 274.8 116.406 282.052V314H99.7464V284.306C99.7464 280.647 98.7991 277.805 96.9044 275.78C95.0097 273.755 92.4617 272.742 89.2604 272.742C86.0591 272.742 83.5111 273.755 81.6164 275.78C79.7217 277.805 78.7744 280.647 78.7744 284.306V314H62.0164V241.48H78.7744V266.666C80.4731 264.249 82.7924 262.321 85.7324 260.884C88.6724 259.447 91.9717 258.728 95.6304 258.728ZM122.76 286.56C122.76 280.941 123.805 276.009 125.896 271.762C128.052 267.515 130.959 264.249 134.618 261.962C138.276 259.675 142.36 258.532 146.868 258.532C150.722 258.532 154.087 259.316 156.962 260.884C159.902 262.452 162.156 264.51 163.724 267.058V259.316H180.482V314H163.724V306.258C162.09 308.806 159.804 310.864 156.864 312.432C153.989 314 150.624 314.784 146.77 314.784C142.327 314.784 138.276 313.641 134.618 311.354C130.959 309.002 128.052 305.703 125.896 301.456C123.805 297.144 122.76 292.179 122.76 286.56ZM163.724 286.658C163.724 282.477 162.548 279.177 160.196 276.76C157.909 274.343 155.1 273.134 151.768 273.134C148.436 273.134 145.594 274.343 143.242 276.76C140.955 279.112 139.812 282.379 139.812 286.56C139.812 290.741 140.955 294.073 143.242 296.556C145.594 298.973 148.436 300.182 151.768 300.182C155.1 300.182 157.909 298.973 160.196 296.556C162.548 294.139 163.724 290.839 163.724 286.658ZM223.965 258.728C230.368 258.728 235.464 260.819 239.253 265C243.108 269.116 245.035 274.8 245.035 282.052V314H228.375V284.306C228.375 280.647 227.428 277.805 225.533 275.78C223.639 273.755 221.091 272.742 217.889 272.742C214.688 272.742 212.14 273.755 210.245 275.78C208.351 277.805 207.403 280.647 207.403 284.306V314H190.645V259.316H207.403V266.568C209.102 264.151 211.389 262.256 214.263 260.884C217.138 259.447 220.372 258.728 223.965 258.728ZM316.648 245.204V292.048C316.648 299.3 314.59 304.886 310.474 308.806C306.423 312.726 300.935 314.686 294.01 314.686C286.758 314.686 280.943 312.628 276.566 308.512C272.189 304.396 270 298.549 270 290.97H286.66C286.66 293.845 287.248 296.033 288.424 297.536C289.6 298.973 291.299 299.692 293.52 299.692C295.545 299.692 297.113 299.039 298.224 297.732C299.335 296.425 299.89 294.531 299.89 292.048V245.204H316.648ZM382.222 259.316V314H365.464V306.552C363.766 308.969 361.446 310.929 358.506 312.432C355.632 313.869 352.43 314.588 348.902 314.588C344.721 314.588 341.03 313.673 337.828 311.844C334.627 309.949 332.144 307.238 330.38 303.71C328.616 300.182 327.734 296.033 327.734 291.264V259.316H344.394V289.01C344.394 292.669 345.342 295.511 347.236 297.536C349.131 299.561 351.679 300.574 354.88 300.574C358.147 300.574 360.728 299.561 362.622 297.536C364.517 295.511 365.464 292.669 365.464 289.01V259.316H382.222ZM414.545 314.784C409.776 314.784 405.529 313.967 401.805 312.334C398.081 310.701 395.141 308.479 392.985 305.67C390.829 302.795 389.621 299.594 389.359 296.066H405.921C406.117 297.961 406.999 299.496 408.567 300.672C410.135 301.848 412.063 302.436 414.349 302.436C416.44 302.436 418.041 302.044 419.151 301.26C420.327 300.411 420.915 299.333 420.915 298.026C420.915 296.458 420.099 295.315 418.465 294.596C416.832 293.812 414.186 292.963 410.527 292.048C406.607 291.133 403.341 290.186 400.727 289.206C398.114 288.161 395.86 286.56 393.965 284.404C392.071 282.183 391.123 279.21 391.123 275.486C391.123 272.35 391.973 269.508 393.671 266.96C395.435 264.347 397.983 262.289 401.315 260.786C404.713 259.283 408.731 258.532 413.369 258.532C420.229 258.532 425.619 260.231 429.539 263.628C433.525 267.025 435.811 271.533 436.399 277.152H420.915C420.654 275.257 419.805 273.755 418.367 272.644C416.995 271.533 415.166 270.978 412.879 270.978C410.919 270.978 409.417 271.37 408.371 272.154C407.326 272.873 406.803 273.885 406.803 275.192C406.803 276.76 407.62 277.936 409.253 278.72C410.952 279.504 413.565 280.288 417.093 281.072C421.144 282.117 424.443 283.163 426.991 284.208C429.539 285.188 431.761 286.821 433.655 289.108C435.615 291.329 436.628 294.335 436.693 298.124C436.693 301.325 435.779 304.2 433.949 306.748C432.185 309.231 429.605 311.191 426.207 312.628C422.875 314.065 418.988 314.784 414.545 314.784ZM475.464 299.79V314H466.938C460.862 314 456.125 312.53 452.728 309.59C449.331 306.585 447.632 301.717 447.632 294.988V273.232H440.968V259.316H447.632V245.988H464.39V259.316H475.366V273.232H464.39V295.184C464.39 296.817 464.782 297.993 465.566 298.712C466.35 299.431 467.657 299.79 469.486 299.79H475.464ZM596.314 245.204L578.38 314H558.094L547.118 268.724L535.75 314H515.464L498.02 245.204H515.954L525.852 295.282L538.102 245.204H556.526L568.286 295.282L578.282 245.204H596.314ZM627.65 314.784C622.293 314.784 617.458 313.641 613.146 311.354C608.9 309.067 605.535 305.801 603.052 301.554C600.635 297.307 599.426 292.342 599.426 286.658C599.426 281.039 600.668 276.107 603.15 271.86C605.633 267.548 609.03 264.249 613.342 261.962C617.654 259.675 622.489 258.532 627.846 258.532C633.204 258.532 638.038 259.675 642.35 261.962C646.662 264.249 650.06 267.548 652.542 271.86C655.025 276.107 656.266 281.039 656.266 286.658C656.266 292.277 654.992 297.242 652.444 301.554C649.962 305.801 646.532 309.067 642.154 311.354C637.842 313.641 633.008 314.784 627.65 314.784ZM627.65 300.28C630.852 300.28 633.563 299.104 635.784 296.752C638.071 294.4 639.214 291.035 639.214 286.658C639.214 282.281 638.104 278.916 635.882 276.564C633.726 274.212 631.048 273.036 627.846 273.036C624.58 273.036 621.868 274.212 619.712 276.564C617.556 278.851 616.478 282.215 616.478 286.658C616.478 291.035 617.524 294.4 619.614 296.752C621.77 299.104 624.449 300.28 627.65 300.28ZM679.955 268.43C681.915 265.425 684.365 263.073 687.305 261.374C690.245 259.61 693.511 258.728 697.105 258.728V276.466H692.499C688.317 276.466 685.181 277.381 683.091 279.21C681 280.974 679.955 284.11 679.955 288.618V314H663.197V259.316H679.955V268.43ZM736.573 314L719.913 291.068V314H703.155V241.48H719.913V281.562L736.475 259.316H757.153L734.417 286.756L757.349 314H736.573Z" fill="white"/>
</svg>
